%TF.GenerationSoftware,KiCad,Pcbnew,7.0.1*%
%TF.CreationDate,2024-11-28T00:40:51-08:00*%
%TF.ProjectId,puzzle_room,70757a7a-6c65-45f7-926f-6f6d2e6b6963,rev?*%
%TF.SameCoordinates,Original*%
%TF.FileFunction,Soldermask,Top*%
%TF.FilePolarity,Negative*%
%FSLAX46Y46*%
G04 Gerber Fmt 4.6, Leading zero omitted, Abs format (unit mm)*
G04 Created by KiCad (PCBNEW 7.0.1) date 2024-11-28 00:40:51*
%MOMM*%
%LPD*%
G01*
G04 APERTURE LIST*
%ADD10R,2.000000X2.000000*%
%ADD11C,2.000000*%
%ADD12C,1.600000*%
%ADD13O,1.600000X1.600000*%
%ADD14C,1.574800*%
%ADD15R,1.800000X1.800000*%
%ADD16C,1.800000*%
%ADD17R,1.600000X1.600000*%
G04 APERTURE END LIST*
D10*
%TO.C,BZ1*%
X129540000Y-66284000D03*
D11*
X129540000Y-73884000D03*
%TD*%
D12*
%TO.C,R5*%
X153416000Y-56886000D03*
D13*
X163576000Y-56886000D03*
%TD*%
D14*
%TO.C,J1*%
X116332000Y-45212000D03*
X116332000Y-42672000D03*
%TD*%
D15*
%TO.C,D4*%
X162708000Y-70348000D03*
D16*
X165248000Y-70348000D03*
%TD*%
D12*
%TO.C,R1*%
X127508000Y-53330000D03*
D13*
X137668000Y-53330000D03*
%TD*%
D15*
%TO.C,D3*%
X155208000Y-70348000D03*
D16*
X157748000Y-70348000D03*
%TD*%
D15*
%TO.C,D2*%
X147708000Y-70348000D03*
D16*
X150248000Y-70348000D03*
%TD*%
D12*
%TO.C,R3*%
X150876000Y-56886000D03*
D13*
X140716000Y-56886000D03*
%TD*%
D11*
%TO.C,SW1*%
X116368000Y-70306000D03*
X116368000Y-63806000D03*
X120868000Y-70306000D03*
X120868000Y-63806000D03*
%TD*%
D12*
%TO.C,R4*%
X153416000Y-53330000D03*
D13*
X163576000Y-53330000D03*
%TD*%
D17*
%TO.C,D5*%
X120142000Y-37592000D03*
D13*
X120142000Y-45212000D03*
%TD*%
D17*
%TO.C,A1*%
X126238000Y-50028000D03*
D13*
X128778000Y-50028000D03*
X131318000Y-50028000D03*
X133858000Y-50028000D03*
X136398000Y-50028000D03*
X138938000Y-50028000D03*
X141478000Y-50028000D03*
X144018000Y-50028000D03*
X146558000Y-50028000D03*
X149098000Y-50028000D03*
X151638000Y-50028000D03*
X154178000Y-50028000D03*
X156718000Y-50028000D03*
X159258000Y-50028000D03*
X161798000Y-50028000D03*
X161798000Y-34788000D03*
X159258000Y-34788000D03*
X156718000Y-34788000D03*
X154178000Y-34788000D03*
X151638000Y-34788000D03*
X149098000Y-34788000D03*
X146558000Y-34788000D03*
X144018000Y-34788000D03*
X141478000Y-34788000D03*
X138938000Y-34788000D03*
X136398000Y-34788000D03*
X133858000Y-34788000D03*
X131318000Y-34788000D03*
X128778000Y-34788000D03*
X126238000Y-34788000D03*
%TD*%
D12*
%TO.C,R2*%
X150876000Y-53330000D03*
D13*
X140716000Y-53330000D03*
%TD*%
D15*
%TO.C,D1*%
X140208000Y-70348000D03*
D16*
X142748000Y-70348000D03*
%TD*%
M02*
