%TF.GenerationSoftware,KiCad,Pcbnew,7.0.1*%
%TF.CreationDate,2024-11-28T00:40:51-08:00*%
%TF.ProjectId,puzzle_room,70757a7a-6c65-45f7-926f-6f6d2e6b6963,rev?*%
%TF.SameCoordinates,Original*%
%TF.FileFunction,Copper,L2,Bot*%
%TF.FilePolarity,Positive*%
%FSLAX46Y46*%
G04 Gerber Fmt 4.6, Leading zero omitted, Abs format (unit mm)*
G04 Created by KiCad (PCBNEW 7.0.1) date 2024-11-28 00:40:51*
%MOMM*%
%LPD*%
G01*
G04 APERTURE LIST*
%TA.AperFunction,ComponentPad*%
%ADD10R,2.000000X2.000000*%
%TD*%
%TA.AperFunction,ComponentPad*%
%ADD11C,2.000000*%
%TD*%
%TA.AperFunction,ComponentPad*%
%ADD12C,1.600000*%
%TD*%
%TA.AperFunction,ComponentPad*%
%ADD13O,1.600000X1.600000*%
%TD*%
%TA.AperFunction,ComponentPad*%
%ADD14C,1.574800*%
%TD*%
%TA.AperFunction,ComponentPad*%
%ADD15R,1.800000X1.800000*%
%TD*%
%TA.AperFunction,ComponentPad*%
%ADD16C,1.800000*%
%TD*%
%TA.AperFunction,ComponentPad*%
%ADD17R,1.600000X1.600000*%
%TD*%
%TA.AperFunction,Conductor*%
%ADD18C,0.250000*%
%TD*%
G04 APERTURE END LIST*
D10*
%TO.P,BZ1,1,-*%
%TO.N,Speaker*%
X129540000Y-66284000D03*
D11*
%TO.P,BZ1,2,+*%
%TO.N,GND*%
X129540000Y-73884000D03*
%TD*%
D12*
%TO.P,R5,1*%
%TO.N,Green*%
X153416000Y-56886000D03*
D13*
%TO.P,R5,2*%
%TO.N,Net-(D4-A)*%
X163576000Y-56886000D03*
%TD*%
D14*
%TO.P,J1,1,1*%
%TO.N,9v_in*%
X116332000Y-45212000D03*
%TO.P,J1,2,2*%
%TO.N,GND*%
X116332000Y-42672000D03*
%TD*%
D15*
%TO.P,D4,1,K*%
%TO.N,GND*%
X162708000Y-70348000D03*
D16*
%TO.P,D4,2,A*%
%TO.N,Net-(D4-A)*%
X165248000Y-70348000D03*
%TD*%
D12*
%TO.P,R1,1*%
%TO.N,button*%
X127508000Y-53330000D03*
D13*
%TO.P,R1,2*%
%TO.N,GND*%
X137668000Y-53330000D03*
%TD*%
D15*
%TO.P,D3,1,K*%
%TO.N,GND*%
X155208000Y-70348000D03*
D16*
%TO.P,D3,2,A*%
%TO.N,Net-(D3-A)*%
X157748000Y-70348000D03*
%TD*%
D15*
%TO.P,D2,1,K*%
%TO.N,GND*%
X147708000Y-70348000D03*
D16*
%TO.P,D2,2,A*%
%TO.N,Net-(D2-A)*%
X150248000Y-70348000D03*
%TD*%
D12*
%TO.P,R3,1*%
%TO.N,Red1*%
X150876000Y-56886000D03*
D13*
%TO.P,R3,2*%
%TO.N,Net-(D2-A)*%
X140716000Y-56886000D03*
%TD*%
D11*
%TO.P,SW1,1,1*%
%TO.N,+5V*%
X116368000Y-70306000D03*
X116368000Y-63806000D03*
%TO.P,SW1,2,2*%
%TO.N,button*%
X120868000Y-70306000D03*
X120868000Y-63806000D03*
%TD*%
D12*
%TO.P,R4,1*%
%TO.N,Yellow*%
X153416000Y-53330000D03*
D13*
%TO.P,R4,2*%
%TO.N,Net-(D3-A)*%
X163576000Y-53330000D03*
%TD*%
D17*
%TO.P,D5,1,K*%
%TO.N,Net-(A1-VIN)*%
X120142000Y-37592000D03*
D13*
%TO.P,D5,2,A*%
%TO.N,9v_in*%
X120142000Y-45212000D03*
%TD*%
D17*
%TO.P,A1,1,D1/TX*%
%TO.N,unconnected-(A1-D1{slash}TX-Pad1)*%
X126238000Y-50028000D03*
D13*
%TO.P,A1,2,D0/RX*%
%TO.N,unconnected-(A1-D0{slash}RX-Pad2)*%
X128778000Y-50028000D03*
%TO.P,A1,3,~{RESET}*%
%TO.N,unconnected-(A1-~{RESET}-Pad3)*%
X131318000Y-50028000D03*
%TO.P,A1,4,GND*%
%TO.N,GND*%
X133858000Y-50028000D03*
%TO.P,A1,5,D2*%
%TO.N,button*%
X136398000Y-50028000D03*
%TO.P,A1,6,D3*%
%TO.N,unconnected-(A1-D3-Pad6)*%
X138938000Y-50028000D03*
%TO.P,A1,7,D4*%
%TO.N,unconnected-(A1-D4-Pad7)*%
X141478000Y-50028000D03*
%TO.P,A1,8,D5*%
%TO.N,Speaker*%
X144018000Y-50028000D03*
%TO.P,A1,9,D6*%
%TO.N,unconnected-(A1-D6-Pad9)*%
X146558000Y-50028000D03*
%TO.P,A1,10,D7*%
%TO.N,unconnected-(A1-D7-Pad10)*%
X149098000Y-50028000D03*
%TO.P,A1,11,D8*%
%TO.N,unconnected-(A1-D8-Pad11)*%
X151638000Y-50028000D03*
%TO.P,A1,12,D9*%
%TO.N,Red2*%
X154178000Y-50028000D03*
%TO.P,A1,13,D10*%
%TO.N,Red1*%
X156718000Y-50028000D03*
%TO.P,A1,14,D11*%
%TO.N,Yellow*%
X159258000Y-50028000D03*
%TO.P,A1,15,D12*%
%TO.N,Green*%
X161798000Y-50028000D03*
%TO.P,A1,16,D13*%
%TO.N,unconnected-(A1-D13-Pad16)*%
X161798000Y-34788000D03*
%TO.P,A1,17,3V3*%
%TO.N,unconnected-(A1-3V3-Pad17)*%
X159258000Y-34788000D03*
%TO.P,A1,18,AREF*%
%TO.N,unconnected-(A1-AREF-Pad18)*%
X156718000Y-34788000D03*
%TO.P,A1,19,A0*%
%TO.N,unconnected-(A1-A0-Pad19)*%
X154178000Y-34788000D03*
%TO.P,A1,20,A1*%
%TO.N,unconnected-(A1-A1-Pad20)*%
X151638000Y-34788000D03*
%TO.P,A1,21,A2*%
%TO.N,unconnected-(A1-A2-Pad21)*%
X149098000Y-34788000D03*
%TO.P,A1,22,A3*%
%TO.N,unconnected-(A1-A3-Pad22)*%
X146558000Y-34788000D03*
%TO.P,A1,23,A4*%
%TO.N,unconnected-(A1-A4-Pad23)*%
X144018000Y-34788000D03*
%TO.P,A1,24,A5*%
%TO.N,unconnected-(A1-A5-Pad24)*%
X141478000Y-34788000D03*
%TO.P,A1,25,A6*%
%TO.N,unconnected-(A1-A6-Pad25)*%
X138938000Y-34788000D03*
%TO.P,A1,26,A7*%
%TO.N,unconnected-(A1-A7-Pad26)*%
X136398000Y-34788000D03*
%TO.P,A1,27,+5V*%
%TO.N,+5V*%
X133858000Y-34788000D03*
%TO.P,A1,28,~{RESET}*%
%TO.N,unconnected-(A1-~{RESET}-Pad28)*%
X131318000Y-34788000D03*
%TO.P,A1,29,GND*%
%TO.N,GND*%
X128778000Y-34788000D03*
%TO.P,A1,30,VIN*%
%TO.N,Net-(A1-VIN)*%
X126238000Y-34788000D03*
%TD*%
D12*
%TO.P,R2,1*%
%TO.N,Red2*%
X150876000Y-53330000D03*
D13*
%TO.P,R2,2*%
%TO.N,Net-(D1-A)*%
X140716000Y-53330000D03*
%TD*%
D15*
%TO.P,D1,1,K*%
%TO.N,GND*%
X140208000Y-70348000D03*
D16*
%TO.P,D1,2,A*%
%TO.N,Net-(D1-A)*%
X142748000Y-70348000D03*
%TD*%
D18*
%TO.N,GND*%
X134366000Y-50028000D02*
X133858000Y-50028000D01*
%TD*%
%TA.AperFunction,Conductor*%
%TO.N,GND*%
G36*
X175437500Y-30517113D02*
G01*
X175482887Y-30562500D01*
X175499500Y-30624500D01*
X175499500Y-77375500D01*
X175482887Y-77437500D01*
X175437500Y-77482887D01*
X175375500Y-77499500D01*
X113624500Y-77499500D01*
X113562500Y-77482887D01*
X113517113Y-77437500D01*
X113500500Y-77375500D01*
X113500500Y-74499999D01*
X114744591Y-74499999D01*
X114764197Y-74761627D01*
X114822580Y-75017418D01*
X114872281Y-75144053D01*
X114918432Y-75261643D01*
X115049614Y-75488857D01*
X115213195Y-75693981D01*
X115213197Y-75693983D01*
X115213198Y-75693984D01*
X115405514Y-75872428D01*
X115405520Y-75872432D01*
X115405521Y-75872433D01*
X115622296Y-76020228D01*
X115858677Y-76134063D01*
X116109385Y-76211396D01*
X116368818Y-76250500D01*
X116631182Y-76250500D01*
X116890615Y-76211396D01*
X117141323Y-76134063D01*
X117377704Y-76020228D01*
X117594479Y-75872433D01*
X117594482Y-75872429D01*
X117594485Y-75872428D01*
X117679792Y-75793273D01*
X117786805Y-75693981D01*
X117950386Y-75488857D01*
X118081568Y-75261643D01*
X118142021Y-75107610D01*
X128669942Y-75107610D01*
X128716766Y-75144055D01*
X128935393Y-75262368D01*
X129170506Y-75343083D01*
X129415707Y-75384000D01*
X129664293Y-75384000D01*
X129909493Y-75343083D01*
X130144606Y-75262368D01*
X130363233Y-75144053D01*
X130410056Y-75107609D01*
X129540000Y-74237553D01*
X128669942Y-75107609D01*
X128669942Y-75107610D01*
X118142021Y-75107610D01*
X118177420Y-75017416D01*
X118235802Y-74761630D01*
X118255408Y-74500000D01*
X118235802Y-74238370D01*
X118177420Y-73982584D01*
X118138729Y-73884000D01*
X128034858Y-73884000D01*
X128055386Y-74131732D01*
X128116413Y-74372721D01*
X128216268Y-74600370D01*
X128316563Y-74753882D01*
X128316564Y-74753882D01*
X129186447Y-73884001D01*
X129893553Y-73884001D01*
X130763434Y-74753882D01*
X130863730Y-74600369D01*
X130907757Y-74499999D01*
X170744591Y-74499999D01*
X170764197Y-74761627D01*
X170822580Y-75017418D01*
X170872281Y-75144053D01*
X170918432Y-75261643D01*
X171049614Y-75488857D01*
X171213195Y-75693981D01*
X171213197Y-75693983D01*
X171213198Y-75693984D01*
X171405514Y-75872428D01*
X171405520Y-75872432D01*
X171405521Y-75872433D01*
X171622296Y-76020228D01*
X171858677Y-76134063D01*
X172109385Y-76211396D01*
X172368818Y-76250500D01*
X172631182Y-76250500D01*
X172890615Y-76211396D01*
X173141323Y-76134063D01*
X173377704Y-76020228D01*
X173594479Y-75872433D01*
X173594482Y-75872429D01*
X173594485Y-75872428D01*
X173679792Y-75793273D01*
X173786805Y-75693981D01*
X173950386Y-75488857D01*
X174081568Y-75261643D01*
X174177420Y-75017416D01*
X174235802Y-74761630D01*
X174255408Y-74500000D01*
X174235802Y-74238370D01*
X174177420Y-73982584D01*
X174081568Y-73738357D01*
X173950386Y-73511143D01*
X173786805Y-73306019D01*
X173786801Y-73306015D01*
X173594485Y-73127571D01*
X173577170Y-73115766D01*
X173377704Y-72979772D01*
X173141323Y-72865937D01*
X172890615Y-72788604D01*
X172631182Y-72749500D01*
X172368818Y-72749500D01*
X172109385Y-72788604D01*
X171858677Y-72865937D01*
X171622296Y-72979772D01*
X171614791Y-72984889D01*
X171405514Y-73127571D01*
X171213198Y-73306015D01*
X171049613Y-73511143D01*
X170918431Y-73738358D01*
X170822580Y-73982581D01*
X170764197Y-74238372D01*
X170744591Y-74499999D01*
X130907757Y-74499999D01*
X130963586Y-74372721D01*
X131024613Y-74131732D01*
X131045141Y-73884000D01*
X131024613Y-73636267D01*
X130963586Y-73395278D01*
X130863730Y-73167630D01*
X130763434Y-73014116D01*
X129893553Y-73884000D01*
X129893553Y-73884001D01*
X129186447Y-73884001D01*
X129186447Y-73884000D01*
X128316564Y-73014116D01*
X128216266Y-73167634D01*
X128116413Y-73395278D01*
X128055386Y-73636267D01*
X128034858Y-73884000D01*
X118138729Y-73884000D01*
X118081568Y-73738357D01*
X117950386Y-73511143D01*
X117786805Y-73306019D01*
X117786801Y-73306015D01*
X117594485Y-73127571D01*
X117577170Y-73115766D01*
X117377704Y-72979772D01*
X117141323Y-72865937D01*
X116890615Y-72788604D01*
X116631182Y-72749500D01*
X116368818Y-72749500D01*
X116109385Y-72788604D01*
X115858677Y-72865937D01*
X115622296Y-72979772D01*
X115614791Y-72984889D01*
X115405514Y-73127571D01*
X115213198Y-73306015D01*
X115049613Y-73511143D01*
X114918431Y-73738358D01*
X114822580Y-73982581D01*
X114764197Y-74238372D01*
X114744591Y-74499999D01*
X113500500Y-74499999D01*
X113500500Y-72660390D01*
X128669942Y-72660390D01*
X129540000Y-73530447D01*
X129540001Y-73530447D01*
X130410057Y-72660390D01*
X130410056Y-72660388D01*
X130363235Y-72623947D01*
X130144606Y-72505631D01*
X129909493Y-72424916D01*
X129664293Y-72384000D01*
X129415707Y-72384000D01*
X129170506Y-72424916D01*
X128935393Y-72505631D01*
X128716764Y-72623946D01*
X128669942Y-72660388D01*
X128669942Y-72660390D01*
X113500500Y-72660390D01*
X113500500Y-70306000D01*
X114862356Y-70306000D01*
X114882891Y-70553816D01*
X114882891Y-70553819D01*
X114882892Y-70553821D01*
X114943937Y-70794881D01*
X114948069Y-70804300D01*
X115043825Y-71022604D01*
X115043827Y-71022607D01*
X115179836Y-71230785D01*
X115348256Y-71413738D01*
X115348259Y-71413740D01*
X115544485Y-71566470D01*
X115544487Y-71566471D01*
X115544491Y-71566474D01*
X115763190Y-71684828D01*
X115998386Y-71765571D01*
X116243665Y-71806500D01*
X116492335Y-71806500D01*
X116737614Y-71765571D01*
X116972810Y-71684828D01*
X117191509Y-71566474D01*
X117387744Y-71413738D01*
X117556164Y-71230785D01*
X117692173Y-71022607D01*
X117792063Y-70794881D01*
X117853108Y-70553821D01*
X117873643Y-70306000D01*
X119362356Y-70306000D01*
X119382891Y-70553816D01*
X119382891Y-70553819D01*
X119382892Y-70553821D01*
X119443937Y-70794881D01*
X119448069Y-70804300D01*
X119543825Y-71022604D01*
X119543827Y-71022607D01*
X119679836Y-71230785D01*
X119848256Y-71413738D01*
X119848259Y-71413740D01*
X120044485Y-71566470D01*
X120044487Y-71566471D01*
X120044491Y-71566474D01*
X120263190Y-71684828D01*
X120498386Y-71765571D01*
X120743665Y-71806500D01*
X120992335Y-71806500D01*
X121237614Y-71765571D01*
X121472810Y-71684828D01*
X121691509Y-71566474D01*
X121887744Y-71413738D01*
X122056164Y-71230785D01*
X122192173Y-71022607D01*
X122292063Y-70794881D01*
X122341920Y-70598000D01*
X138808000Y-70598000D01*
X138808000Y-71295824D01*
X138814402Y-71355375D01*
X138864647Y-71490089D01*
X138950811Y-71605188D01*
X139065910Y-71691352D01*
X139200624Y-71741597D01*
X139260176Y-71748000D01*
X139958000Y-71748000D01*
X140458000Y-71748000D01*
X141155824Y-71748000D01*
X141215375Y-71741597D01*
X141350089Y-71691352D01*
X141465188Y-71605188D01*
X141551352Y-71490088D01*
X141580075Y-71413080D01*
X141616027Y-71361866D01*
X141672409Y-71334728D01*
X141734864Y-71338576D01*
X141787487Y-71372431D01*
X141796212Y-71381910D01*
X141796215Y-71381912D01*
X141796216Y-71381913D01*
X141979374Y-71524470D01*
X142183497Y-71634936D01*
X142293257Y-71672616D01*
X142403015Y-71710297D01*
X142403017Y-71710297D01*
X142403019Y-71710298D01*
X142631951Y-71748500D01*
X142864048Y-71748500D01*
X142864049Y-71748500D01*
X143092981Y-71710298D01*
X143312503Y-71634936D01*
X143516626Y-71524470D01*
X143699784Y-71381913D01*
X143856979Y-71211153D01*
X143983924Y-71016849D01*
X144077157Y-70804300D01*
X144129400Y-70598000D01*
X146308000Y-70598000D01*
X146308000Y-71295824D01*
X146314402Y-71355375D01*
X146364647Y-71490089D01*
X146450811Y-71605188D01*
X146565910Y-71691352D01*
X146700624Y-71741597D01*
X146760176Y-71748000D01*
X147458000Y-71748000D01*
X147958000Y-71748000D01*
X148655824Y-71748000D01*
X148715375Y-71741597D01*
X148850089Y-71691352D01*
X148965188Y-71605188D01*
X149051352Y-71490088D01*
X149080075Y-71413080D01*
X149116027Y-71361866D01*
X149172409Y-71334728D01*
X149234864Y-71338576D01*
X149287487Y-71372431D01*
X149296212Y-71381910D01*
X149296215Y-71381912D01*
X149296216Y-71381913D01*
X149479374Y-71524470D01*
X149683497Y-71634936D01*
X149793257Y-71672616D01*
X149903015Y-71710297D01*
X149903017Y-71710297D01*
X149903019Y-71710298D01*
X150131951Y-71748500D01*
X150364048Y-71748500D01*
X150364049Y-71748500D01*
X150592981Y-71710298D01*
X150812503Y-71634936D01*
X151016626Y-71524470D01*
X151199784Y-71381913D01*
X151356979Y-71211153D01*
X151483924Y-71016849D01*
X151577157Y-70804300D01*
X151629400Y-70598000D01*
X153808000Y-70598000D01*
X153808000Y-71295824D01*
X153814402Y-71355375D01*
X153864647Y-71490089D01*
X153950811Y-71605188D01*
X154065910Y-71691352D01*
X154200624Y-71741597D01*
X154260176Y-71748000D01*
X154958000Y-71748000D01*
X155458000Y-71748000D01*
X156155824Y-71748000D01*
X156215375Y-71741597D01*
X156350089Y-71691352D01*
X156465188Y-71605188D01*
X156551352Y-71490088D01*
X156580075Y-71413080D01*
X156616027Y-71361866D01*
X156672409Y-71334728D01*
X156734864Y-71338576D01*
X156787487Y-71372431D01*
X156796212Y-71381910D01*
X156796215Y-71381912D01*
X156796216Y-71381913D01*
X156979374Y-71524470D01*
X157183497Y-71634936D01*
X157293257Y-71672616D01*
X157403015Y-71710297D01*
X157403017Y-71710297D01*
X157403019Y-71710298D01*
X157631951Y-71748500D01*
X157864048Y-71748500D01*
X157864049Y-71748500D01*
X158092981Y-71710298D01*
X158312503Y-71634936D01*
X158516626Y-71524470D01*
X158699784Y-71381913D01*
X158856979Y-71211153D01*
X158983924Y-71016849D01*
X159077157Y-70804300D01*
X159129400Y-70598000D01*
X161308000Y-70598000D01*
X161308000Y-71295824D01*
X161314402Y-71355375D01*
X161364647Y-71490089D01*
X161450811Y-71605188D01*
X161565910Y-71691352D01*
X161700624Y-71741597D01*
X161760176Y-71748000D01*
X162458000Y-71748000D01*
X162958000Y-71748000D01*
X163655824Y-71748000D01*
X163715375Y-71741597D01*
X163850089Y-71691352D01*
X163965188Y-71605188D01*
X164051352Y-71490088D01*
X164080075Y-71413080D01*
X164116027Y-71361866D01*
X164172409Y-71334728D01*
X164234864Y-71338576D01*
X164287487Y-71372431D01*
X164296212Y-71381910D01*
X164296215Y-71381912D01*
X164296216Y-71381913D01*
X164479374Y-71524470D01*
X164683497Y-71634936D01*
X164793257Y-71672616D01*
X164903015Y-71710297D01*
X164903017Y-71710297D01*
X164903019Y-71710298D01*
X165131951Y-71748500D01*
X165364048Y-71748500D01*
X165364049Y-71748500D01*
X165592981Y-71710298D01*
X165812503Y-71634936D01*
X166016626Y-71524470D01*
X166199784Y-71381913D01*
X166356979Y-71211153D01*
X166483924Y-71016849D01*
X166577157Y-70804300D01*
X166634134Y-70579305D01*
X166653300Y-70348000D01*
X166634134Y-70116695D01*
X166577157Y-69891700D01*
X166483924Y-69679151D01*
X166356979Y-69484847D01*
X166199784Y-69314087D01*
X166016626Y-69171530D01*
X165812503Y-69061064D01*
X165812499Y-69061062D01*
X165812498Y-69061062D01*
X165592984Y-68985702D01*
X165405410Y-68954402D01*
X165364049Y-68947500D01*
X165131951Y-68947500D01*
X165090590Y-68954402D01*
X164903015Y-68985702D01*
X164683501Y-69061062D01*
X164683497Y-69061063D01*
X164683497Y-69061064D01*
X164547415Y-69134707D01*
X164479372Y-69171531D01*
X164296214Y-69314088D01*
X164287485Y-69323571D01*
X164234861Y-69357424D01*
X164172407Y-69361271D01*
X164116026Y-69334133D01*
X164080075Y-69282919D01*
X164051352Y-69205911D01*
X163965188Y-69090811D01*
X163850089Y-69004647D01*
X163715375Y-68954402D01*
X163655824Y-68948000D01*
X162958000Y-68948000D01*
X162958000Y-71748000D01*
X162458000Y-71748000D01*
X162458000Y-70598000D01*
X161308000Y-70598000D01*
X159129400Y-70598000D01*
X159134134Y-70579305D01*
X159153300Y-70348000D01*
X159134134Y-70116695D01*
X159129400Y-70098000D01*
X161308000Y-70098000D01*
X162458000Y-70098000D01*
X162458000Y-68948000D01*
X161760176Y-68948000D01*
X161700624Y-68954402D01*
X161565910Y-69004647D01*
X161450811Y-69090811D01*
X161364647Y-69205910D01*
X161314402Y-69340624D01*
X161308000Y-69400176D01*
X161308000Y-70098000D01*
X159129400Y-70098000D01*
X159077157Y-69891700D01*
X158983924Y-69679151D01*
X158856979Y-69484847D01*
X158699784Y-69314087D01*
X158516626Y-69171530D01*
X158312503Y-69061064D01*
X158312499Y-69061062D01*
X158312498Y-69061062D01*
X158092984Y-68985702D01*
X157905410Y-68954402D01*
X157864049Y-68947500D01*
X157631951Y-68947500D01*
X157590590Y-68954402D01*
X157403015Y-68985702D01*
X157183501Y-69061062D01*
X157183497Y-69061063D01*
X157183497Y-69061064D01*
X157047415Y-69134707D01*
X156979372Y-69171531D01*
X156796214Y-69314088D01*
X156787485Y-69323571D01*
X156734861Y-69357424D01*
X156672407Y-69361271D01*
X156616026Y-69334133D01*
X156580075Y-69282919D01*
X156551352Y-69205911D01*
X156465188Y-69090811D01*
X156350089Y-69004647D01*
X156215375Y-68954402D01*
X156155824Y-68948000D01*
X155458000Y-68948000D01*
X155458000Y-71748000D01*
X154958000Y-71748000D01*
X154958000Y-70598000D01*
X153808000Y-70598000D01*
X151629400Y-70598000D01*
X151634134Y-70579305D01*
X151653300Y-70348000D01*
X151634134Y-70116695D01*
X151629400Y-70098000D01*
X153808000Y-70098000D01*
X154958000Y-70098000D01*
X154958000Y-68948000D01*
X154260176Y-68948000D01*
X154200624Y-68954402D01*
X154065910Y-69004647D01*
X153950811Y-69090811D01*
X153864647Y-69205910D01*
X153814402Y-69340624D01*
X153808000Y-69400176D01*
X153808000Y-70098000D01*
X151629400Y-70098000D01*
X151577157Y-69891700D01*
X151483924Y-69679151D01*
X151356979Y-69484847D01*
X151199784Y-69314087D01*
X151016626Y-69171530D01*
X150812503Y-69061064D01*
X150812499Y-69061062D01*
X150812498Y-69061062D01*
X150592984Y-68985702D01*
X150405410Y-68954402D01*
X150364049Y-68947500D01*
X150131951Y-68947500D01*
X150090590Y-68954402D01*
X149903015Y-68985702D01*
X149683501Y-69061062D01*
X149683497Y-69061063D01*
X149683497Y-69061064D01*
X149547415Y-69134707D01*
X149479372Y-69171531D01*
X149296214Y-69314088D01*
X149287485Y-69323571D01*
X149234861Y-69357424D01*
X149172407Y-69361271D01*
X149116026Y-69334133D01*
X149080075Y-69282919D01*
X149051352Y-69205911D01*
X148965188Y-69090811D01*
X148850089Y-69004647D01*
X148715375Y-68954402D01*
X148655824Y-68948000D01*
X147958000Y-68948000D01*
X147958000Y-71748000D01*
X147458000Y-71748000D01*
X147458000Y-70598000D01*
X146308000Y-70598000D01*
X144129400Y-70598000D01*
X144134134Y-70579305D01*
X144153300Y-70348000D01*
X144134134Y-70116695D01*
X144129400Y-70098000D01*
X146308000Y-70098000D01*
X147458000Y-70098000D01*
X147458000Y-68948000D01*
X146760176Y-68948000D01*
X146700624Y-68954402D01*
X146565910Y-69004647D01*
X146450811Y-69090811D01*
X146364647Y-69205910D01*
X146314402Y-69340624D01*
X146308000Y-69400176D01*
X146308000Y-70098000D01*
X144129400Y-70098000D01*
X144077157Y-69891700D01*
X143983924Y-69679151D01*
X143856979Y-69484847D01*
X143699784Y-69314087D01*
X143516626Y-69171530D01*
X143312503Y-69061064D01*
X143312499Y-69061062D01*
X143312498Y-69061062D01*
X143092984Y-68985702D01*
X142905410Y-68954402D01*
X142864049Y-68947500D01*
X142631951Y-68947500D01*
X142590590Y-68954402D01*
X142403015Y-68985702D01*
X142183501Y-69061062D01*
X142183497Y-69061063D01*
X142183497Y-69061064D01*
X142047415Y-69134707D01*
X141979372Y-69171531D01*
X141796214Y-69314088D01*
X141787485Y-69323571D01*
X141734861Y-69357424D01*
X141672407Y-69361271D01*
X141616026Y-69334133D01*
X141580075Y-69282919D01*
X141551352Y-69205911D01*
X141465188Y-69090811D01*
X141350089Y-69004647D01*
X141215375Y-68954402D01*
X141155824Y-68948000D01*
X140458000Y-68948000D01*
X140458000Y-71748000D01*
X139958000Y-71748000D01*
X139958000Y-70598000D01*
X138808000Y-70598000D01*
X122341920Y-70598000D01*
X122353108Y-70553821D01*
X122373643Y-70306000D01*
X122356408Y-70098000D01*
X138808000Y-70098000D01*
X139958000Y-70098000D01*
X139958000Y-68948000D01*
X139260176Y-68948000D01*
X139200624Y-68954402D01*
X139065910Y-69004647D01*
X138950811Y-69090811D01*
X138864647Y-69205910D01*
X138814402Y-69340624D01*
X138808000Y-69400176D01*
X138808000Y-70098000D01*
X122356408Y-70098000D01*
X122353108Y-70058179D01*
X122292063Y-69817119D01*
X122192173Y-69589393D01*
X122056164Y-69381215D01*
X121887744Y-69198262D01*
X121853399Y-69171530D01*
X121691514Y-69045529D01*
X121691510Y-69045526D01*
X121691509Y-69045526D01*
X121472810Y-68927172D01*
X121472806Y-68927170D01*
X121472805Y-68927170D01*
X121237615Y-68846429D01*
X120992335Y-68805500D01*
X120743665Y-68805500D01*
X120498384Y-68846429D01*
X120263194Y-68927170D01*
X120263190Y-68927171D01*
X120263190Y-68927172D01*
X120175710Y-68974513D01*
X120044485Y-69045529D01*
X119848259Y-69198259D01*
X119679837Y-69381214D01*
X119543825Y-69589395D01*
X119504455Y-69679151D01*
X119443937Y-69817119D01*
X119382892Y-70058179D01*
X119382891Y-70058183D01*
X119362356Y-70306000D01*
X117873643Y-70306000D01*
X117853108Y-70058179D01*
X117792063Y-69817119D01*
X117692173Y-69589393D01*
X117556164Y-69381215D01*
X117387744Y-69198262D01*
X117353399Y-69171530D01*
X117191514Y-69045529D01*
X117191510Y-69045526D01*
X117191509Y-69045526D01*
X116972810Y-68927172D01*
X116972806Y-68927170D01*
X116972805Y-68927170D01*
X116737615Y-68846429D01*
X116492335Y-68805500D01*
X116243665Y-68805500D01*
X115998384Y-68846429D01*
X115763194Y-68927170D01*
X115763190Y-68927171D01*
X115763190Y-68927172D01*
X115675710Y-68974513D01*
X115544485Y-69045529D01*
X115348259Y-69198259D01*
X115179837Y-69381214D01*
X115043825Y-69589395D01*
X115004455Y-69679151D01*
X114943937Y-69817119D01*
X114882892Y-70058179D01*
X114882891Y-70058183D01*
X114862356Y-70306000D01*
X113500500Y-70306000D01*
X113500500Y-67331869D01*
X128039500Y-67331869D01*
X128045909Y-67391483D01*
X128096204Y-67526331D01*
X128182454Y-67641546D01*
X128297669Y-67727796D01*
X128432517Y-67778091D01*
X128492127Y-67784500D01*
X130587872Y-67784499D01*
X130647483Y-67778091D01*
X130782331Y-67727796D01*
X130897546Y-67641546D01*
X130983796Y-67526331D01*
X131034091Y-67391483D01*
X131040500Y-67331873D01*
X131040499Y-65236128D01*
X131034091Y-65176517D01*
X130983796Y-65041669D01*
X130897546Y-64926454D01*
X130782331Y-64840204D01*
X130647483Y-64789909D01*
X130587873Y-64783500D01*
X130587869Y-64783500D01*
X128492130Y-64783500D01*
X128432515Y-64789909D01*
X128297669Y-64840204D01*
X128182454Y-64926454D01*
X128096204Y-65041668D01*
X128045909Y-65176516D01*
X128039500Y-65236130D01*
X128039500Y-67331869D01*
X113500500Y-67331869D01*
X113500500Y-63805999D01*
X114862356Y-63805999D01*
X114882891Y-64053816D01*
X114882891Y-64053819D01*
X114882892Y-64053821D01*
X114943937Y-64294881D01*
X114988960Y-64397523D01*
X115043825Y-64522604D01*
X115043827Y-64522607D01*
X115179836Y-64730785D01*
X115348256Y-64913738D01*
X115413667Y-64964649D01*
X115544485Y-65066470D01*
X115544487Y-65066471D01*
X115544491Y-65066474D01*
X115763190Y-65184828D01*
X115998386Y-65265571D01*
X116243665Y-65306500D01*
X116492335Y-65306500D01*
X116737614Y-65265571D01*
X116972810Y-65184828D01*
X117191509Y-65066474D01*
X117387744Y-64913738D01*
X117556164Y-64730785D01*
X117692173Y-64522607D01*
X117792063Y-64294881D01*
X117853108Y-64053821D01*
X117873643Y-63806000D01*
X117873643Y-63805999D01*
X119362356Y-63805999D01*
X119382891Y-64053816D01*
X119382891Y-64053819D01*
X119382892Y-64053821D01*
X119443937Y-64294881D01*
X119488960Y-64397523D01*
X119543825Y-64522604D01*
X119543827Y-64522607D01*
X119679836Y-64730785D01*
X119848256Y-64913738D01*
X119913667Y-64964649D01*
X120044485Y-65066470D01*
X120044487Y-65066471D01*
X120044491Y-65066474D01*
X120263190Y-65184828D01*
X120498386Y-65265571D01*
X120743665Y-65306500D01*
X120992335Y-65306500D01*
X121237614Y-65265571D01*
X121472810Y-65184828D01*
X121691509Y-65066474D01*
X121887744Y-64913738D01*
X122056164Y-64730785D01*
X122192173Y-64522607D01*
X122292063Y-64294881D01*
X122353108Y-64053821D01*
X122373643Y-63806000D01*
X122353108Y-63558179D01*
X122292063Y-63317119D01*
X122192173Y-63089393D01*
X122056164Y-62881215D01*
X121887744Y-62698262D01*
X121865612Y-62681036D01*
X121691514Y-62545529D01*
X121691510Y-62545526D01*
X121691509Y-62545526D01*
X121472810Y-62427172D01*
X121472806Y-62427170D01*
X121472805Y-62427170D01*
X121237615Y-62346429D01*
X120992335Y-62305500D01*
X120743665Y-62305500D01*
X120498384Y-62346429D01*
X120263194Y-62427170D01*
X120044485Y-62545529D01*
X119848259Y-62698259D01*
X119679837Y-62881214D01*
X119543825Y-63089395D01*
X119443938Y-63317117D01*
X119382891Y-63558183D01*
X119362356Y-63805999D01*
X117873643Y-63805999D01*
X117853108Y-63558179D01*
X117792063Y-63317119D01*
X117692173Y-63089393D01*
X117556164Y-62881215D01*
X117387744Y-62698262D01*
X117365612Y-62681036D01*
X117191514Y-62545529D01*
X117191510Y-62545526D01*
X117191509Y-62545526D01*
X116972810Y-62427172D01*
X116972806Y-62427170D01*
X116972805Y-62427170D01*
X116737615Y-62346429D01*
X116492335Y-62305500D01*
X116243665Y-62305500D01*
X115998384Y-62346429D01*
X115763194Y-62427170D01*
X115544485Y-62545529D01*
X115348259Y-62698259D01*
X115179837Y-62881214D01*
X115043825Y-63089395D01*
X114943938Y-63317117D01*
X114882891Y-63558183D01*
X114862356Y-63805999D01*
X113500500Y-63805999D01*
X113500500Y-56886000D01*
X139410531Y-56886000D01*
X139430364Y-57112689D01*
X139489261Y-57332497D01*
X139585432Y-57538735D01*
X139715953Y-57725140D01*
X139876859Y-57886046D01*
X140063264Y-58016567D01*
X140063265Y-58016567D01*
X140063266Y-58016568D01*
X140269504Y-58112739D01*
X140489308Y-58171635D01*
X140716000Y-58191468D01*
X140942692Y-58171635D01*
X141162496Y-58112739D01*
X141368734Y-58016568D01*
X141555139Y-57886047D01*
X141716047Y-57725139D01*
X141846568Y-57538734D01*
X141942739Y-57332496D01*
X142001635Y-57112692D01*
X142021468Y-56886000D01*
X149570531Y-56886000D01*
X149590364Y-57112689D01*
X149649261Y-57332497D01*
X149745432Y-57538735D01*
X149875953Y-57725140D01*
X150036859Y-57886046D01*
X150223264Y-58016567D01*
X150223265Y-58016567D01*
X150223266Y-58016568D01*
X150429504Y-58112739D01*
X150649308Y-58171635D01*
X150876000Y-58191468D01*
X151102692Y-58171635D01*
X151322496Y-58112739D01*
X151528734Y-58016568D01*
X151715139Y-57886047D01*
X151876047Y-57725139D01*
X152006568Y-57538734D01*
X152033618Y-57480724D01*
X152079375Y-57428549D01*
X152146000Y-57409129D01*
X152212625Y-57428549D01*
X152258382Y-57480725D01*
X152285431Y-57538733D01*
X152415953Y-57725140D01*
X152576859Y-57886046D01*
X152763264Y-58016567D01*
X152763265Y-58016567D01*
X152763266Y-58016568D01*
X152969504Y-58112739D01*
X153189308Y-58171635D01*
X153416000Y-58191468D01*
X153642692Y-58171635D01*
X153862496Y-58112739D01*
X154068734Y-58016568D01*
X154255139Y-57886047D01*
X154416047Y-57725139D01*
X154546568Y-57538734D01*
X154642739Y-57332496D01*
X154701635Y-57112692D01*
X154721468Y-56886000D01*
X162270531Y-56886000D01*
X162290364Y-57112689D01*
X162349261Y-57332497D01*
X162445432Y-57538735D01*
X162575953Y-57725140D01*
X162736859Y-57886046D01*
X162923264Y-58016567D01*
X162923265Y-58016567D01*
X162923266Y-58016568D01*
X163129504Y-58112739D01*
X163349308Y-58171635D01*
X163576000Y-58191468D01*
X163802692Y-58171635D01*
X164022496Y-58112739D01*
X164228734Y-58016568D01*
X164415139Y-57886047D01*
X164576047Y-57725139D01*
X164706568Y-57538734D01*
X164802739Y-57332496D01*
X164861635Y-57112692D01*
X164881468Y-56886000D01*
X164861635Y-56659308D01*
X164802739Y-56439504D01*
X164706568Y-56233266D01*
X164576047Y-56046861D01*
X164576046Y-56046859D01*
X164415140Y-55885953D01*
X164228735Y-55755432D01*
X164022497Y-55659261D01*
X163802689Y-55600364D01*
X163576000Y-55580531D01*
X163349310Y-55600364D01*
X163129502Y-55659261D01*
X162923264Y-55755432D01*
X162736859Y-55885953D01*
X162575953Y-56046859D01*
X162445432Y-56233264D01*
X162349261Y-56439502D01*
X162290364Y-56659310D01*
X162270531Y-56886000D01*
X154721468Y-56886000D01*
X154701635Y-56659308D01*
X154642739Y-56439504D01*
X154546568Y-56233266D01*
X154416047Y-56046861D01*
X154416046Y-56046859D01*
X154255140Y-55885953D01*
X154068735Y-55755432D01*
X153862497Y-55659261D01*
X153642689Y-55600364D01*
X153416000Y-55580531D01*
X153189310Y-55600364D01*
X152969502Y-55659261D01*
X152763264Y-55755432D01*
X152576859Y-55885953D01*
X152415953Y-56046859D01*
X152285433Y-56233263D01*
X152258382Y-56291275D01*
X152212625Y-56343450D01*
X152146000Y-56362869D01*
X152079375Y-56343450D01*
X152033618Y-56291275D01*
X152006568Y-56233266D01*
X151876047Y-56046861D01*
X151876046Y-56046859D01*
X151715140Y-55885953D01*
X151528735Y-55755432D01*
X151322497Y-55659261D01*
X151102689Y-55600364D01*
X150876000Y-55580531D01*
X150649310Y-55600364D01*
X150429502Y-55659261D01*
X150223264Y-55755432D01*
X150036859Y-55885953D01*
X149875953Y-56046859D01*
X149745432Y-56233264D01*
X149649261Y-56439502D01*
X149590364Y-56659310D01*
X149570531Y-56886000D01*
X142021468Y-56886000D01*
X142001635Y-56659308D01*
X141942739Y-56439504D01*
X141846568Y-56233266D01*
X141716047Y-56046861D01*
X141716046Y-56046859D01*
X141555140Y-55885953D01*
X141368735Y-55755432D01*
X141162497Y-55659261D01*
X140942689Y-55600364D01*
X140716000Y-55580531D01*
X140489310Y-55600364D01*
X140269502Y-55659261D01*
X140063264Y-55755432D01*
X139876859Y-55885953D01*
X139715953Y-56046859D01*
X139585432Y-56233264D01*
X139489261Y-56439502D01*
X139430364Y-56659310D01*
X139410531Y-56886000D01*
X113500500Y-56886000D01*
X113500500Y-53329999D01*
X126202531Y-53329999D01*
X126222364Y-53556689D01*
X126281261Y-53776497D01*
X126377432Y-53982735D01*
X126507953Y-54169140D01*
X126668859Y-54330046D01*
X126855264Y-54460567D01*
X126855265Y-54460567D01*
X126855266Y-54460568D01*
X127061504Y-54556739D01*
X127281308Y-54615635D01*
X127508000Y-54635468D01*
X127734692Y-54615635D01*
X127954496Y-54556739D01*
X128160734Y-54460568D01*
X128347139Y-54330047D01*
X128508047Y-54169139D01*
X128638568Y-53982734D01*
X128734739Y-53776496D01*
X128787390Y-53580000D01*
X136389128Y-53580000D01*
X136441733Y-53776326D01*
X136537865Y-53982480D01*
X136668341Y-54168819D01*
X136829180Y-54329658D01*
X137015519Y-54460134D01*
X137221673Y-54556266D01*
X137417999Y-54608871D01*
X137418000Y-54608872D01*
X137418000Y-53580000D01*
X137918000Y-53580000D01*
X137918000Y-54608871D01*
X138114326Y-54556266D01*
X138320480Y-54460134D01*
X138506819Y-54329658D01*
X138667658Y-54168819D01*
X138798134Y-53982480D01*
X138894266Y-53776326D01*
X138946872Y-53580000D01*
X137918000Y-53580000D01*
X137418000Y-53580000D01*
X136389128Y-53580000D01*
X128787390Y-53580000D01*
X128793635Y-53556692D01*
X128813468Y-53330000D01*
X128813468Y-53329999D01*
X139410531Y-53329999D01*
X139430364Y-53556689D01*
X139489261Y-53776497D01*
X139585432Y-53982735D01*
X139715953Y-54169140D01*
X139876859Y-54330046D01*
X140063264Y-54460567D01*
X140063265Y-54460567D01*
X140063266Y-54460568D01*
X140269504Y-54556739D01*
X140489308Y-54615635D01*
X140716000Y-54635468D01*
X140942692Y-54615635D01*
X141162496Y-54556739D01*
X141368734Y-54460568D01*
X141555139Y-54330047D01*
X141716047Y-54169139D01*
X141846568Y-53982734D01*
X141942739Y-53776496D01*
X142001635Y-53556692D01*
X142021468Y-53330000D01*
X142021468Y-53329999D01*
X149570531Y-53329999D01*
X149590364Y-53556689D01*
X149649261Y-53776497D01*
X149745432Y-53982735D01*
X149875953Y-54169140D01*
X150036859Y-54330046D01*
X150223264Y-54460567D01*
X150223265Y-54460567D01*
X150223266Y-54460568D01*
X150429504Y-54556739D01*
X150649308Y-54615635D01*
X150876000Y-54635468D01*
X151102692Y-54615635D01*
X151322496Y-54556739D01*
X151528734Y-54460568D01*
X151715139Y-54330047D01*
X151876047Y-54169139D01*
X152006568Y-53982734D01*
X152033618Y-53924724D01*
X152079375Y-53872549D01*
X152146000Y-53853129D01*
X152212625Y-53872549D01*
X152258382Y-53924725D01*
X152285431Y-53982733D01*
X152415953Y-54169140D01*
X152576859Y-54330046D01*
X152763264Y-54460567D01*
X152763265Y-54460567D01*
X152763266Y-54460568D01*
X152969504Y-54556739D01*
X153189308Y-54615635D01*
X153416000Y-54635468D01*
X153642692Y-54615635D01*
X153862496Y-54556739D01*
X154068734Y-54460568D01*
X154255139Y-54330047D01*
X154416047Y-54169139D01*
X154546568Y-53982734D01*
X154642739Y-53776496D01*
X154701635Y-53556692D01*
X154721468Y-53330000D01*
X154721468Y-53329999D01*
X162270531Y-53329999D01*
X162290364Y-53556689D01*
X162349261Y-53776497D01*
X162445432Y-53982735D01*
X162575953Y-54169140D01*
X162736859Y-54330046D01*
X162923264Y-54460567D01*
X162923265Y-54460567D01*
X162923266Y-54460568D01*
X163129504Y-54556739D01*
X163349308Y-54615635D01*
X163576000Y-54635468D01*
X163802692Y-54615635D01*
X164022496Y-54556739D01*
X164228734Y-54460568D01*
X164415139Y-54330047D01*
X164576047Y-54169139D01*
X164706568Y-53982734D01*
X164802739Y-53776496D01*
X164861635Y-53556692D01*
X164881468Y-53330000D01*
X164861635Y-53103308D01*
X164802739Y-52883504D01*
X164706568Y-52677266D01*
X164576270Y-52491180D01*
X164576046Y-52490859D01*
X164415140Y-52329953D01*
X164228735Y-52199432D01*
X164022497Y-52103261D01*
X163802689Y-52044364D01*
X163576000Y-52024531D01*
X163349310Y-52044364D01*
X163129502Y-52103261D01*
X162923264Y-52199432D01*
X162736859Y-52329953D01*
X162575953Y-52490859D01*
X162445432Y-52677264D01*
X162349261Y-52883502D01*
X162290364Y-53103310D01*
X162270531Y-53329999D01*
X154721468Y-53329999D01*
X154701635Y-53103308D01*
X154642739Y-52883504D01*
X154546568Y-52677266D01*
X154416270Y-52491180D01*
X154416046Y-52490859D01*
X154255140Y-52329953D01*
X154068735Y-52199432D01*
X153862497Y-52103261D01*
X153642689Y-52044364D01*
X153416000Y-52024531D01*
X153189310Y-52044364D01*
X152969502Y-52103261D01*
X152763264Y-52199432D01*
X152576859Y-52329953D01*
X152415953Y-52490859D01*
X152285433Y-52677263D01*
X152258382Y-52735275D01*
X152212625Y-52787450D01*
X152146000Y-52806869D01*
X152079375Y-52787450D01*
X152033618Y-52735275D01*
X152006568Y-52677266D01*
X152006566Y-52677263D01*
X151876046Y-52490859D01*
X151715140Y-52329953D01*
X151528735Y-52199432D01*
X151322497Y-52103261D01*
X151102689Y-52044364D01*
X150876000Y-52024531D01*
X150649310Y-52044364D01*
X150429502Y-52103261D01*
X150223264Y-52199432D01*
X150036859Y-52329953D01*
X149875953Y-52490859D01*
X149745432Y-52677264D01*
X149649261Y-52883502D01*
X149590364Y-53103310D01*
X149570531Y-53329999D01*
X142021468Y-53329999D01*
X142001635Y-53103308D01*
X141942739Y-52883504D01*
X141846568Y-52677266D01*
X141716270Y-52491180D01*
X141716046Y-52490859D01*
X141555140Y-52329953D01*
X141368735Y-52199432D01*
X141162497Y-52103261D01*
X140942689Y-52044364D01*
X140716000Y-52024531D01*
X140489310Y-52044364D01*
X140269502Y-52103261D01*
X140063264Y-52199432D01*
X139876859Y-52329953D01*
X139715953Y-52490859D01*
X139585432Y-52677264D01*
X139489261Y-52883502D01*
X139430364Y-53103310D01*
X139410531Y-53329999D01*
X128813468Y-53329999D01*
X128793635Y-53103308D01*
X128787390Y-53080000D01*
X136389128Y-53080000D01*
X137418000Y-53080000D01*
X137418000Y-52051128D01*
X137918000Y-52051128D01*
X137918000Y-53080000D01*
X138946872Y-53080000D01*
X138946871Y-53079999D01*
X138894266Y-52883673D01*
X138798134Y-52677519D01*
X138667658Y-52491180D01*
X138506819Y-52330341D01*
X138320480Y-52199865D01*
X138114326Y-52103733D01*
X137918000Y-52051128D01*
X137418000Y-52051128D01*
X137417999Y-52051128D01*
X137221673Y-52103733D01*
X137015519Y-52199865D01*
X136829180Y-52330341D01*
X136668341Y-52491180D01*
X136537865Y-52677519D01*
X136441733Y-52883673D01*
X136389128Y-53079999D01*
X136389128Y-53080000D01*
X128787390Y-53080000D01*
X128734739Y-52883504D01*
X128638568Y-52677266D01*
X128508270Y-52491180D01*
X128508046Y-52490859D01*
X128347140Y-52329953D01*
X128160735Y-52199432D01*
X127954497Y-52103261D01*
X127734689Y-52044364D01*
X127508000Y-52024531D01*
X127281310Y-52044364D01*
X127061502Y-52103261D01*
X126855264Y-52199432D01*
X126668859Y-52329953D01*
X126507953Y-52490859D01*
X126377432Y-52677264D01*
X126281261Y-52883502D01*
X126222364Y-53103310D01*
X126202531Y-53329999D01*
X113500500Y-53329999D01*
X113500500Y-50875869D01*
X124937500Y-50875869D01*
X124943909Y-50935483D01*
X124994204Y-51070331D01*
X125080454Y-51185546D01*
X125195669Y-51271796D01*
X125330517Y-51322091D01*
X125390127Y-51328500D01*
X127085872Y-51328499D01*
X127145483Y-51322091D01*
X127280331Y-51271796D01*
X127395546Y-51185546D01*
X127481796Y-51070331D01*
X127532091Y-50935483D01*
X127535862Y-50900405D01*
X127556239Y-50844486D01*
X127600328Y-50804501D01*
X127657969Y-50789667D01*
X127715882Y-50803400D01*
X127760725Y-50842537D01*
X127777951Y-50867138D01*
X127938859Y-51028046D01*
X128125264Y-51158567D01*
X128125265Y-51158567D01*
X128125266Y-51158568D01*
X128331504Y-51254739D01*
X128551308Y-51313635D01*
X128778000Y-51333468D01*
X129004692Y-51313635D01*
X129224496Y-51254739D01*
X129430734Y-51158568D01*
X129617139Y-51028047D01*
X129778047Y-50867139D01*
X129908568Y-50680734D01*
X129935618Y-50622724D01*
X129981375Y-50570549D01*
X130048000Y-50551129D01*
X130114625Y-50570549D01*
X130160382Y-50622725D01*
X130187431Y-50680733D01*
X130317953Y-50867140D01*
X130478859Y-51028046D01*
X130665264Y-51158567D01*
X130665265Y-51158567D01*
X130665266Y-51158568D01*
X130871504Y-51254739D01*
X131091308Y-51313635D01*
X131318000Y-51333468D01*
X131544692Y-51313635D01*
X131764496Y-51254739D01*
X131970734Y-51158568D01*
X132157139Y-51028047D01*
X132318047Y-50867139D01*
X132448568Y-50680734D01*
X132475893Y-50622134D01*
X132521649Y-50569959D01*
X132588274Y-50550539D01*
X132654899Y-50569958D01*
X132700657Y-50622133D01*
X132727866Y-50680482D01*
X132858341Y-50866819D01*
X133019180Y-51027658D01*
X133205519Y-51158134D01*
X133411673Y-51254266D01*
X133607999Y-51306871D01*
X133608000Y-51306872D01*
X133608000Y-51306871D01*
X134108000Y-51306871D01*
X134304326Y-51254266D01*
X134510480Y-51158134D01*
X134696819Y-51027658D01*
X134857658Y-50866819D01*
X134988135Y-50680479D01*
X135015342Y-50622135D01*
X135061098Y-50569959D01*
X135127723Y-50550539D01*
X135194348Y-50569958D01*
X135240105Y-50622132D01*
X135267432Y-50680733D01*
X135267433Y-50680736D01*
X135397953Y-50867140D01*
X135558859Y-51028046D01*
X135745264Y-51158567D01*
X135745265Y-51158567D01*
X135745266Y-51158568D01*
X135951504Y-51254739D01*
X136171308Y-51313635D01*
X136398000Y-51333468D01*
X136624692Y-51313635D01*
X136844496Y-51254739D01*
X137050734Y-51158568D01*
X137237139Y-51028047D01*
X137398047Y-50867139D01*
X137528568Y-50680734D01*
X137555618Y-50622724D01*
X137601375Y-50570549D01*
X137668000Y-50551129D01*
X137734625Y-50570549D01*
X137780382Y-50622725D01*
X137807431Y-50680733D01*
X137937953Y-50867140D01*
X138098859Y-51028046D01*
X138285264Y-51158567D01*
X138285265Y-51158567D01*
X138285266Y-51158568D01*
X138491504Y-51254739D01*
X138711308Y-51313635D01*
X138938000Y-51333468D01*
X139164692Y-51313635D01*
X139384496Y-51254739D01*
X139590734Y-51158568D01*
X139777139Y-51028047D01*
X139938047Y-50867139D01*
X140068568Y-50680734D01*
X140095618Y-50622724D01*
X140141375Y-50570549D01*
X140208000Y-50551129D01*
X140274625Y-50570549D01*
X140320382Y-50622725D01*
X140347431Y-50680733D01*
X140477953Y-50867140D01*
X140638859Y-51028046D01*
X140825264Y-51158567D01*
X140825265Y-51158567D01*
X140825266Y-51158568D01*
X141031504Y-51254739D01*
X141251308Y-51313635D01*
X141478000Y-51333468D01*
X141704692Y-51313635D01*
X141924496Y-51254739D01*
X142130734Y-51158568D01*
X142317139Y-51028047D01*
X142478047Y-50867139D01*
X142608568Y-50680734D01*
X142635618Y-50622724D01*
X142681375Y-50570549D01*
X142748000Y-50551129D01*
X142814625Y-50570549D01*
X142860382Y-50622725D01*
X142887431Y-50680733D01*
X143017953Y-50867140D01*
X143178859Y-51028046D01*
X143365264Y-51158567D01*
X143365265Y-51158567D01*
X143365266Y-51158568D01*
X143571504Y-51254739D01*
X143791308Y-51313635D01*
X144018000Y-51333468D01*
X144244692Y-51313635D01*
X144464496Y-51254739D01*
X144670734Y-51158568D01*
X144857139Y-51028047D01*
X145018047Y-50867139D01*
X145148568Y-50680734D01*
X145175618Y-50622724D01*
X145221375Y-50570549D01*
X145288000Y-50551129D01*
X145354625Y-50570549D01*
X145400382Y-50622725D01*
X145427431Y-50680733D01*
X145557953Y-50867140D01*
X145718859Y-51028046D01*
X145905264Y-51158567D01*
X145905265Y-51158567D01*
X145905266Y-51158568D01*
X146111504Y-51254739D01*
X146331308Y-51313635D01*
X146558000Y-51333468D01*
X146784692Y-51313635D01*
X147004496Y-51254739D01*
X147210734Y-51158568D01*
X147397139Y-51028047D01*
X147558047Y-50867139D01*
X147688568Y-50680734D01*
X147715618Y-50622724D01*
X147761375Y-50570549D01*
X147828000Y-50551129D01*
X147894625Y-50570549D01*
X147940382Y-50622725D01*
X147967431Y-50680733D01*
X148097953Y-50867140D01*
X148258859Y-51028046D01*
X148445264Y-51158567D01*
X148445265Y-51158567D01*
X148445266Y-51158568D01*
X148651504Y-51254739D01*
X148871308Y-51313635D01*
X149098000Y-51333468D01*
X149324692Y-51313635D01*
X149544496Y-51254739D01*
X149750734Y-51158568D01*
X149937139Y-51028047D01*
X150098047Y-50867139D01*
X150228568Y-50680734D01*
X150255618Y-50622724D01*
X150301375Y-50570549D01*
X150368000Y-50551129D01*
X150434625Y-50570549D01*
X150480382Y-50622725D01*
X150507431Y-50680733D01*
X150637953Y-50867140D01*
X150798859Y-51028046D01*
X150985264Y-51158567D01*
X150985265Y-51158567D01*
X150985266Y-51158568D01*
X151191504Y-51254739D01*
X151411308Y-51313635D01*
X151638000Y-51333468D01*
X151864692Y-51313635D01*
X152084496Y-51254739D01*
X152290734Y-51158568D01*
X152477139Y-51028047D01*
X152638047Y-50867139D01*
X152768568Y-50680734D01*
X152795618Y-50622724D01*
X152841375Y-50570549D01*
X152908000Y-50551129D01*
X152974625Y-50570549D01*
X153020382Y-50622725D01*
X153047431Y-50680733D01*
X153177953Y-50867140D01*
X153338859Y-51028046D01*
X153525264Y-51158567D01*
X153525265Y-51158567D01*
X153525266Y-51158568D01*
X153731504Y-51254739D01*
X153951308Y-51313635D01*
X154178000Y-51333468D01*
X154404692Y-51313635D01*
X154624496Y-51254739D01*
X154830734Y-51158568D01*
X155017139Y-51028047D01*
X155178047Y-50867139D01*
X155308568Y-50680734D01*
X155335618Y-50622724D01*
X155381375Y-50570549D01*
X155448000Y-50551129D01*
X155514625Y-50570549D01*
X155560382Y-50622725D01*
X155587431Y-50680733D01*
X155717953Y-50867140D01*
X155878859Y-51028046D01*
X156065264Y-51158567D01*
X156065265Y-51158567D01*
X156065266Y-51158568D01*
X156271504Y-51254739D01*
X156491308Y-51313635D01*
X156718000Y-51333468D01*
X156944692Y-51313635D01*
X157164496Y-51254739D01*
X157370734Y-51158568D01*
X157557139Y-51028047D01*
X157718047Y-50867139D01*
X157848568Y-50680734D01*
X157875618Y-50622724D01*
X157921375Y-50570549D01*
X157988000Y-50551129D01*
X158054625Y-50570549D01*
X158100382Y-50622725D01*
X158127431Y-50680733D01*
X158257953Y-50867140D01*
X158418859Y-51028046D01*
X158605264Y-51158567D01*
X158605265Y-51158567D01*
X158605266Y-51158568D01*
X158811504Y-51254739D01*
X159031308Y-51313635D01*
X159258000Y-51333468D01*
X159484692Y-51313635D01*
X159704496Y-51254739D01*
X159910734Y-51158568D01*
X160097139Y-51028047D01*
X160258047Y-50867139D01*
X160388568Y-50680734D01*
X160415618Y-50622724D01*
X160461375Y-50570549D01*
X160528000Y-50551129D01*
X160594625Y-50570549D01*
X160640382Y-50622725D01*
X160667431Y-50680733D01*
X160797953Y-50867140D01*
X160958859Y-51028046D01*
X161145264Y-51158567D01*
X161145265Y-51158567D01*
X161145266Y-51158568D01*
X161351504Y-51254739D01*
X161571308Y-51313635D01*
X161798000Y-51333468D01*
X162024692Y-51313635D01*
X162244496Y-51254739D01*
X162450734Y-51158568D01*
X162637139Y-51028047D01*
X162798047Y-50867139D01*
X162928568Y-50680734D01*
X163024739Y-50474496D01*
X163083635Y-50254692D01*
X163103468Y-50028000D01*
X163083635Y-49801308D01*
X163024739Y-49581504D01*
X162928568Y-49375266D01*
X162842677Y-49252600D01*
X162798046Y-49188859D01*
X162637140Y-49027953D01*
X162450735Y-48897432D01*
X162244497Y-48801261D01*
X162024689Y-48742364D01*
X161798000Y-48722531D01*
X161571310Y-48742364D01*
X161351502Y-48801261D01*
X161145264Y-48897432D01*
X160958859Y-49027953D01*
X160797953Y-49188859D01*
X160667433Y-49375263D01*
X160640382Y-49433275D01*
X160594625Y-49485450D01*
X160528000Y-49504869D01*
X160461375Y-49485450D01*
X160415618Y-49433275D01*
X160388687Y-49375522D01*
X160388568Y-49375266D01*
X160302677Y-49252600D01*
X160258046Y-49188859D01*
X160097140Y-49027953D01*
X159910735Y-48897432D01*
X159704497Y-48801261D01*
X159484689Y-48742364D01*
X159258000Y-48722531D01*
X159031310Y-48742364D01*
X158811502Y-48801261D01*
X158605264Y-48897432D01*
X158418859Y-49027953D01*
X158257953Y-49188859D01*
X158127433Y-49375263D01*
X158100382Y-49433275D01*
X158054625Y-49485450D01*
X157988000Y-49504869D01*
X157921375Y-49485450D01*
X157875618Y-49433275D01*
X157848687Y-49375522D01*
X157848568Y-49375266D01*
X157762677Y-49252600D01*
X157718046Y-49188859D01*
X157557140Y-49027953D01*
X157370735Y-48897432D01*
X157164497Y-48801261D01*
X156944689Y-48742364D01*
X156718000Y-48722531D01*
X156491310Y-48742364D01*
X156271502Y-48801261D01*
X156065264Y-48897432D01*
X155878859Y-49027953D01*
X155717953Y-49188859D01*
X155587433Y-49375263D01*
X155560382Y-49433275D01*
X155514625Y-49485450D01*
X155448000Y-49504869D01*
X155381375Y-49485450D01*
X155335618Y-49433275D01*
X155308687Y-49375522D01*
X155308568Y-49375266D01*
X155222677Y-49252600D01*
X155178046Y-49188859D01*
X155017140Y-49027953D01*
X154830735Y-48897432D01*
X154624497Y-48801261D01*
X154404689Y-48742364D01*
X154178000Y-48722531D01*
X153951310Y-48742364D01*
X153731502Y-48801261D01*
X153525264Y-48897432D01*
X153338859Y-49027953D01*
X153177953Y-49188859D01*
X153047433Y-49375263D01*
X153020382Y-49433275D01*
X152974625Y-49485450D01*
X152908000Y-49504869D01*
X152841375Y-49485450D01*
X152795618Y-49433275D01*
X152768687Y-49375522D01*
X152768568Y-49375266D01*
X152682677Y-49252600D01*
X152638046Y-49188859D01*
X152477140Y-49027953D01*
X152290735Y-48897432D01*
X152084497Y-48801261D01*
X151864689Y-48742364D01*
X151638000Y-48722531D01*
X151411310Y-48742364D01*
X151191502Y-48801261D01*
X150985264Y-48897432D01*
X150798859Y-49027953D01*
X150637953Y-49188859D01*
X150507433Y-49375263D01*
X150480382Y-49433275D01*
X150434625Y-49485450D01*
X150368000Y-49504869D01*
X150301375Y-49485450D01*
X150255618Y-49433275D01*
X150228687Y-49375522D01*
X150228568Y-49375266D01*
X150142677Y-49252600D01*
X150098046Y-49188859D01*
X149937140Y-49027953D01*
X149750735Y-48897432D01*
X149544497Y-48801261D01*
X149324689Y-48742364D01*
X149098000Y-48722531D01*
X148871310Y-48742364D01*
X148651502Y-48801261D01*
X148445264Y-48897432D01*
X148258859Y-49027953D01*
X148097953Y-49188859D01*
X147967433Y-49375263D01*
X147940382Y-49433275D01*
X147894625Y-49485450D01*
X147828000Y-49504869D01*
X147761375Y-49485450D01*
X147715618Y-49433275D01*
X147688687Y-49375522D01*
X147688568Y-49375266D01*
X147602677Y-49252600D01*
X147558046Y-49188859D01*
X147397140Y-49027953D01*
X147210735Y-48897432D01*
X147004497Y-48801261D01*
X146784689Y-48742364D01*
X146558000Y-48722531D01*
X146331310Y-48742364D01*
X146111502Y-48801261D01*
X145905264Y-48897432D01*
X145718859Y-49027953D01*
X145557953Y-49188859D01*
X145427433Y-49375263D01*
X145400382Y-49433275D01*
X145354625Y-49485450D01*
X145288000Y-49504869D01*
X145221375Y-49485450D01*
X145175618Y-49433275D01*
X145148687Y-49375522D01*
X145148568Y-49375266D01*
X145062677Y-49252600D01*
X145018046Y-49188859D01*
X144857140Y-49027953D01*
X144670735Y-48897432D01*
X144464497Y-48801261D01*
X144244689Y-48742364D01*
X144018000Y-48722531D01*
X143791310Y-48742364D01*
X143571502Y-48801261D01*
X143365264Y-48897432D01*
X143178859Y-49027953D01*
X143017953Y-49188859D01*
X142887433Y-49375263D01*
X142860382Y-49433275D01*
X142814625Y-49485450D01*
X142748000Y-49504869D01*
X142681375Y-49485450D01*
X142635618Y-49433275D01*
X142608687Y-49375522D01*
X142608568Y-49375266D01*
X142522677Y-49252600D01*
X142478046Y-49188859D01*
X142317140Y-49027953D01*
X142130735Y-48897432D01*
X141924497Y-48801261D01*
X141704689Y-48742364D01*
X141478000Y-48722531D01*
X141251310Y-48742364D01*
X141031502Y-48801261D01*
X140825264Y-48897432D01*
X140638859Y-49027953D01*
X140477953Y-49188859D01*
X140347433Y-49375263D01*
X140320382Y-49433275D01*
X140274625Y-49485450D01*
X140208000Y-49504869D01*
X140141375Y-49485450D01*
X140095618Y-49433275D01*
X140068687Y-49375522D01*
X140068568Y-49375266D01*
X139982677Y-49252600D01*
X139938046Y-49188859D01*
X139777140Y-49027953D01*
X139590735Y-48897432D01*
X139384497Y-48801261D01*
X139164689Y-48742364D01*
X138938000Y-48722531D01*
X138711310Y-48742364D01*
X138491502Y-48801261D01*
X138285264Y-48897432D01*
X138098859Y-49027953D01*
X137937953Y-49188859D01*
X137807433Y-49375263D01*
X137780382Y-49433275D01*
X137734625Y-49485450D01*
X137668000Y-49504869D01*
X137601375Y-49485450D01*
X137555618Y-49433275D01*
X137528687Y-49375522D01*
X137528568Y-49375266D01*
X137442677Y-49252600D01*
X137398046Y-49188859D01*
X137237140Y-49027953D01*
X137050735Y-48897432D01*
X136844497Y-48801261D01*
X136624689Y-48742364D01*
X136398000Y-48722531D01*
X136171310Y-48742364D01*
X135951502Y-48801261D01*
X135745264Y-48897432D01*
X135558859Y-49027953D01*
X135397953Y-49188859D01*
X135267430Y-49375267D01*
X135240105Y-49433866D01*
X135194348Y-49486041D01*
X135127723Y-49505460D01*
X135061099Y-49486040D01*
X135015342Y-49433865D01*
X134988134Y-49375519D01*
X134857658Y-49189180D01*
X134696819Y-49028341D01*
X134510480Y-48897865D01*
X134304326Y-48801733D01*
X134108000Y-48749128D01*
X134108000Y-51306871D01*
X133608000Y-51306871D01*
X133608000Y-48749128D01*
X133607999Y-48749128D01*
X133411673Y-48801733D01*
X133205519Y-48897865D01*
X133019180Y-49028341D01*
X132858341Y-49189180D01*
X132727863Y-49375522D01*
X132700656Y-49433866D01*
X132654899Y-49486041D01*
X132588274Y-49505460D01*
X132521650Y-49486040D01*
X132475893Y-49433865D01*
X132448567Y-49375264D01*
X132318046Y-49188859D01*
X132157140Y-49027953D01*
X131970735Y-48897432D01*
X131764497Y-48801261D01*
X131544689Y-48742364D01*
X131318000Y-48722531D01*
X131091310Y-48742364D01*
X130871502Y-48801261D01*
X130665264Y-48897432D01*
X130478859Y-49027953D01*
X130317953Y-49188859D01*
X130187433Y-49375263D01*
X130160382Y-49433275D01*
X130114625Y-49485450D01*
X130048000Y-49504869D01*
X129981375Y-49485450D01*
X129935618Y-49433275D01*
X129908687Y-49375522D01*
X129908568Y-49375266D01*
X129822677Y-49252600D01*
X129778046Y-49188859D01*
X129617140Y-49027953D01*
X129430735Y-48897432D01*
X129224497Y-48801261D01*
X129004689Y-48742364D01*
X128778000Y-48722531D01*
X128551310Y-48742364D01*
X128331502Y-48801261D01*
X128125264Y-48897432D01*
X127938859Y-49027953D01*
X127777951Y-49188861D01*
X127760725Y-49213463D01*
X127715882Y-49252600D01*
X127657969Y-49266333D01*
X127600328Y-49251499D01*
X127556239Y-49211514D01*
X127535861Y-49155592D01*
X127532091Y-49120517D01*
X127481796Y-48985669D01*
X127395546Y-48870454D01*
X127280331Y-48784204D01*
X127145483Y-48733909D01*
X127085873Y-48727500D01*
X127085869Y-48727500D01*
X125390130Y-48727500D01*
X125330515Y-48733909D01*
X125195669Y-48784204D01*
X125080454Y-48870454D01*
X124994204Y-48985668D01*
X124943909Y-49120516D01*
X124937500Y-49180130D01*
X124937500Y-50875869D01*
X113500500Y-50875869D01*
X113500500Y-45212000D01*
X115039179Y-45212000D01*
X115058820Y-45436493D01*
X115117148Y-45654173D01*
X115212382Y-45858406D01*
X115212385Y-45858410D01*
X115341642Y-46043009D01*
X115500991Y-46202358D01*
X115685590Y-46331615D01*
X115685593Y-46331617D01*
X115852418Y-46409407D01*
X115889830Y-46426853D01*
X116107504Y-46485179D01*
X116332000Y-46504820D01*
X116556496Y-46485179D01*
X116774170Y-46426853D01*
X116978410Y-46331615D01*
X117163009Y-46202358D01*
X117322358Y-46043009D01*
X117451615Y-45858410D01*
X117546853Y-45654170D01*
X117605179Y-45436496D01*
X117624820Y-45212000D01*
X118836531Y-45212000D01*
X118856364Y-45438689D01*
X118915261Y-45658497D01*
X119011432Y-45864735D01*
X119141953Y-46051140D01*
X119302859Y-46212046D01*
X119489264Y-46342567D01*
X119489265Y-46342567D01*
X119489266Y-46342568D01*
X119695504Y-46438739D01*
X119915308Y-46497635D01*
X120142000Y-46517468D01*
X120368692Y-46497635D01*
X120588496Y-46438739D01*
X120794734Y-46342568D01*
X120981139Y-46212047D01*
X121142047Y-46051139D01*
X121272568Y-45864734D01*
X121368739Y-45658496D01*
X121427635Y-45438692D01*
X121447468Y-45212000D01*
X121427635Y-44985308D01*
X121368739Y-44765504D01*
X121272568Y-44559266D01*
X121142047Y-44372861D01*
X121142046Y-44372859D01*
X120981140Y-44211953D01*
X120794735Y-44081432D01*
X120588497Y-43985261D01*
X120368689Y-43926364D01*
X120142000Y-43906531D01*
X119915310Y-43926364D01*
X119695502Y-43985261D01*
X119489264Y-44081432D01*
X119302859Y-44211953D01*
X119141953Y-44372859D01*
X119011432Y-44559264D01*
X118915261Y-44765502D01*
X118856364Y-44985310D01*
X118836531Y-45212000D01*
X117624820Y-45212000D01*
X117605179Y-44987504D01*
X117546853Y-44769830D01*
X117529407Y-44732418D01*
X117451617Y-44565593D01*
X117447187Y-44559266D01*
X117322358Y-44380991D01*
X117163009Y-44221642D01*
X116978410Y-44092385D01*
X116896319Y-44054106D01*
X116844145Y-44008350D01*
X116824725Y-43941724D01*
X116844144Y-43875099D01*
X116896321Y-43829342D01*
X116978156Y-43791181D01*
X117048424Y-43741977D01*
X116332000Y-43025553D01*
X115615573Y-43741977D01*
X115685844Y-43791182D01*
X115767678Y-43829341D01*
X115819854Y-43875097D01*
X115839274Y-43941722D01*
X115819855Y-44008348D01*
X115767679Y-44054105D01*
X115685592Y-44092383D01*
X115547020Y-44189412D01*
X115514829Y-44211953D01*
X115500987Y-44221645D01*
X115341645Y-44380987D01*
X115212382Y-44565593D01*
X115117148Y-44769826D01*
X115058820Y-44987506D01*
X115039179Y-45212000D01*
X113500500Y-45212000D01*
X113500500Y-42671999D01*
X115039681Y-42671999D01*
X115059314Y-42896406D01*
X115117618Y-43114000D01*
X115212819Y-43318156D01*
X115262022Y-43388424D01*
X115978447Y-42672001D01*
X115978447Y-42672000D01*
X116685553Y-42672000D01*
X117401977Y-43388424D01*
X117451180Y-43318158D01*
X117546381Y-43114000D01*
X117604685Y-42896406D01*
X117624318Y-42671999D01*
X117604685Y-42447593D01*
X117546381Y-42229999D01*
X117451180Y-42025843D01*
X117401977Y-41955573D01*
X116685553Y-42672000D01*
X115978447Y-42672000D01*
X115262021Y-41955573D01*
X115262020Y-41955574D01*
X115212820Y-42025840D01*
X115117618Y-42229999D01*
X115059314Y-42447593D01*
X115039681Y-42671999D01*
X113500500Y-42671999D01*
X113500500Y-41602021D01*
X115615573Y-41602021D01*
X116332000Y-42318447D01*
X116332001Y-42318447D01*
X117048425Y-41602021D01*
X116978156Y-41552819D01*
X116774000Y-41457618D01*
X116556406Y-41399314D01*
X116331999Y-41379681D01*
X116107593Y-41399314D01*
X115889999Y-41457618D01*
X115685840Y-41552820D01*
X115615574Y-41602020D01*
X115615573Y-41602021D01*
X113500500Y-41602021D01*
X113500500Y-38439869D01*
X118841500Y-38439869D01*
X118847909Y-38499483D01*
X118898204Y-38634331D01*
X118984454Y-38749546D01*
X119099669Y-38835796D01*
X119234517Y-38886091D01*
X119294127Y-38892500D01*
X120989872Y-38892499D01*
X121049483Y-38886091D01*
X121184331Y-38835796D01*
X121299546Y-38749546D01*
X121385796Y-38634331D01*
X121436091Y-38499483D01*
X121442500Y-38439873D01*
X121442499Y-36744128D01*
X121436091Y-36684517D01*
X121385796Y-36549669D01*
X121299546Y-36434454D01*
X121184331Y-36348204D01*
X121049483Y-36297909D01*
X120989873Y-36291500D01*
X120989869Y-36291500D01*
X119294130Y-36291500D01*
X119234515Y-36297909D01*
X119099669Y-36348204D01*
X118984454Y-36434454D01*
X118898204Y-36549668D01*
X118847909Y-36684516D01*
X118841500Y-36744130D01*
X118841500Y-38439869D01*
X113500500Y-38439869D01*
X113500500Y-33499999D01*
X114744591Y-33499999D01*
X114764197Y-33761627D01*
X114822580Y-34017418D01*
X114917426Y-34259080D01*
X114918432Y-34261643D01*
X115049614Y-34488857D01*
X115213195Y-34693981D01*
X115213197Y-34693983D01*
X115213198Y-34693984D01*
X115405514Y-34872428D01*
X115405520Y-34872432D01*
X115405521Y-34872433D01*
X115622296Y-35020228D01*
X115858677Y-35134063D01*
X116109385Y-35211396D01*
X116368818Y-35250500D01*
X116631182Y-35250500D01*
X116890615Y-35211396D01*
X117141323Y-35134063D01*
X117377704Y-35020228D01*
X117594479Y-34872433D01*
X117594482Y-34872429D01*
X117594485Y-34872428D01*
X117685476Y-34788000D01*
X124932531Y-34788000D01*
X124952364Y-35014689D01*
X125011261Y-35234497D01*
X125107432Y-35440735D01*
X125237953Y-35627140D01*
X125398859Y-35788046D01*
X125585264Y-35918567D01*
X125585265Y-35918567D01*
X125585266Y-35918568D01*
X125791504Y-36014739D01*
X126011308Y-36073635D01*
X126238000Y-36093468D01*
X126464692Y-36073635D01*
X126684496Y-36014739D01*
X126890734Y-35918568D01*
X127077139Y-35788047D01*
X127238047Y-35627139D01*
X127368568Y-35440734D01*
X127395893Y-35382134D01*
X127441649Y-35329959D01*
X127508274Y-35310539D01*
X127574899Y-35329958D01*
X127620657Y-35382133D01*
X127647866Y-35440482D01*
X127778341Y-35626819D01*
X127939180Y-35787658D01*
X128125519Y-35918134D01*
X128331673Y-36014266D01*
X128527999Y-36066871D01*
X128528000Y-36066872D01*
X128528000Y-36066871D01*
X129028000Y-36066871D01*
X129224326Y-36014266D01*
X129430480Y-35918134D01*
X129616819Y-35787658D01*
X129777658Y-35626819D01*
X129908135Y-35440479D01*
X129935342Y-35382135D01*
X129981098Y-35329959D01*
X130047723Y-35310539D01*
X130114348Y-35329958D01*
X130160105Y-35382132D01*
X130187431Y-35440732D01*
X130187433Y-35440736D01*
X130317953Y-35627140D01*
X130478859Y-35788046D01*
X130665264Y-35918567D01*
X130665265Y-35918567D01*
X130665266Y-35918568D01*
X130871504Y-36014739D01*
X131091308Y-36073635D01*
X131318000Y-36093468D01*
X131544692Y-36073635D01*
X131764496Y-36014739D01*
X131970734Y-35918568D01*
X132157139Y-35788047D01*
X132318047Y-35627139D01*
X132448568Y-35440734D01*
X132475619Y-35382721D01*
X132521373Y-35330550D01*
X132587997Y-35311130D01*
X132654623Y-35330549D01*
X132700380Y-35382724D01*
X132727430Y-35440732D01*
X132857953Y-35627140D01*
X133018859Y-35788046D01*
X133205264Y-35918567D01*
X133205265Y-35918567D01*
X133205266Y-35918568D01*
X133411504Y-36014739D01*
X133631308Y-36073635D01*
X133858000Y-36093468D01*
X134084692Y-36073635D01*
X134304496Y-36014739D01*
X134510734Y-35918568D01*
X134697139Y-35788047D01*
X134858047Y-35627139D01*
X134988568Y-35440734D01*
X135015618Y-35382724D01*
X135061375Y-35330549D01*
X135128000Y-35311129D01*
X135194625Y-35330549D01*
X135240382Y-35382725D01*
X135267431Y-35440733D01*
X135397953Y-35627140D01*
X135558859Y-35788046D01*
X135745264Y-35918567D01*
X135745265Y-35918567D01*
X135745266Y-35918568D01*
X135951504Y-36014739D01*
X136171308Y-36073635D01*
X136398000Y-36093468D01*
X136624692Y-36073635D01*
X136844496Y-36014739D01*
X137050734Y-35918568D01*
X137237139Y-35788047D01*
X137398047Y-35627139D01*
X137528568Y-35440734D01*
X137555618Y-35382724D01*
X137601375Y-35330549D01*
X137668000Y-35311129D01*
X137734625Y-35330549D01*
X137780382Y-35382725D01*
X137807431Y-35440733D01*
X137937953Y-35627140D01*
X138098859Y-35788046D01*
X138285264Y-35918567D01*
X138285265Y-35918567D01*
X138285266Y-35918568D01*
X138491504Y-36014739D01*
X138711308Y-36073635D01*
X138938000Y-36093468D01*
X139164692Y-36073635D01*
X139384496Y-36014739D01*
X139590734Y-35918568D01*
X139777139Y-35788047D01*
X139938047Y-35627139D01*
X140068568Y-35440734D01*
X140095618Y-35382724D01*
X140141375Y-35330549D01*
X140208000Y-35311129D01*
X140274625Y-35330549D01*
X140320382Y-35382725D01*
X140347431Y-35440733D01*
X140477953Y-35627140D01*
X140638859Y-35788046D01*
X140825264Y-35918567D01*
X140825265Y-35918567D01*
X140825266Y-35918568D01*
X141031504Y-36014739D01*
X141251308Y-36073635D01*
X141478000Y-36093468D01*
X141704692Y-36073635D01*
X141924496Y-36014739D01*
X142130734Y-35918568D01*
X142317139Y-35788047D01*
X142478047Y-35627139D01*
X142608568Y-35440734D01*
X142635618Y-35382724D01*
X142681375Y-35330549D01*
X142748000Y-35311129D01*
X142814625Y-35330549D01*
X142860382Y-35382725D01*
X142887431Y-35440733D01*
X143017953Y-35627140D01*
X143178859Y-35788046D01*
X143365264Y-35918567D01*
X143365265Y-35918567D01*
X143365266Y-35918568D01*
X143571504Y-36014739D01*
X143791308Y-36073635D01*
X144018000Y-36093468D01*
X144244692Y-36073635D01*
X144464496Y-36014739D01*
X144670734Y-35918568D01*
X144857139Y-35788047D01*
X145018047Y-35627139D01*
X145148568Y-35440734D01*
X145175618Y-35382724D01*
X145221375Y-35330549D01*
X145288000Y-35311129D01*
X145354625Y-35330549D01*
X145400382Y-35382725D01*
X145427431Y-35440733D01*
X145557953Y-35627140D01*
X145718859Y-35788046D01*
X145905264Y-35918567D01*
X145905265Y-35918567D01*
X145905266Y-35918568D01*
X146111504Y-36014739D01*
X146331308Y-36073635D01*
X146558000Y-36093468D01*
X146784692Y-36073635D01*
X147004496Y-36014739D01*
X147210734Y-35918568D01*
X147397139Y-35788047D01*
X147558047Y-35627139D01*
X147688568Y-35440734D01*
X147715618Y-35382724D01*
X147761375Y-35330549D01*
X147828000Y-35311129D01*
X147894625Y-35330549D01*
X147940382Y-35382725D01*
X147967431Y-35440733D01*
X148097953Y-35627140D01*
X148258859Y-35788046D01*
X148445264Y-35918567D01*
X148445265Y-35918567D01*
X148445266Y-35918568D01*
X148651504Y-36014739D01*
X148871308Y-36073635D01*
X149098000Y-36093468D01*
X149324692Y-36073635D01*
X149544496Y-36014739D01*
X149750734Y-35918568D01*
X149937139Y-35788047D01*
X150098047Y-35627139D01*
X150228568Y-35440734D01*
X150255618Y-35382724D01*
X150301375Y-35330549D01*
X150368000Y-35311129D01*
X150434625Y-35330549D01*
X150480382Y-35382725D01*
X150507431Y-35440733D01*
X150637953Y-35627140D01*
X150798859Y-35788046D01*
X150985264Y-35918567D01*
X150985265Y-35918567D01*
X150985266Y-35918568D01*
X151191504Y-36014739D01*
X151411308Y-36073635D01*
X151638000Y-36093468D01*
X151864692Y-36073635D01*
X152084496Y-36014739D01*
X152290734Y-35918568D01*
X152477139Y-35788047D01*
X152638047Y-35627139D01*
X152768568Y-35440734D01*
X152795618Y-35382724D01*
X152841375Y-35330549D01*
X152908000Y-35311129D01*
X152974625Y-35330549D01*
X153020382Y-35382725D01*
X153047431Y-35440733D01*
X153177953Y-35627140D01*
X153338859Y-35788046D01*
X153525264Y-35918567D01*
X153525265Y-35918567D01*
X153525266Y-35918568D01*
X153731504Y-36014739D01*
X153951308Y-36073635D01*
X154178000Y-36093468D01*
X154404692Y-36073635D01*
X154624496Y-36014739D01*
X154830734Y-35918568D01*
X155017139Y-35788047D01*
X155178047Y-35627139D01*
X155308568Y-35440734D01*
X155335618Y-35382724D01*
X155381375Y-35330549D01*
X155448000Y-35311129D01*
X155514625Y-35330549D01*
X155560382Y-35382725D01*
X155587431Y-35440733D01*
X155717953Y-35627140D01*
X155878859Y-35788046D01*
X156065264Y-35918567D01*
X156065265Y-35918567D01*
X156065266Y-35918568D01*
X156271504Y-36014739D01*
X156491308Y-36073635D01*
X156718000Y-36093468D01*
X156944692Y-36073635D01*
X157164496Y-36014739D01*
X157370734Y-35918568D01*
X157557139Y-35788047D01*
X157718047Y-35627139D01*
X157848568Y-35440734D01*
X157875618Y-35382724D01*
X157921375Y-35330549D01*
X157988000Y-35311129D01*
X158054625Y-35330549D01*
X158100382Y-35382725D01*
X158127431Y-35440733D01*
X158257953Y-35627140D01*
X158418859Y-35788046D01*
X158605264Y-35918567D01*
X158605265Y-35918567D01*
X158605266Y-35918568D01*
X158811504Y-36014739D01*
X159031308Y-36073635D01*
X159258000Y-36093468D01*
X159484692Y-36073635D01*
X159704496Y-36014739D01*
X159910734Y-35918568D01*
X160097139Y-35788047D01*
X160258047Y-35627139D01*
X160388568Y-35440734D01*
X160415618Y-35382724D01*
X160461375Y-35330549D01*
X160528000Y-35311129D01*
X160594625Y-35330549D01*
X160640382Y-35382725D01*
X160667431Y-35440733D01*
X160797953Y-35627140D01*
X160958859Y-35788046D01*
X161145264Y-35918567D01*
X161145265Y-35918567D01*
X161145266Y-35918568D01*
X161351504Y-36014739D01*
X161571308Y-36073635D01*
X161798000Y-36093468D01*
X162024692Y-36073635D01*
X162244496Y-36014739D01*
X162450734Y-35918568D01*
X162637139Y-35788047D01*
X162798047Y-35627139D01*
X162928568Y-35440734D01*
X163024739Y-35234496D01*
X163083635Y-35014692D01*
X163103468Y-34788000D01*
X163083635Y-34561308D01*
X163024739Y-34341504D01*
X162928568Y-34135266D01*
X162846049Y-34017416D01*
X162798046Y-33948859D01*
X162637140Y-33787953D01*
X162450735Y-33657432D01*
X162244497Y-33561261D01*
X162024689Y-33502364D01*
X161997669Y-33500000D01*
X170744591Y-33500000D01*
X170764197Y-33761627D01*
X170822580Y-34017418D01*
X170917426Y-34259080D01*
X170918432Y-34261643D01*
X171049614Y-34488857D01*
X171213195Y-34693981D01*
X171213197Y-34693983D01*
X171213198Y-34693984D01*
X171405514Y-34872428D01*
X171405520Y-34872432D01*
X171405521Y-34872433D01*
X171622296Y-35020228D01*
X171858677Y-35134063D01*
X172109385Y-35211396D01*
X172368818Y-35250500D01*
X172631182Y-35250500D01*
X172890615Y-35211396D01*
X173141323Y-35134063D01*
X173377704Y-35020228D01*
X173594479Y-34872433D01*
X173594482Y-34872429D01*
X173594485Y-34872428D01*
X173685477Y-34787999D01*
X173786805Y-34693981D01*
X173950386Y-34488857D01*
X174081568Y-34261643D01*
X174177420Y-34017416D01*
X174235802Y-33761630D01*
X174255408Y-33500000D01*
X174235802Y-33238370D01*
X174177420Y-32982584D01*
X174081568Y-32738357D01*
X173950386Y-32511143D01*
X173786805Y-32306019D01*
X173786801Y-32306015D01*
X173594485Y-32127571D01*
X173577170Y-32115766D01*
X173377704Y-31979772D01*
X173141323Y-31865937D01*
X172890615Y-31788604D01*
X172631182Y-31749500D01*
X172368818Y-31749500D01*
X172109385Y-31788604D01*
X171858677Y-31865937D01*
X171622296Y-31979772D01*
X171614791Y-31984889D01*
X171405514Y-32127571D01*
X171213198Y-32306015D01*
X171049613Y-32511143D01*
X170918431Y-32738358D01*
X170822580Y-32982581D01*
X170764197Y-33238372D01*
X170744591Y-33500000D01*
X161997669Y-33500000D01*
X161798000Y-33482531D01*
X161571310Y-33502364D01*
X161351502Y-33561261D01*
X161145264Y-33657432D01*
X160958859Y-33787953D01*
X160797953Y-33948859D01*
X160667433Y-34135263D01*
X160640382Y-34193275D01*
X160594625Y-34245450D01*
X160528000Y-34264869D01*
X160461375Y-34245450D01*
X160415618Y-34193275D01*
X160388687Y-34135522D01*
X160388568Y-34135266D01*
X160306051Y-34017418D01*
X160258046Y-33948859D01*
X160097140Y-33787953D01*
X159910735Y-33657432D01*
X159704497Y-33561261D01*
X159484689Y-33502364D01*
X159258000Y-33482531D01*
X159031310Y-33502364D01*
X158811502Y-33561261D01*
X158605264Y-33657432D01*
X158418859Y-33787953D01*
X158257953Y-33948859D01*
X158127433Y-34135263D01*
X158100382Y-34193275D01*
X158054625Y-34245450D01*
X157988000Y-34264869D01*
X157921375Y-34245450D01*
X157875618Y-34193275D01*
X157848687Y-34135522D01*
X157848568Y-34135266D01*
X157766051Y-34017418D01*
X157718046Y-33948859D01*
X157557140Y-33787953D01*
X157370735Y-33657432D01*
X157164497Y-33561261D01*
X156944689Y-33502364D01*
X156718000Y-33482531D01*
X156491310Y-33502364D01*
X156271502Y-33561261D01*
X156065264Y-33657432D01*
X155878859Y-33787953D01*
X155717953Y-33948859D01*
X155587433Y-34135263D01*
X155560382Y-34193275D01*
X155514625Y-34245450D01*
X155448000Y-34264869D01*
X155381375Y-34245450D01*
X155335618Y-34193275D01*
X155308687Y-34135522D01*
X155308568Y-34135266D01*
X155226051Y-34017418D01*
X155178046Y-33948859D01*
X155017140Y-33787953D01*
X154830735Y-33657432D01*
X154624497Y-33561261D01*
X154404689Y-33502364D01*
X154178000Y-33482531D01*
X153951310Y-33502364D01*
X153731502Y-33561261D01*
X153525264Y-33657432D01*
X153338859Y-33787953D01*
X153177953Y-33948859D01*
X153047433Y-34135263D01*
X153020382Y-34193275D01*
X152974625Y-34245450D01*
X152908000Y-34264869D01*
X152841375Y-34245450D01*
X152795618Y-34193275D01*
X152768687Y-34135522D01*
X152768568Y-34135266D01*
X152686051Y-34017418D01*
X152638046Y-33948859D01*
X152477140Y-33787953D01*
X152290735Y-33657432D01*
X152084497Y-33561261D01*
X151864689Y-33502364D01*
X151638000Y-33482531D01*
X151411310Y-33502364D01*
X151191502Y-33561261D01*
X150985264Y-33657432D01*
X150798859Y-33787953D01*
X150637953Y-33948859D01*
X150507433Y-34135263D01*
X150480382Y-34193275D01*
X150434625Y-34245450D01*
X150368000Y-34264869D01*
X150301375Y-34245450D01*
X150255618Y-34193275D01*
X150228687Y-34135522D01*
X150228568Y-34135266D01*
X150146051Y-34017418D01*
X150098046Y-33948859D01*
X149937140Y-33787953D01*
X149750735Y-33657432D01*
X149544497Y-33561261D01*
X149324689Y-33502364D01*
X149098000Y-33482531D01*
X148871310Y-33502364D01*
X148651502Y-33561261D01*
X148445264Y-33657432D01*
X148258859Y-33787953D01*
X148097953Y-33948859D01*
X147967433Y-34135263D01*
X147940382Y-34193275D01*
X147894625Y-34245450D01*
X147828000Y-34264869D01*
X147761375Y-34245450D01*
X147715618Y-34193275D01*
X147688687Y-34135522D01*
X147688568Y-34135266D01*
X147606051Y-34017418D01*
X147558046Y-33948859D01*
X147397140Y-33787953D01*
X147210735Y-33657432D01*
X147004497Y-33561261D01*
X146784689Y-33502364D01*
X146558000Y-33482531D01*
X146331310Y-33502364D01*
X146111502Y-33561261D01*
X145905264Y-33657432D01*
X145718859Y-33787953D01*
X145557953Y-33948859D01*
X145427433Y-34135263D01*
X145400382Y-34193275D01*
X145354625Y-34245450D01*
X145288000Y-34264869D01*
X145221375Y-34245450D01*
X145175618Y-34193275D01*
X145148687Y-34135522D01*
X145148568Y-34135266D01*
X145066051Y-34017418D01*
X145018046Y-33948859D01*
X144857140Y-33787953D01*
X144670735Y-33657432D01*
X144464497Y-33561261D01*
X144244689Y-33502364D01*
X144018000Y-33482531D01*
X143791310Y-33502364D01*
X143571502Y-33561261D01*
X143365264Y-33657432D01*
X143178859Y-33787953D01*
X143017953Y-33948859D01*
X142887433Y-34135263D01*
X142860382Y-34193275D01*
X142814625Y-34245450D01*
X142748000Y-34264869D01*
X142681375Y-34245450D01*
X142635618Y-34193275D01*
X142608687Y-34135522D01*
X142608568Y-34135266D01*
X142526051Y-34017418D01*
X142478046Y-33948859D01*
X142317140Y-33787953D01*
X142130735Y-33657432D01*
X141924497Y-33561261D01*
X141704689Y-33502364D01*
X141478000Y-33482531D01*
X141251310Y-33502364D01*
X141031502Y-33561261D01*
X140825264Y-33657432D01*
X140638859Y-33787953D01*
X140477953Y-33948859D01*
X140347433Y-34135263D01*
X140320382Y-34193275D01*
X140274625Y-34245450D01*
X140208000Y-34264869D01*
X140141375Y-34245450D01*
X140095618Y-34193275D01*
X140068687Y-34135522D01*
X140068568Y-34135266D01*
X139986051Y-34017418D01*
X139938046Y-33948859D01*
X139777140Y-33787953D01*
X139590735Y-33657432D01*
X139384497Y-33561261D01*
X139164689Y-33502364D01*
X138938000Y-33482531D01*
X138711310Y-33502364D01*
X138491502Y-33561261D01*
X138285264Y-33657432D01*
X138098859Y-33787953D01*
X137937953Y-33948859D01*
X137807433Y-34135263D01*
X137780382Y-34193275D01*
X137734625Y-34245450D01*
X137668000Y-34264869D01*
X137601375Y-34245450D01*
X137555618Y-34193275D01*
X137528687Y-34135522D01*
X137528568Y-34135266D01*
X137446051Y-34017418D01*
X137398046Y-33948859D01*
X137237140Y-33787953D01*
X137050735Y-33657432D01*
X136844497Y-33561261D01*
X136624689Y-33502364D01*
X136398000Y-33482531D01*
X136171310Y-33502364D01*
X135951502Y-33561261D01*
X135745264Y-33657432D01*
X135558859Y-33787953D01*
X135397953Y-33948859D01*
X135267433Y-34135263D01*
X135240382Y-34193275D01*
X135194625Y-34245450D01*
X135128000Y-34264869D01*
X135061375Y-34245450D01*
X135015618Y-34193275D01*
X134988687Y-34135522D01*
X134988568Y-34135266D01*
X134906051Y-34017418D01*
X134858046Y-33948859D01*
X134697140Y-33787953D01*
X134510735Y-33657432D01*
X134304497Y-33561261D01*
X134084689Y-33502364D01*
X133858000Y-33482531D01*
X133631310Y-33502364D01*
X133411502Y-33561261D01*
X133205264Y-33657432D01*
X133018859Y-33787953D01*
X132857953Y-33948859D01*
X132727433Y-34135263D01*
X132700382Y-34193275D01*
X132654625Y-34245450D01*
X132588000Y-34264869D01*
X132521375Y-34245450D01*
X132475618Y-34193275D01*
X132448687Y-34135522D01*
X132448568Y-34135266D01*
X132366051Y-34017418D01*
X132318046Y-33948859D01*
X132157140Y-33787953D01*
X131970735Y-33657432D01*
X131764497Y-33561261D01*
X131544689Y-33502364D01*
X131318000Y-33482531D01*
X131091310Y-33502364D01*
X130871502Y-33561261D01*
X130665264Y-33657432D01*
X130478859Y-33787953D01*
X130317953Y-33948859D01*
X130187430Y-34135267D01*
X130160105Y-34193866D01*
X130114348Y-34246041D01*
X130047723Y-34265460D01*
X129981099Y-34246040D01*
X129935342Y-34193865D01*
X129908134Y-34135519D01*
X129777658Y-33949180D01*
X129616819Y-33788341D01*
X129430480Y-33657865D01*
X129224326Y-33561733D01*
X129028000Y-33509128D01*
X129028000Y-36066871D01*
X128528000Y-36066871D01*
X128528000Y-33509128D01*
X128527999Y-33509128D01*
X128331673Y-33561733D01*
X128125519Y-33657865D01*
X127939180Y-33788341D01*
X127778341Y-33949180D01*
X127647863Y-34135522D01*
X127620656Y-34193866D01*
X127574899Y-34246041D01*
X127508274Y-34265460D01*
X127441650Y-34246040D01*
X127395893Y-34193865D01*
X127368567Y-34135264D01*
X127238046Y-33948859D01*
X127077140Y-33787953D01*
X126890735Y-33657432D01*
X126684497Y-33561261D01*
X126464689Y-33502364D01*
X126238000Y-33482531D01*
X126011310Y-33502364D01*
X125791502Y-33561261D01*
X125585264Y-33657432D01*
X125398859Y-33787953D01*
X125237953Y-33948859D01*
X125107432Y-34135264D01*
X125011261Y-34341502D01*
X124952364Y-34561310D01*
X124932531Y-34788000D01*
X117685476Y-34788000D01*
X117685477Y-34787999D01*
X117786805Y-34693981D01*
X117950386Y-34488857D01*
X118081568Y-34261643D01*
X118177420Y-34017416D01*
X118235802Y-33761630D01*
X118255408Y-33500000D01*
X118235802Y-33238370D01*
X118177420Y-32982584D01*
X118081568Y-32738357D01*
X117950386Y-32511143D01*
X117786805Y-32306019D01*
X117786801Y-32306015D01*
X117594485Y-32127571D01*
X117577170Y-32115766D01*
X117377704Y-31979772D01*
X117141323Y-31865937D01*
X116890615Y-31788604D01*
X116631182Y-31749500D01*
X116368818Y-31749500D01*
X116109385Y-31788604D01*
X115858677Y-31865937D01*
X115622296Y-31979772D01*
X115614791Y-31984889D01*
X115405514Y-32127571D01*
X115213198Y-32306015D01*
X115049613Y-32511143D01*
X114918431Y-32738358D01*
X114822580Y-32982581D01*
X114764197Y-33238372D01*
X114744591Y-33499999D01*
X113500500Y-33499999D01*
X113500500Y-30624500D01*
X113517113Y-30562500D01*
X113562500Y-30517113D01*
X113624500Y-30500500D01*
X175375500Y-30500500D01*
X175437500Y-30517113D01*
G37*
%TD.AperFunction*%
%TD*%
M02*
