M48
; DRILL file {KiCad 7.0.1} date Thu Nov 28 00:45:05 2024
; FORMAT={-:-/ absolute / inch / decimal}
; #@! TF.CreationDate,2024-11-28T00:45:05-08:00
; #@! TF.GenerationSoftware,Kicad,Pcbnew,7.0.1
; #@! TF.FileFunction,Plated,1,2,PTH
FMAT,2
INCH
; #@! TA.AperFunction,Plated,PTH,ComponentDrill
T1C0.0315
; #@! TA.AperFunction,Plated,PTH,ComponentDrill
T2C0.0354
; #@! TA.AperFunction,Plated,PTH,ComponentDrill
T3C0.0394
; #@! TA.AperFunction,Plated,PTH,ComponentDrill
T4C0.0420
; #@! TA.AperFunction,Plated,PTH,ComponentDrill
T5C0.0433
%
G90
G05
T1
X4.73Y-1.48
X4.73Y-1.78
X5.02Y-2.0996
X5.42Y-2.0996
X5.54Y-2.0996
X5.54Y-2.2396
X5.94Y-2.0996
X5.94Y-2.2396
X6.04Y-2.0996
X6.04Y-2.2396
X6.44Y-2.0996
X6.44Y-2.2396
T2
X5.52Y-2.7696
X5.62Y-2.7696
X5.8153Y-2.7696
X5.9153Y-2.7696
X6.1106Y-2.7696
X6.2106Y-2.7696
X6.4058Y-2.7696
X6.5058Y-2.7696
T3
X4.97Y-1.3696
X4.97Y-1.9696
X5.07Y-1.3696
X5.07Y-1.9696
X5.1Y-2.6096
X5.1Y-2.9088
X5.17Y-1.3696
X5.17Y-1.9696
X5.27Y-1.3696
X5.27Y-1.9696
X5.37Y-1.3696
X5.37Y-1.9696
X5.47Y-1.3696
X5.47Y-1.9696
X5.57Y-1.3696
X5.57Y-1.9696
X5.67Y-1.3696
X5.67Y-1.9696
X5.77Y-1.3696
X5.77Y-1.9696
X5.87Y-1.3696
X5.87Y-1.9696
X5.97Y-1.3696
X5.97Y-1.9696
X6.07Y-1.3696
X6.07Y-1.9696
X6.17Y-1.3696
X6.17Y-1.9696
X6.27Y-1.3696
X6.27Y-1.9696
X6.37Y-1.3696
X6.37Y-1.9696
T4
X4.58Y-1.68
X4.58Y-1.78
T5
X4.5814Y-2.512
X4.5814Y-2.768
X4.7586Y-2.512
X4.7586Y-2.768
T0
M30
