%TF.GenerationSoftware,KiCad,Pcbnew,7.0.1*%
%TF.CreationDate,2024-11-28T00:40:51-08:00*%
%TF.ProjectId,puzzle_room,70757a7a-6c65-45f7-926f-6f6d2e6b6963,rev?*%
%TF.SameCoordinates,Original*%
%TF.FileFunction,Copper,L1,Top*%
%TF.FilePolarity,Positive*%
%FSLAX46Y46*%
G04 Gerber Fmt 4.6, Leading zero omitted, Abs format (unit mm)*
G04 Created by KiCad (PCBNEW 7.0.1) date 2024-11-28 00:40:51*
%MOMM*%
%LPD*%
G01*
G04 APERTURE LIST*
%TA.AperFunction,NonConductor*%
%ADD10C,0.200000*%
%TD*%
%TA.AperFunction,ComponentPad*%
%ADD11R,2.000000X2.000000*%
%TD*%
%TA.AperFunction,ComponentPad*%
%ADD12C,2.000000*%
%TD*%
%TA.AperFunction,ComponentPad*%
%ADD13C,1.600000*%
%TD*%
%TA.AperFunction,ComponentPad*%
%ADD14O,1.600000X1.600000*%
%TD*%
%TA.AperFunction,ComponentPad*%
%ADD15C,1.574800*%
%TD*%
%TA.AperFunction,ComponentPad*%
%ADD16R,1.800000X1.800000*%
%TD*%
%TA.AperFunction,ComponentPad*%
%ADD17C,1.800000*%
%TD*%
%TA.AperFunction,ComponentPad*%
%ADD18R,1.600000X1.600000*%
%TD*%
%TA.AperFunction,Conductor*%
%ADD19C,0.250000*%
%TD*%
G04 APERTURE END LIST*
D10*
X109220000Y-27940000D02*
X177800000Y-27940000D01*
X177800000Y-81280000D01*
X109220000Y-81280000D01*
X109220000Y-27940000D01*
D11*
%TO.P,BZ1,1,-*%
%TO.N,Speaker*%
X129540000Y-66284000D03*
D12*
%TO.P,BZ1,2,+*%
%TO.N,GND*%
X129540000Y-73884000D03*
%TD*%
D13*
%TO.P,R5,1*%
%TO.N,Green*%
X153416000Y-56886000D03*
D14*
%TO.P,R5,2*%
%TO.N,Net-(D4-A)*%
X163576000Y-56886000D03*
%TD*%
D15*
%TO.P,J1,1,1*%
%TO.N,9v_in*%
X116332000Y-45212000D03*
%TO.P,J1,2,2*%
%TO.N,GND*%
X116332000Y-42672000D03*
%TD*%
D16*
%TO.P,D4,1,K*%
%TO.N,GND*%
X162708000Y-70348000D03*
D17*
%TO.P,D4,2,A*%
%TO.N,Net-(D4-A)*%
X165248000Y-70348000D03*
%TD*%
D13*
%TO.P,R1,1*%
%TO.N,button*%
X127508000Y-53330000D03*
D14*
%TO.P,R1,2*%
%TO.N,GND*%
X137668000Y-53330000D03*
%TD*%
D16*
%TO.P,D3,1,K*%
%TO.N,GND*%
X155208000Y-70348000D03*
D17*
%TO.P,D3,2,A*%
%TO.N,Net-(D3-A)*%
X157748000Y-70348000D03*
%TD*%
D16*
%TO.P,D2,1,K*%
%TO.N,GND*%
X147708000Y-70348000D03*
D17*
%TO.P,D2,2,A*%
%TO.N,Net-(D2-A)*%
X150248000Y-70348000D03*
%TD*%
D13*
%TO.P,R3,1*%
%TO.N,Red1*%
X150876000Y-56886000D03*
D14*
%TO.P,R3,2*%
%TO.N,Net-(D2-A)*%
X140716000Y-56886000D03*
%TD*%
D12*
%TO.P,SW1,1,1*%
%TO.N,+5V*%
X116368000Y-70306000D03*
X116368000Y-63806000D03*
%TO.P,SW1,2,2*%
%TO.N,button*%
X120868000Y-70306000D03*
X120868000Y-63806000D03*
%TD*%
D13*
%TO.P,R4,1*%
%TO.N,Yellow*%
X153416000Y-53330000D03*
D14*
%TO.P,R4,2*%
%TO.N,Net-(D3-A)*%
X163576000Y-53330000D03*
%TD*%
D18*
%TO.P,D5,1,K*%
%TO.N,Net-(A1-VIN)*%
X120142000Y-37592000D03*
D14*
%TO.P,D5,2,A*%
%TO.N,9v_in*%
X120142000Y-45212000D03*
%TD*%
D18*
%TO.P,A1,1,D1/TX*%
%TO.N,unconnected-(A1-D1{slash}TX-Pad1)*%
X126238000Y-50028000D03*
D14*
%TO.P,A1,2,D0/RX*%
%TO.N,unconnected-(A1-D0{slash}RX-Pad2)*%
X128778000Y-50028000D03*
%TO.P,A1,3,~{RESET}*%
%TO.N,unconnected-(A1-~{RESET}-Pad3)*%
X131318000Y-50028000D03*
%TO.P,A1,4,GND*%
%TO.N,GND*%
X133858000Y-50028000D03*
%TO.P,A1,5,D2*%
%TO.N,button*%
X136398000Y-50028000D03*
%TO.P,A1,6,D3*%
%TO.N,unconnected-(A1-D3-Pad6)*%
X138938000Y-50028000D03*
%TO.P,A1,7,D4*%
%TO.N,unconnected-(A1-D4-Pad7)*%
X141478000Y-50028000D03*
%TO.P,A1,8,D5*%
%TO.N,Speaker*%
X144018000Y-50028000D03*
%TO.P,A1,9,D6*%
%TO.N,unconnected-(A1-D6-Pad9)*%
X146558000Y-50028000D03*
%TO.P,A1,10,D7*%
%TO.N,unconnected-(A1-D7-Pad10)*%
X149098000Y-50028000D03*
%TO.P,A1,11,D8*%
%TO.N,unconnected-(A1-D8-Pad11)*%
X151638000Y-50028000D03*
%TO.P,A1,12,D9*%
%TO.N,Red2*%
X154178000Y-50028000D03*
%TO.P,A1,13,D10*%
%TO.N,Red1*%
X156718000Y-50028000D03*
%TO.P,A1,14,D11*%
%TO.N,Yellow*%
X159258000Y-50028000D03*
%TO.P,A1,15,D12*%
%TO.N,Green*%
X161798000Y-50028000D03*
%TO.P,A1,16,D13*%
%TO.N,unconnected-(A1-D13-Pad16)*%
X161798000Y-34788000D03*
%TO.P,A1,17,3V3*%
%TO.N,unconnected-(A1-3V3-Pad17)*%
X159258000Y-34788000D03*
%TO.P,A1,18,AREF*%
%TO.N,unconnected-(A1-AREF-Pad18)*%
X156718000Y-34788000D03*
%TO.P,A1,19,A0*%
%TO.N,unconnected-(A1-A0-Pad19)*%
X154178000Y-34788000D03*
%TO.P,A1,20,A1*%
%TO.N,unconnected-(A1-A1-Pad20)*%
X151638000Y-34788000D03*
%TO.P,A1,21,A2*%
%TO.N,unconnected-(A1-A2-Pad21)*%
X149098000Y-34788000D03*
%TO.P,A1,22,A3*%
%TO.N,unconnected-(A1-A3-Pad22)*%
X146558000Y-34788000D03*
%TO.P,A1,23,A4*%
%TO.N,unconnected-(A1-A4-Pad23)*%
X144018000Y-34788000D03*
%TO.P,A1,24,A5*%
%TO.N,unconnected-(A1-A5-Pad24)*%
X141478000Y-34788000D03*
%TO.P,A1,25,A6*%
%TO.N,unconnected-(A1-A6-Pad25)*%
X138938000Y-34788000D03*
%TO.P,A1,26,A7*%
%TO.N,unconnected-(A1-A7-Pad26)*%
X136398000Y-34788000D03*
%TO.P,A1,27,+5V*%
%TO.N,+5V*%
X133858000Y-34788000D03*
%TO.P,A1,28,~{RESET}*%
%TO.N,unconnected-(A1-~{RESET}-Pad28)*%
X131318000Y-34788000D03*
%TO.P,A1,29,GND*%
%TO.N,GND*%
X128778000Y-34788000D03*
%TO.P,A1,30,VIN*%
%TO.N,Net-(A1-VIN)*%
X126238000Y-34788000D03*
%TD*%
D13*
%TO.P,R2,1*%
%TO.N,Red2*%
X150876000Y-53330000D03*
D14*
%TO.P,R2,2*%
%TO.N,Net-(D1-A)*%
X140716000Y-53330000D03*
%TD*%
D16*
%TO.P,D1,1,K*%
%TO.N,GND*%
X140208000Y-70348000D03*
D17*
%TO.P,D1,2,A*%
%TO.N,Net-(D1-A)*%
X142748000Y-70348000D03*
%TD*%
D19*
%TO.N,GND*%
X120894000Y-42672000D02*
X128778000Y-34788000D01*
X116332000Y-42672000D02*
X120894000Y-42672000D01*
%TO.N,button*%
X127508000Y-53330000D02*
X133096000Y-53330000D01*
X120868000Y-59970000D02*
X127508000Y-53330000D01*
X120868000Y-63806000D02*
X120868000Y-59970000D01*
X133096000Y-53330000D02*
X136398000Y-50028000D01*
X127296000Y-53330000D02*
X127508000Y-53330000D01*
%TO.N,Speaker*%
X129540000Y-65034000D02*
X139591000Y-54983000D01*
X139591000Y-54983000D02*
X139591000Y-52864009D01*
X129540000Y-66284000D02*
X129540000Y-65034000D01*
X141147009Y-51308000D02*
X142738000Y-51308000D01*
X139591000Y-52864009D02*
X141147009Y-51308000D01*
X142738000Y-51308000D02*
X144018000Y-50028000D01*
%TO.N,Red2*%
X150876000Y-53330000D02*
X154178000Y-50028000D01*
%TO.N,Red1*%
X155593000Y-51153000D02*
X156718000Y-50028000D01*
X150876000Y-56886000D02*
X152291000Y-55471000D01*
X152291000Y-55471000D02*
X152291000Y-52677000D01*
X152291000Y-52677000D02*
X153815000Y-51153000D01*
X153815000Y-51153000D02*
X155593000Y-51153000D01*
%TO.N,Yellow*%
X155956000Y-53330000D02*
X159258000Y-50028000D01*
X153416000Y-53330000D02*
X155956000Y-53330000D01*
%TO.N,Green*%
X154940000Y-56886000D02*
X161798000Y-50028000D01*
X153416000Y-56886000D02*
X154940000Y-56886000D01*
%TO.N,9v_in*%
X116332000Y-45212000D02*
X120142000Y-45212000D01*
%TO.N,Net-(D1-A)*%
X139591000Y-67191000D02*
X142748000Y-70348000D01*
X140716000Y-53330000D02*
X140716000Y-55295009D01*
X140716000Y-55295009D02*
X139591000Y-56420009D01*
X139591000Y-56420009D02*
X139591000Y-67191000D01*
%TO.N,Net-(D2-A)*%
X150248000Y-66418000D02*
X140716000Y-56886000D01*
X150248000Y-70348000D02*
X150248000Y-66418000D01*
%TO.N,Net-(D3-A)*%
X157748000Y-59158000D02*
X163576000Y-53330000D01*
X157748000Y-70348000D02*
X157748000Y-59158000D01*
%TO.N,Net-(D4-A)*%
X165248000Y-70348000D02*
X165248000Y-58558000D01*
X165248000Y-58558000D02*
X163576000Y-56886000D01*
%TO.N,Net-(A1-VIN)*%
X123434000Y-37592000D02*
X126238000Y-34788000D01*
X120142000Y-37592000D02*
X123434000Y-37592000D01*
%TD*%
%TA.AperFunction,Conductor*%
%TO.N,+5V*%
G36*
X175437500Y-30517113D02*
G01*
X175482887Y-30562500D01*
X175499500Y-30624500D01*
X175499500Y-77375500D01*
X175482887Y-77437500D01*
X175437500Y-77482887D01*
X175375500Y-77499500D01*
X113624500Y-77499500D01*
X113562500Y-77482887D01*
X113517113Y-77437500D01*
X113500500Y-77375500D01*
X113500500Y-74499999D01*
X114744591Y-74499999D01*
X114764197Y-74761627D01*
X114822580Y-75017418D01*
X114918431Y-75261641D01*
X114965732Y-75343570D01*
X115049614Y-75488857D01*
X115213195Y-75693981D01*
X115213197Y-75693983D01*
X115213198Y-75693984D01*
X115405514Y-75872428D01*
X115405520Y-75872432D01*
X115405521Y-75872433D01*
X115622296Y-76020228D01*
X115858677Y-76134063D01*
X116109385Y-76211396D01*
X116368818Y-76250500D01*
X116631182Y-76250500D01*
X116890615Y-76211396D01*
X117141323Y-76134063D01*
X117377704Y-76020228D01*
X117594479Y-75872433D01*
X117594482Y-75872429D01*
X117594485Y-75872428D01*
X117679792Y-75793273D01*
X117786805Y-75693981D01*
X117950386Y-75488857D01*
X118081568Y-75261643D01*
X118177420Y-75017416D01*
X118235802Y-74761630D01*
X118255408Y-74500000D01*
X118235802Y-74238370D01*
X118177420Y-73982584D01*
X118138728Y-73883999D01*
X128034356Y-73883999D01*
X128054891Y-74131816D01*
X128054891Y-74131819D01*
X128054892Y-74131821D01*
X128115937Y-74372881D01*
X128160960Y-74475523D01*
X128215825Y-74600604D01*
X128215827Y-74600607D01*
X128351836Y-74808785D01*
X128520256Y-74991738D01*
X128520259Y-74991740D01*
X128716485Y-75144470D01*
X128716487Y-75144471D01*
X128716491Y-75144474D01*
X128935190Y-75262828D01*
X129170386Y-75343571D01*
X129415665Y-75384500D01*
X129664335Y-75384500D01*
X129909614Y-75343571D01*
X130144810Y-75262828D01*
X130363509Y-75144474D01*
X130559744Y-74991738D01*
X130728164Y-74808785D01*
X130864173Y-74600607D01*
X130908304Y-74499999D01*
X170744591Y-74499999D01*
X170764197Y-74761627D01*
X170822580Y-75017418D01*
X170918431Y-75261641D01*
X170965732Y-75343570D01*
X171049614Y-75488857D01*
X171213195Y-75693981D01*
X171213197Y-75693983D01*
X171213198Y-75693984D01*
X171405514Y-75872428D01*
X171405520Y-75872432D01*
X171405521Y-75872433D01*
X171622296Y-76020228D01*
X171858677Y-76134063D01*
X172109385Y-76211396D01*
X172368818Y-76250500D01*
X172631182Y-76250500D01*
X172890615Y-76211396D01*
X173141323Y-76134063D01*
X173377704Y-76020228D01*
X173594479Y-75872433D01*
X173594482Y-75872429D01*
X173594485Y-75872428D01*
X173679792Y-75793273D01*
X173786805Y-75693981D01*
X173950386Y-75488857D01*
X174081568Y-75261643D01*
X174177420Y-75017416D01*
X174235802Y-74761630D01*
X174255408Y-74500000D01*
X174235802Y-74238370D01*
X174177420Y-73982584D01*
X174081568Y-73738357D01*
X173950386Y-73511143D01*
X173786805Y-73306019D01*
X173786801Y-73306015D01*
X173594485Y-73127571D01*
X173577170Y-73115766D01*
X173377704Y-72979772D01*
X173141323Y-72865937D01*
X172890615Y-72788604D01*
X172631182Y-72749500D01*
X172368818Y-72749500D01*
X172109385Y-72788604D01*
X171858677Y-72865937D01*
X171622296Y-72979772D01*
X171614791Y-72984889D01*
X171405514Y-73127571D01*
X171213198Y-73306015D01*
X171049613Y-73511143D01*
X170918431Y-73738358D01*
X170822580Y-73982581D01*
X170764197Y-74238372D01*
X170744591Y-74499999D01*
X130908304Y-74499999D01*
X130964063Y-74372881D01*
X131025108Y-74131821D01*
X131045643Y-73884000D01*
X131025108Y-73636179D01*
X130964063Y-73395119D01*
X130864173Y-73167393D01*
X130728164Y-72959215D01*
X130559744Y-72776262D01*
X130525360Y-72749500D01*
X130363514Y-72623529D01*
X130363510Y-72623526D01*
X130363509Y-72623526D01*
X130144810Y-72505172D01*
X130144806Y-72505170D01*
X130144805Y-72505170D01*
X129909615Y-72424429D01*
X129664335Y-72383500D01*
X129415665Y-72383500D01*
X129170384Y-72424429D01*
X128935194Y-72505170D01*
X128716485Y-72623529D01*
X128520259Y-72776259D01*
X128520256Y-72776261D01*
X128520256Y-72776262D01*
X128351836Y-72959215D01*
X128306499Y-73028607D01*
X128215825Y-73167395D01*
X128115938Y-73395117D01*
X128054891Y-73636183D01*
X128034356Y-73883999D01*
X118138728Y-73883999D01*
X118081568Y-73738357D01*
X117950386Y-73511143D01*
X117786805Y-73306019D01*
X117786801Y-73306015D01*
X117594485Y-73127571D01*
X117577170Y-73115766D01*
X117377704Y-72979772D01*
X117141323Y-72865937D01*
X116890615Y-72788604D01*
X116631182Y-72749500D01*
X116368818Y-72749500D01*
X116109385Y-72788604D01*
X115858677Y-72865937D01*
X115622296Y-72979772D01*
X115614791Y-72984889D01*
X115405514Y-73127571D01*
X115213198Y-73306015D01*
X115049613Y-73511143D01*
X114918431Y-73738358D01*
X114822580Y-73982581D01*
X114764197Y-74238372D01*
X114744591Y-74499999D01*
X113500500Y-74499999D01*
X113500500Y-71529610D01*
X115497942Y-71529610D01*
X115544766Y-71566055D01*
X115763393Y-71684368D01*
X115998506Y-71765083D01*
X116243707Y-71806000D01*
X116492293Y-71806000D01*
X116737493Y-71765083D01*
X116972606Y-71684368D01*
X117191233Y-71566053D01*
X117238056Y-71529609D01*
X116368000Y-70659553D01*
X115497942Y-71529609D01*
X115497942Y-71529610D01*
X113500500Y-71529610D01*
X113500500Y-70306000D01*
X114862858Y-70306000D01*
X114883386Y-70553732D01*
X114944413Y-70794721D01*
X115044268Y-71022370D01*
X115144563Y-71175882D01*
X115144564Y-71175882D01*
X116014447Y-70306001D01*
X116721553Y-70306001D01*
X117591434Y-71175882D01*
X117691730Y-71022369D01*
X117791586Y-70794721D01*
X117852613Y-70553732D01*
X117873141Y-70306000D01*
X119362356Y-70306000D01*
X119382891Y-70553816D01*
X119382891Y-70553819D01*
X119382892Y-70553821D01*
X119443937Y-70794881D01*
X119448069Y-70804300D01*
X119543825Y-71022604D01*
X119543827Y-71022607D01*
X119679836Y-71230785D01*
X119848256Y-71413738D01*
X119848259Y-71413740D01*
X120044485Y-71566470D01*
X120044487Y-71566471D01*
X120044491Y-71566474D01*
X120263190Y-71684828D01*
X120498386Y-71765571D01*
X120743665Y-71806500D01*
X120992335Y-71806500D01*
X121237614Y-71765571D01*
X121472810Y-71684828D01*
X121691509Y-71566474D01*
X121887744Y-71413738D01*
X122056164Y-71230785D01*
X122192173Y-71022607D01*
X122292063Y-70794881D01*
X122353108Y-70553821D01*
X122373643Y-70306000D01*
X122353108Y-70058179D01*
X122292063Y-69817119D01*
X122192173Y-69589393D01*
X122056164Y-69381215D01*
X121887744Y-69198262D01*
X121799065Y-69129240D01*
X121691514Y-69045529D01*
X121691510Y-69045526D01*
X121691509Y-69045526D01*
X121472810Y-68927172D01*
X121472806Y-68927170D01*
X121472805Y-68927170D01*
X121237615Y-68846429D01*
X120992335Y-68805500D01*
X120743665Y-68805500D01*
X120498384Y-68846429D01*
X120263194Y-68927170D01*
X120044485Y-69045529D01*
X119848259Y-69198259D01*
X119848256Y-69198261D01*
X119848256Y-69198262D01*
X119679836Y-69381215D01*
X119643968Y-69436116D01*
X119543825Y-69589395D01*
X119504455Y-69679151D01*
X119443937Y-69817119D01*
X119409667Y-69952447D01*
X119382891Y-70058183D01*
X119362356Y-70306000D01*
X117873141Y-70306000D01*
X117852613Y-70058267D01*
X117791586Y-69817278D01*
X117691730Y-69589630D01*
X117591434Y-69436116D01*
X116721553Y-70306000D01*
X116721553Y-70306001D01*
X116014447Y-70306001D01*
X116014447Y-70306000D01*
X115144564Y-69436116D01*
X115044266Y-69589634D01*
X114944413Y-69817278D01*
X114883386Y-70058267D01*
X114862858Y-70306000D01*
X113500500Y-70306000D01*
X113500500Y-69082390D01*
X115497942Y-69082390D01*
X116368000Y-69952447D01*
X116368001Y-69952447D01*
X117238057Y-69082390D01*
X117238056Y-69082388D01*
X117191235Y-69045947D01*
X116972606Y-68927631D01*
X116737493Y-68846916D01*
X116492293Y-68806000D01*
X116243707Y-68806000D01*
X115998506Y-68846916D01*
X115763393Y-68927631D01*
X115544764Y-69045946D01*
X115497942Y-69082388D01*
X115497942Y-69082390D01*
X113500500Y-69082390D01*
X113500500Y-65029610D01*
X115497942Y-65029610D01*
X115544766Y-65066055D01*
X115763393Y-65184368D01*
X115998506Y-65265083D01*
X116243707Y-65306000D01*
X116492293Y-65306000D01*
X116737493Y-65265083D01*
X116972606Y-65184368D01*
X117191233Y-65066053D01*
X117238056Y-65029609D01*
X116368000Y-64159553D01*
X115497942Y-65029609D01*
X115497942Y-65029610D01*
X113500500Y-65029610D01*
X113500500Y-63806000D01*
X114862858Y-63806000D01*
X114883386Y-64053732D01*
X114944413Y-64294721D01*
X115044268Y-64522370D01*
X115144563Y-64675882D01*
X115144564Y-64675882D01*
X116014447Y-63806001D01*
X116721553Y-63806001D01*
X117591434Y-64675882D01*
X117691730Y-64522369D01*
X117791586Y-64294721D01*
X117852613Y-64053732D01*
X117873141Y-63806000D01*
X117873141Y-63805999D01*
X119362356Y-63805999D01*
X119382891Y-64053816D01*
X119382891Y-64053819D01*
X119382892Y-64053821D01*
X119443937Y-64294881D01*
X119488960Y-64397523D01*
X119543825Y-64522604D01*
X119543827Y-64522607D01*
X119679836Y-64730785D01*
X119848256Y-64913738D01*
X119913667Y-64964649D01*
X120044485Y-65066470D01*
X120044487Y-65066471D01*
X120044491Y-65066474D01*
X120263190Y-65184828D01*
X120498386Y-65265571D01*
X120743665Y-65306500D01*
X120992335Y-65306500D01*
X121237614Y-65265571D01*
X121472810Y-65184828D01*
X121691509Y-65066474D01*
X121887744Y-64913738D01*
X122056164Y-64730785D01*
X122192173Y-64522607D01*
X122292063Y-64294881D01*
X122353108Y-64053821D01*
X122373643Y-63806000D01*
X122353108Y-63558179D01*
X122292063Y-63317119D01*
X122192173Y-63089393D01*
X122056164Y-62881215D01*
X121887744Y-62698262D01*
X121865612Y-62681036D01*
X121691514Y-62545529D01*
X121691510Y-62545526D01*
X121691509Y-62545526D01*
X121558480Y-62473534D01*
X121510977Y-62427955D01*
X121493500Y-62364481D01*
X121493500Y-60280452D01*
X121502939Y-60232999D01*
X121529819Y-60192771D01*
X124309773Y-57412817D01*
X127093178Y-54629411D01*
X127148763Y-54597319D01*
X127212951Y-54597319D01*
X127281308Y-54615635D01*
X127508000Y-54635468D01*
X127734692Y-54615635D01*
X127954496Y-54556739D01*
X128160734Y-54460568D01*
X128347139Y-54330047D01*
X128508047Y-54169139D01*
X128620612Y-54008377D01*
X128664931Y-53969511D01*
X128722188Y-53955500D01*
X133013256Y-53955500D01*
X133033762Y-53957764D01*
X133036665Y-53957672D01*
X133036667Y-53957673D01*
X133103872Y-53955561D01*
X133107768Y-53955500D01*
X133135349Y-53955500D01*
X133135350Y-53955500D01*
X133139319Y-53954998D01*
X133150965Y-53954080D01*
X133194627Y-53952709D01*
X133213859Y-53947120D01*
X133232918Y-53943174D01*
X133239196Y-53942381D01*
X133252792Y-53940664D01*
X133293407Y-53924582D01*
X133304444Y-53920803D01*
X133346390Y-53908618D01*
X133363629Y-53898422D01*
X133381102Y-53889862D01*
X133399732Y-53882486D01*
X133435064Y-53856814D01*
X133444830Y-53850400D01*
X133482418Y-53828171D01*
X133482417Y-53828171D01*
X133482420Y-53828170D01*
X133496585Y-53814004D01*
X133511373Y-53801373D01*
X133527587Y-53789594D01*
X133555438Y-53755926D01*
X133563279Y-53747309D01*
X135983178Y-51327411D01*
X136038763Y-51295319D01*
X136102951Y-51295319D01*
X136171308Y-51313635D01*
X136398000Y-51333468D01*
X136624692Y-51313635D01*
X136844496Y-51254739D01*
X137050734Y-51158568D01*
X137237139Y-51028047D01*
X137398047Y-50867139D01*
X137528568Y-50680734D01*
X137555618Y-50622724D01*
X137601375Y-50570549D01*
X137668000Y-50551129D01*
X137734625Y-50570549D01*
X137780382Y-50622725D01*
X137807431Y-50680733D01*
X137937953Y-50867140D01*
X138098859Y-51028046D01*
X138285264Y-51158567D01*
X138285265Y-51158567D01*
X138285266Y-51158568D01*
X138491504Y-51254739D01*
X138711308Y-51313635D01*
X138938000Y-51333468D01*
X139164692Y-51313635D01*
X139384496Y-51254739D01*
X139590734Y-51158568D01*
X139777139Y-51028047D01*
X139938047Y-50867139D01*
X140068568Y-50680734D01*
X140095618Y-50622724D01*
X140141375Y-50570549D01*
X140208000Y-50551129D01*
X140274625Y-50570549D01*
X140320382Y-50622725D01*
X140347431Y-50680733D01*
X140477953Y-50867140D01*
X140502934Y-50892121D01*
X140535028Y-50947708D01*
X140535028Y-51011896D01*
X140502934Y-51067483D01*
X139207208Y-52363208D01*
X139191110Y-52376105D01*
X139143096Y-52427234D01*
X139140391Y-52430026D01*
X139120874Y-52449543D01*
X139118415Y-52452714D01*
X139110842Y-52461581D01*
X139080935Y-52493429D01*
X139071285Y-52510983D01*
X139060609Y-52527237D01*
X139048326Y-52543072D01*
X139030975Y-52583167D01*
X139025838Y-52593653D01*
X138997257Y-52645643D01*
X138993634Y-52643651D01*
X138972355Y-52679429D01*
X138910040Y-52710651D01*
X138840727Y-52703325D01*
X138786316Y-52659769D01*
X138668047Y-52490861D01*
X138668045Y-52490858D01*
X138507140Y-52329953D01*
X138320735Y-52199432D01*
X138114497Y-52103261D01*
X137894689Y-52044364D01*
X137668000Y-52024531D01*
X137441310Y-52044364D01*
X137221502Y-52103261D01*
X137015264Y-52199432D01*
X136828859Y-52329953D01*
X136667953Y-52490859D01*
X136537432Y-52677264D01*
X136441261Y-52883502D01*
X136382364Y-53103310D01*
X136362531Y-53329999D01*
X136382364Y-53556689D01*
X136441261Y-53776497D01*
X136537432Y-53982735D01*
X136667953Y-54169140D01*
X136828859Y-54330046D01*
X137015264Y-54460567D01*
X137015265Y-54460567D01*
X137015266Y-54460568D01*
X137221504Y-54556739D01*
X137441308Y-54615635D01*
X137668000Y-54635468D01*
X137894692Y-54615635D01*
X138114496Y-54556739D01*
X138320734Y-54460568D01*
X138507139Y-54330047D01*
X138668047Y-54169139D01*
X138707326Y-54113041D01*
X138739925Y-54066486D01*
X138787141Y-54026159D01*
X138847989Y-54013779D01*
X138907210Y-54032451D01*
X138949953Y-54077492D01*
X138965500Y-54137609D01*
X138965500Y-54672547D01*
X138956061Y-54720000D01*
X138929181Y-54760228D01*
X129156208Y-64533199D01*
X129140110Y-64546096D01*
X129092096Y-64597225D01*
X129089391Y-64600017D01*
X129069874Y-64619534D01*
X129067415Y-64622705D01*
X129059842Y-64631572D01*
X129029935Y-64663420D01*
X129020285Y-64680974D01*
X129009609Y-64697228D01*
X128987730Y-64725437D01*
X128987726Y-64725434D01*
X128972146Y-64748100D01*
X128932242Y-64774309D01*
X128885393Y-64783500D01*
X128492130Y-64783500D01*
X128432515Y-64789909D01*
X128297669Y-64840204D01*
X128182454Y-64926454D01*
X128096204Y-65041668D01*
X128045909Y-65176516D01*
X128039500Y-65236130D01*
X128039500Y-67331869D01*
X128041212Y-67347792D01*
X128045909Y-67391483D01*
X128096204Y-67526331D01*
X128182454Y-67641546D01*
X128297669Y-67727796D01*
X128432517Y-67778091D01*
X128492127Y-67784500D01*
X130587872Y-67784499D01*
X130647483Y-67778091D01*
X130782331Y-67727796D01*
X130897546Y-67641546D01*
X130983796Y-67526331D01*
X131034091Y-67391483D01*
X131040500Y-67331873D01*
X131040499Y-65236128D01*
X131034091Y-65176517D01*
X130983796Y-65041669D01*
X130897546Y-64926454D01*
X130880562Y-64913740D01*
X130803131Y-64855775D01*
X130761260Y-64799841D01*
X130756276Y-64730150D01*
X130789759Y-64668829D01*
X138753818Y-56704771D01*
X138803182Y-56674521D01*
X138860898Y-56669979D01*
X138914385Y-56692134D01*
X138951985Y-56736157D01*
X138965500Y-56792452D01*
X138965500Y-67108256D01*
X138963235Y-67128762D01*
X138965439Y-67198873D01*
X138965500Y-67202768D01*
X138965500Y-67230349D01*
X138966003Y-67234334D01*
X138966918Y-67245967D01*
X138968290Y-67289626D01*
X138973879Y-67308860D01*
X138977825Y-67327916D01*
X138980335Y-67347792D01*
X138996414Y-67388404D01*
X139000197Y-67399451D01*
X139012382Y-67441391D01*
X139022580Y-67458635D01*
X139031136Y-67476100D01*
X139038514Y-67494732D01*
X139038515Y-67494733D01*
X139064180Y-67530059D01*
X139070593Y-67539822D01*
X139092826Y-67577416D01*
X139092829Y-67577419D01*
X139092830Y-67577420D01*
X139106995Y-67591585D01*
X139119627Y-67606375D01*
X139131406Y-67622587D01*
X139165058Y-67650426D01*
X139173699Y-67658289D01*
X140251228Y-68735819D01*
X140281478Y-68785182D01*
X140286020Y-68842898D01*
X140263865Y-68896385D01*
X140219842Y-68933985D01*
X140163547Y-68947500D01*
X139260130Y-68947500D01*
X139200515Y-68953909D01*
X139065669Y-69004204D01*
X138950454Y-69090454D01*
X138864204Y-69205668D01*
X138820382Y-69323160D01*
X138813909Y-69340517D01*
X138809534Y-69381215D01*
X138807500Y-69400130D01*
X138807500Y-71295869D01*
X138813909Y-71355484D01*
X138820383Y-71372842D01*
X138864204Y-71490331D01*
X138950454Y-71605546D01*
X139065669Y-71691796D01*
X139200517Y-71742091D01*
X139260127Y-71748500D01*
X141155872Y-71748499D01*
X141215483Y-71742091D01*
X141350331Y-71691796D01*
X141465546Y-71605546D01*
X141551796Y-71490331D01*
X141580455Y-71413490D01*
X141616405Y-71362279D01*
X141672787Y-71335140D01*
X141735242Y-71338988D01*
X141787864Y-71372841D01*
X141796216Y-71381913D01*
X141979374Y-71524470D01*
X142183497Y-71634936D01*
X142293257Y-71672616D01*
X142403015Y-71710297D01*
X142403017Y-71710297D01*
X142403019Y-71710298D01*
X142631951Y-71748500D01*
X142864048Y-71748500D01*
X142864049Y-71748500D01*
X143092981Y-71710298D01*
X143312503Y-71634936D01*
X143516626Y-71524470D01*
X143699784Y-71381913D01*
X143856979Y-71211153D01*
X143983924Y-71016849D01*
X144077157Y-70804300D01*
X144134134Y-70579305D01*
X144153300Y-70348000D01*
X144134134Y-70116695D01*
X144077157Y-69891700D01*
X143983924Y-69679151D01*
X143856979Y-69484847D01*
X143699784Y-69314087D01*
X143516626Y-69171530D01*
X143312503Y-69061064D01*
X143312499Y-69061062D01*
X143312498Y-69061062D01*
X143092984Y-68985702D01*
X142902456Y-68953909D01*
X142864049Y-68947500D01*
X142631951Y-68947500D01*
X142593544Y-68953909D01*
X142403017Y-68985702D01*
X142377421Y-68994489D01*
X142309210Y-68998016D01*
X142249479Y-68964888D01*
X140252819Y-66968228D01*
X140225939Y-66928000D01*
X140216500Y-66880547D01*
X140216500Y-58260137D01*
X140229288Y-58205293D01*
X140265013Y-58161761D01*
X140316309Y-58138520D01*
X140372593Y-58140362D01*
X140489099Y-58171579D01*
X140489308Y-58171635D01*
X140716000Y-58191468D01*
X140942692Y-58171635D01*
X141011049Y-58153319D01*
X141075235Y-58153319D01*
X141130823Y-58185413D01*
X149586181Y-66640771D01*
X149613061Y-66680999D01*
X149622500Y-66728452D01*
X149622500Y-69020186D01*
X149605023Y-69083659D01*
X149557518Y-69129240D01*
X149479377Y-69171528D01*
X149479375Y-69171529D01*
X149479374Y-69171530D01*
X149435512Y-69205669D01*
X149296213Y-69314089D01*
X149287863Y-69323160D01*
X149235239Y-69357012D01*
X149172785Y-69360859D01*
X149116405Y-69333720D01*
X149080455Y-69282509D01*
X149051796Y-69205669D01*
X148965546Y-69090454D01*
X148850331Y-69004204D01*
X148715483Y-68953909D01*
X148655873Y-68947500D01*
X148655869Y-68947500D01*
X146760130Y-68947500D01*
X146700515Y-68953909D01*
X146565669Y-69004204D01*
X146450454Y-69090454D01*
X146364204Y-69205668D01*
X146320382Y-69323160D01*
X146313909Y-69340517D01*
X146309534Y-69381215D01*
X146307500Y-69400130D01*
X146307500Y-71295869D01*
X146313909Y-71355484D01*
X146320383Y-71372842D01*
X146364204Y-71490331D01*
X146450454Y-71605546D01*
X146565669Y-71691796D01*
X146700517Y-71742091D01*
X146760127Y-71748500D01*
X148655872Y-71748499D01*
X148715483Y-71742091D01*
X148850331Y-71691796D01*
X148965546Y-71605546D01*
X149051796Y-71490331D01*
X149080455Y-71413490D01*
X149116405Y-71362279D01*
X149172787Y-71335140D01*
X149235242Y-71338988D01*
X149287864Y-71372841D01*
X149296216Y-71381913D01*
X149479374Y-71524470D01*
X149683497Y-71634936D01*
X149793257Y-71672616D01*
X149903015Y-71710297D01*
X149903017Y-71710297D01*
X149903019Y-71710298D01*
X150131951Y-71748500D01*
X150364048Y-71748500D01*
X150364049Y-71748500D01*
X150592981Y-71710298D01*
X150812503Y-71634936D01*
X151016626Y-71524470D01*
X151199784Y-71381913D01*
X151278993Y-71295869D01*
X153807500Y-71295869D01*
X153813909Y-71355484D01*
X153820383Y-71372842D01*
X153864204Y-71490331D01*
X153950454Y-71605546D01*
X154065669Y-71691796D01*
X154200517Y-71742091D01*
X154260127Y-71748500D01*
X156155872Y-71748499D01*
X156215483Y-71742091D01*
X156350331Y-71691796D01*
X156465546Y-71605546D01*
X156551796Y-71490331D01*
X156580455Y-71413490D01*
X156616405Y-71362279D01*
X156672787Y-71335140D01*
X156735242Y-71338988D01*
X156787864Y-71372841D01*
X156796216Y-71381913D01*
X156979374Y-71524470D01*
X157183497Y-71634936D01*
X157293257Y-71672616D01*
X157403015Y-71710297D01*
X157403017Y-71710297D01*
X157403019Y-71710298D01*
X157631951Y-71748500D01*
X157864048Y-71748500D01*
X157864049Y-71748500D01*
X158092981Y-71710298D01*
X158312503Y-71634936D01*
X158516626Y-71524470D01*
X158699784Y-71381913D01*
X158778993Y-71295869D01*
X161307500Y-71295869D01*
X161313909Y-71355484D01*
X161320383Y-71372842D01*
X161364204Y-71490331D01*
X161450454Y-71605546D01*
X161565669Y-71691796D01*
X161700517Y-71742091D01*
X161760127Y-71748500D01*
X163655872Y-71748499D01*
X163715483Y-71742091D01*
X163850331Y-71691796D01*
X163965546Y-71605546D01*
X164051796Y-71490331D01*
X164080455Y-71413490D01*
X164116405Y-71362279D01*
X164172787Y-71335140D01*
X164235242Y-71338988D01*
X164287864Y-71372841D01*
X164296216Y-71381913D01*
X164479374Y-71524470D01*
X164683497Y-71634936D01*
X164793257Y-71672616D01*
X164903015Y-71710297D01*
X164903017Y-71710297D01*
X164903019Y-71710298D01*
X165131951Y-71748500D01*
X165364048Y-71748500D01*
X165364049Y-71748500D01*
X165592981Y-71710298D01*
X165812503Y-71634936D01*
X166016626Y-71524470D01*
X166199784Y-71381913D01*
X166356979Y-71211153D01*
X166483924Y-71016849D01*
X166577157Y-70804300D01*
X166634134Y-70579305D01*
X166653300Y-70348000D01*
X166634134Y-70116695D01*
X166577157Y-69891700D01*
X166483924Y-69679151D01*
X166356979Y-69484847D01*
X166199784Y-69314087D01*
X166016626Y-69171530D01*
X165998284Y-69161604D01*
X165938482Y-69129240D01*
X165890977Y-69083659D01*
X165873500Y-69020186D01*
X165873500Y-58640741D01*
X165875763Y-58620237D01*
X165873561Y-58550145D01*
X165873500Y-58546251D01*
X165873500Y-58518657D01*
X165873500Y-58518650D01*
X165872995Y-58514653D01*
X165872080Y-58503023D01*
X165870709Y-58459373D01*
X165865120Y-58440140D01*
X165861174Y-58421082D01*
X165858664Y-58401206D01*
X165842588Y-58360604D01*
X165838804Y-58349553D01*
X165832881Y-58329168D01*
X165826618Y-58307610D01*
X165816414Y-58290355D01*
X165807861Y-58272895D01*
X165800486Y-58254268D01*
X165774808Y-58218925D01*
X165768401Y-58209171D01*
X165766108Y-58205293D01*
X165746170Y-58171580D01*
X165732005Y-58157415D01*
X165719367Y-58142617D01*
X165707595Y-58126413D01*
X165673941Y-58098573D01*
X165665299Y-58090709D01*
X164875413Y-57300822D01*
X164843319Y-57245234D01*
X164843319Y-57181047D01*
X164846000Y-57171042D01*
X164861635Y-57112692D01*
X164881468Y-56886000D01*
X164861635Y-56659308D01*
X164802739Y-56439504D01*
X164706568Y-56233266D01*
X164576047Y-56046861D01*
X164576046Y-56046859D01*
X164415140Y-55885953D01*
X164228735Y-55755432D01*
X164022497Y-55659261D01*
X163802689Y-55600364D01*
X163576000Y-55580531D01*
X163349310Y-55600364D01*
X163129502Y-55659261D01*
X162923264Y-55755432D01*
X162736859Y-55885953D01*
X162575953Y-56046859D01*
X162445432Y-56233264D01*
X162349261Y-56439502D01*
X162290364Y-56659310D01*
X162270531Y-56886000D01*
X162290364Y-57112689D01*
X162349261Y-57332497D01*
X162445432Y-57538735D01*
X162575953Y-57725140D01*
X162736859Y-57886046D01*
X162923264Y-58016567D01*
X162923265Y-58016567D01*
X162923266Y-58016568D01*
X163129504Y-58112739D01*
X163349308Y-58171635D01*
X163576000Y-58191468D01*
X163802692Y-58171635D01*
X163871048Y-58153319D01*
X163935234Y-58153319D01*
X163990822Y-58185413D01*
X164586181Y-58780772D01*
X164613061Y-58821000D01*
X164622500Y-58868453D01*
X164622500Y-69020186D01*
X164605023Y-69083659D01*
X164557518Y-69129240D01*
X164479377Y-69171528D01*
X164479375Y-69171529D01*
X164479374Y-69171530D01*
X164435512Y-69205669D01*
X164296213Y-69314089D01*
X164287863Y-69323160D01*
X164235239Y-69357012D01*
X164172785Y-69360859D01*
X164116405Y-69333720D01*
X164080455Y-69282509D01*
X164051796Y-69205669D01*
X163965546Y-69090454D01*
X163850331Y-69004204D01*
X163715483Y-68953909D01*
X163655873Y-68947500D01*
X163655869Y-68947500D01*
X161760130Y-68947500D01*
X161700515Y-68953909D01*
X161565669Y-69004204D01*
X161450454Y-69090454D01*
X161364204Y-69205668D01*
X161320382Y-69323160D01*
X161313909Y-69340517D01*
X161309534Y-69381215D01*
X161307500Y-69400130D01*
X161307500Y-71295869D01*
X158778993Y-71295869D01*
X158856979Y-71211153D01*
X158983924Y-71016849D01*
X159077157Y-70804300D01*
X159134134Y-70579305D01*
X159153300Y-70348000D01*
X159134134Y-70116695D01*
X159077157Y-69891700D01*
X158983924Y-69679151D01*
X158856979Y-69484847D01*
X158699784Y-69314087D01*
X158516626Y-69171530D01*
X158498284Y-69161604D01*
X158438482Y-69129240D01*
X158390977Y-69083659D01*
X158373500Y-69020186D01*
X158373500Y-59468452D01*
X158382939Y-59420999D01*
X158409819Y-59380771D01*
X159585297Y-58205293D01*
X163161178Y-54629410D01*
X163216764Y-54597318D01*
X163280947Y-54597318D01*
X163349308Y-54615635D01*
X163576000Y-54635468D01*
X163802692Y-54615635D01*
X164022496Y-54556739D01*
X164228734Y-54460568D01*
X164415139Y-54330047D01*
X164576047Y-54169139D01*
X164706568Y-53982734D01*
X164802739Y-53776496D01*
X164861635Y-53556692D01*
X164881468Y-53330000D01*
X164861635Y-53103308D01*
X164802739Y-52883504D01*
X164706568Y-52677266D01*
X164694315Y-52659767D01*
X164576046Y-52490859D01*
X164415140Y-52329953D01*
X164228735Y-52199432D01*
X164022497Y-52103261D01*
X163802689Y-52044364D01*
X163576000Y-52024531D01*
X163349310Y-52044364D01*
X163129502Y-52103261D01*
X162923264Y-52199432D01*
X162736859Y-52329953D01*
X162575953Y-52490859D01*
X162445432Y-52677264D01*
X162349261Y-52883502D01*
X162290364Y-53103310D01*
X162270531Y-53329999D01*
X162290364Y-53556690D01*
X162308680Y-53625047D01*
X162308680Y-53689234D01*
X162276586Y-53744821D01*
X157364208Y-58657199D01*
X157348110Y-58670096D01*
X157300096Y-58721225D01*
X157297391Y-58724017D01*
X157277874Y-58743534D01*
X157275415Y-58746705D01*
X157267842Y-58755572D01*
X157237935Y-58787420D01*
X157228285Y-58804974D01*
X157217609Y-58821228D01*
X157205326Y-58837063D01*
X157187975Y-58877158D01*
X157182838Y-58887644D01*
X157161802Y-58925907D01*
X157156821Y-58945309D01*
X157150520Y-58963711D01*
X157142561Y-58982102D01*
X157135728Y-59025242D01*
X157133360Y-59036674D01*
X157122500Y-59078978D01*
X157122500Y-59099016D01*
X157120973Y-59118415D01*
X157117840Y-59138194D01*
X157121950Y-59181675D01*
X157122500Y-59193344D01*
X157122500Y-69020186D01*
X157105023Y-69083659D01*
X157057518Y-69129240D01*
X156979377Y-69171528D01*
X156979375Y-69171529D01*
X156979374Y-69171530D01*
X156935512Y-69205669D01*
X156796213Y-69314089D01*
X156787863Y-69323160D01*
X156735239Y-69357012D01*
X156672785Y-69360859D01*
X156616405Y-69333720D01*
X156580455Y-69282509D01*
X156551796Y-69205669D01*
X156465546Y-69090454D01*
X156350331Y-69004204D01*
X156215483Y-68953909D01*
X156155873Y-68947500D01*
X156155869Y-68947500D01*
X154260130Y-68947500D01*
X154200515Y-68953909D01*
X154065669Y-69004204D01*
X153950454Y-69090454D01*
X153864204Y-69205668D01*
X153820382Y-69323160D01*
X153813909Y-69340517D01*
X153809534Y-69381215D01*
X153807500Y-69400130D01*
X153807500Y-71295869D01*
X151278993Y-71295869D01*
X151356979Y-71211153D01*
X151483924Y-71016849D01*
X151577157Y-70804300D01*
X151634134Y-70579305D01*
X151653300Y-70348000D01*
X151634134Y-70116695D01*
X151577157Y-69891700D01*
X151483924Y-69679151D01*
X151356979Y-69484847D01*
X151199784Y-69314087D01*
X151016626Y-69171530D01*
X150998284Y-69161604D01*
X150938482Y-69129240D01*
X150890977Y-69083659D01*
X150873500Y-69020186D01*
X150873500Y-66500744D01*
X150875764Y-66480236D01*
X150873561Y-66410113D01*
X150873500Y-66406219D01*
X150873500Y-66378654D01*
X150873500Y-66378650D01*
X150872997Y-66374670D01*
X150872081Y-66363028D01*
X150870710Y-66319373D01*
X150865118Y-66300126D01*
X150861174Y-66281085D01*
X150858664Y-66261208D01*
X150842579Y-66220583D01*
X150838808Y-66209568D01*
X150826618Y-66167610D01*
X150816414Y-66150355D01*
X150807861Y-66132895D01*
X150800486Y-66114269D01*
X150800486Y-66114268D01*
X150774808Y-66078925D01*
X150768401Y-66069171D01*
X150746169Y-66031579D01*
X150732006Y-66017416D01*
X150719367Y-66002617D01*
X150707595Y-65986413D01*
X150673941Y-65958573D01*
X150665299Y-65950709D01*
X142015413Y-57300822D01*
X141983319Y-57245234D01*
X141983319Y-57181047D01*
X141986000Y-57171042D01*
X142001635Y-57112692D01*
X142021468Y-56886000D01*
X142001635Y-56659308D01*
X141942739Y-56439504D01*
X141846568Y-56233266D01*
X141716047Y-56046861D01*
X141716046Y-56046859D01*
X141555140Y-55885953D01*
X141368735Y-55755432D01*
X141350021Y-55746706D01*
X141336211Y-55740266D01*
X141287706Y-55699947D01*
X141265310Y-55640980D01*
X141274822Y-55578624D01*
X141276025Y-55575845D01*
X141281160Y-55565365D01*
X141289597Y-55550019D01*
X141302197Y-55527101D01*
X141307179Y-55507693D01*
X141313481Y-55489289D01*
X141321437Y-55470905D01*
X141328269Y-55427761D01*
X141330633Y-55416347D01*
X141341500Y-55374028D01*
X141341500Y-55353993D01*
X141343027Y-55334594D01*
X141343068Y-55334330D01*
X141346160Y-55314813D01*
X141342050Y-55271334D01*
X141341500Y-55259665D01*
X141341500Y-54544188D01*
X141355511Y-54486931D01*
X141394377Y-54442613D01*
X141555140Y-54330046D01*
X141716046Y-54169140D01*
X141787924Y-54066486D01*
X141846568Y-53982734D01*
X141942739Y-53776496D01*
X142001635Y-53556692D01*
X142021468Y-53330000D01*
X142001635Y-53103308D01*
X141942739Y-52883504D01*
X141846568Y-52677266D01*
X141834315Y-52659767D01*
X141716046Y-52490859D01*
X141555140Y-52329953D01*
X141359848Y-52193210D01*
X141360951Y-52191634D01*
X141327375Y-52164681D01*
X141303639Y-52110727D01*
X141307498Y-52051910D01*
X141338076Y-52001523D01*
X141369783Y-51969816D01*
X141410011Y-51942938D01*
X141457462Y-51933500D01*
X142655256Y-51933500D01*
X142675762Y-51935764D01*
X142678665Y-51935672D01*
X142678667Y-51935673D01*
X142745872Y-51933561D01*
X142749768Y-51933500D01*
X142777349Y-51933500D01*
X142777350Y-51933500D01*
X142781319Y-51932998D01*
X142792965Y-51932080D01*
X142836627Y-51930709D01*
X142855859Y-51925120D01*
X142874918Y-51921174D01*
X142881196Y-51920381D01*
X142894792Y-51918664D01*
X142935407Y-51902582D01*
X142946444Y-51898803D01*
X142988390Y-51886618D01*
X143005629Y-51876422D01*
X143023102Y-51867862D01*
X143041732Y-51860486D01*
X143077064Y-51834814D01*
X143086830Y-51828400D01*
X143088622Y-51827340D01*
X143124420Y-51806170D01*
X143138585Y-51792004D01*
X143153373Y-51779373D01*
X143169587Y-51767594D01*
X143197438Y-51733926D01*
X143205279Y-51725309D01*
X143603178Y-51327411D01*
X143658763Y-51295319D01*
X143722951Y-51295319D01*
X143791308Y-51313635D01*
X144018000Y-51333468D01*
X144244692Y-51313635D01*
X144464496Y-51254739D01*
X144670734Y-51158568D01*
X144857139Y-51028047D01*
X145018047Y-50867139D01*
X145148568Y-50680734D01*
X145175618Y-50622724D01*
X145221375Y-50570549D01*
X145288000Y-50551129D01*
X145354625Y-50570549D01*
X145400382Y-50622725D01*
X145427431Y-50680733D01*
X145557953Y-50867140D01*
X145718859Y-51028046D01*
X145905264Y-51158567D01*
X145905265Y-51158567D01*
X145905266Y-51158568D01*
X146111504Y-51254739D01*
X146331308Y-51313635D01*
X146558000Y-51333468D01*
X146784692Y-51313635D01*
X147004496Y-51254739D01*
X147210734Y-51158568D01*
X147397139Y-51028047D01*
X147558047Y-50867139D01*
X147688568Y-50680734D01*
X147715618Y-50622724D01*
X147761375Y-50570549D01*
X147828000Y-50551129D01*
X147894625Y-50570549D01*
X147940382Y-50622725D01*
X147967431Y-50680733D01*
X148097953Y-50867140D01*
X148258859Y-51028046D01*
X148445264Y-51158567D01*
X148445265Y-51158567D01*
X148445266Y-51158568D01*
X148651504Y-51254739D01*
X148871308Y-51313635D01*
X149098000Y-51333468D01*
X149324692Y-51313635D01*
X149544496Y-51254739D01*
X149750734Y-51158568D01*
X149937139Y-51028047D01*
X150098047Y-50867139D01*
X150228568Y-50680734D01*
X150255618Y-50622724D01*
X150301375Y-50570549D01*
X150368000Y-50551129D01*
X150434625Y-50570549D01*
X150480382Y-50622725D01*
X150507431Y-50680733D01*
X150637953Y-50867140D01*
X150798859Y-51028046D01*
X150985264Y-51158567D01*
X150985265Y-51158567D01*
X150985266Y-51158568D01*
X151191504Y-51254739D01*
X151411308Y-51313635D01*
X151562436Y-51326857D01*
X151637999Y-51333468D01*
X151637999Y-51333467D01*
X151638000Y-51333468D01*
X151653193Y-51332138D01*
X151682099Y-51329610D01*
X151741357Y-51338995D01*
X151789273Y-51375102D01*
X151814629Y-51429477D01*
X151811489Y-51489392D01*
X151780588Y-51540819D01*
X151290821Y-52030586D01*
X151235234Y-52062680D01*
X151171047Y-52062680D01*
X151102690Y-52044364D01*
X150875999Y-52024531D01*
X150649310Y-52044364D01*
X150429502Y-52103261D01*
X150223264Y-52199432D01*
X150036859Y-52329953D01*
X149875953Y-52490859D01*
X149745432Y-52677264D01*
X149649261Y-52883502D01*
X149590364Y-53103310D01*
X149570531Y-53329999D01*
X149590364Y-53556689D01*
X149649261Y-53776497D01*
X149745432Y-53982735D01*
X149875953Y-54169140D01*
X150036859Y-54330046D01*
X150223264Y-54460567D01*
X150223265Y-54460567D01*
X150223266Y-54460568D01*
X150429504Y-54556739D01*
X150649308Y-54615635D01*
X150876000Y-54635468D01*
X151102692Y-54615635D01*
X151322496Y-54556739D01*
X151489095Y-54479051D01*
X151549610Y-54467699D01*
X151608125Y-54486853D01*
X151650214Y-54531791D01*
X151665500Y-54591434D01*
X151665500Y-55160547D01*
X151656061Y-55208000D01*
X151629183Y-55248225D01*
X151369712Y-55507696D01*
X151290821Y-55586587D01*
X151235234Y-55618680D01*
X151171047Y-55618680D01*
X151102690Y-55600364D01*
X150875999Y-55580531D01*
X150649310Y-55600364D01*
X150429502Y-55659261D01*
X150223264Y-55755432D01*
X150036859Y-55885953D01*
X149875953Y-56046859D01*
X149745432Y-56233264D01*
X149649261Y-56439502D01*
X149590364Y-56659310D01*
X149570531Y-56886000D01*
X149590364Y-57112689D01*
X149649261Y-57332497D01*
X149745432Y-57538735D01*
X149875953Y-57725140D01*
X150036859Y-57886046D01*
X150223264Y-58016567D01*
X150223265Y-58016567D01*
X150223266Y-58016568D01*
X150429504Y-58112739D01*
X150649308Y-58171635D01*
X150876000Y-58191468D01*
X151102692Y-58171635D01*
X151322496Y-58112739D01*
X151528734Y-58016568D01*
X151715139Y-57886047D01*
X151876047Y-57725139D01*
X152006568Y-57538734D01*
X152033618Y-57480724D01*
X152079375Y-57428549D01*
X152146000Y-57409129D01*
X152212625Y-57428549D01*
X152258382Y-57480725D01*
X152285431Y-57538733D01*
X152415953Y-57725140D01*
X152576859Y-57886046D01*
X152763264Y-58016567D01*
X152763265Y-58016567D01*
X152763266Y-58016568D01*
X152969504Y-58112739D01*
X153189308Y-58171635D01*
X153416000Y-58191468D01*
X153642692Y-58171635D01*
X153862496Y-58112739D01*
X154068734Y-58016568D01*
X154255139Y-57886047D01*
X154416047Y-57725139D01*
X154528612Y-57564377D01*
X154572931Y-57525511D01*
X154630188Y-57511500D01*
X154857256Y-57511500D01*
X154877762Y-57513764D01*
X154880665Y-57513672D01*
X154880667Y-57513673D01*
X154947872Y-57511561D01*
X154951768Y-57511500D01*
X154979349Y-57511500D01*
X154979350Y-57511500D01*
X154983319Y-57510998D01*
X154994965Y-57510080D01*
X155038627Y-57508709D01*
X155057859Y-57503120D01*
X155076918Y-57499174D01*
X155083196Y-57498381D01*
X155096792Y-57496664D01*
X155137407Y-57480582D01*
X155148444Y-57476803D01*
X155190390Y-57464618D01*
X155207629Y-57454422D01*
X155225102Y-57445862D01*
X155243732Y-57438486D01*
X155279064Y-57412814D01*
X155288830Y-57406400D01*
X155326418Y-57384171D01*
X155326417Y-57384171D01*
X155326420Y-57384170D01*
X155340585Y-57370004D01*
X155355373Y-57357373D01*
X155371587Y-57345594D01*
X155399438Y-57311926D01*
X155407279Y-57303309D01*
X161383178Y-51327410D01*
X161438764Y-51295318D01*
X161502947Y-51295318D01*
X161571308Y-51313635D01*
X161798000Y-51333468D01*
X162024692Y-51313635D01*
X162244496Y-51254739D01*
X162450734Y-51158568D01*
X162637139Y-51028047D01*
X162798047Y-50867139D01*
X162928568Y-50680734D01*
X163024739Y-50474496D01*
X163083635Y-50254692D01*
X163103468Y-50028000D01*
X163083635Y-49801308D01*
X163024739Y-49581504D01*
X162928568Y-49375266D01*
X162842677Y-49252600D01*
X162798046Y-49188859D01*
X162637140Y-49027953D01*
X162450735Y-48897432D01*
X162244497Y-48801261D01*
X162024689Y-48742364D01*
X161798000Y-48722531D01*
X161571310Y-48742364D01*
X161351502Y-48801261D01*
X161145264Y-48897432D01*
X160958859Y-49027953D01*
X160797953Y-49188859D01*
X160667433Y-49375263D01*
X160640382Y-49433275D01*
X160594625Y-49485450D01*
X160528000Y-49504869D01*
X160461375Y-49485450D01*
X160415618Y-49433275D01*
X160388568Y-49375266D01*
X160302677Y-49252600D01*
X160258046Y-49188859D01*
X160097140Y-49027953D01*
X159910735Y-48897432D01*
X159704497Y-48801261D01*
X159484689Y-48742364D01*
X159258000Y-48722531D01*
X159031310Y-48742364D01*
X158811502Y-48801261D01*
X158605264Y-48897432D01*
X158418859Y-49027953D01*
X158257953Y-49188859D01*
X158127433Y-49375263D01*
X158100382Y-49433275D01*
X158054625Y-49485450D01*
X157988000Y-49504869D01*
X157921375Y-49485450D01*
X157875618Y-49433275D01*
X157848568Y-49375266D01*
X157762677Y-49252600D01*
X157718046Y-49188859D01*
X157557140Y-49027953D01*
X157370735Y-48897432D01*
X157164497Y-48801261D01*
X156944689Y-48742364D01*
X156718000Y-48722531D01*
X156491310Y-48742364D01*
X156271502Y-48801261D01*
X156065264Y-48897432D01*
X155878859Y-49027953D01*
X155717953Y-49188859D01*
X155587433Y-49375263D01*
X155560382Y-49433275D01*
X155514625Y-49485450D01*
X155448000Y-49504869D01*
X155381375Y-49485450D01*
X155335618Y-49433275D01*
X155308568Y-49375266D01*
X155222677Y-49252600D01*
X155178046Y-49188859D01*
X155017140Y-49027953D01*
X154830735Y-48897432D01*
X154624497Y-48801261D01*
X154404689Y-48742364D01*
X154178000Y-48722531D01*
X153951310Y-48742364D01*
X153731502Y-48801261D01*
X153525264Y-48897432D01*
X153338859Y-49027953D01*
X153177953Y-49188859D01*
X153047433Y-49375263D01*
X153020382Y-49433275D01*
X152974625Y-49485450D01*
X152908000Y-49504869D01*
X152841375Y-49485450D01*
X152795618Y-49433275D01*
X152768568Y-49375266D01*
X152682677Y-49252600D01*
X152638046Y-49188859D01*
X152477140Y-49027953D01*
X152290735Y-48897432D01*
X152084497Y-48801261D01*
X151864689Y-48742364D01*
X151638000Y-48722531D01*
X151411310Y-48742364D01*
X151191502Y-48801261D01*
X150985264Y-48897432D01*
X150798859Y-49027953D01*
X150637953Y-49188859D01*
X150507433Y-49375263D01*
X150480382Y-49433275D01*
X150434625Y-49485450D01*
X150368000Y-49504869D01*
X150301375Y-49485450D01*
X150255618Y-49433275D01*
X150228568Y-49375266D01*
X150142677Y-49252600D01*
X150098046Y-49188859D01*
X149937140Y-49027953D01*
X149750735Y-48897432D01*
X149544497Y-48801261D01*
X149324689Y-48742364D01*
X149098000Y-48722531D01*
X148871310Y-48742364D01*
X148651502Y-48801261D01*
X148445264Y-48897432D01*
X148258859Y-49027953D01*
X148097953Y-49188859D01*
X147967433Y-49375263D01*
X147940382Y-49433275D01*
X147894625Y-49485450D01*
X147828000Y-49504869D01*
X147761375Y-49485450D01*
X147715618Y-49433275D01*
X147688568Y-49375266D01*
X147602677Y-49252600D01*
X147558046Y-49188859D01*
X147397140Y-49027953D01*
X147210735Y-48897432D01*
X147004497Y-48801261D01*
X146784689Y-48742364D01*
X146558000Y-48722531D01*
X146331310Y-48742364D01*
X146111502Y-48801261D01*
X145905264Y-48897432D01*
X145718859Y-49027953D01*
X145557953Y-49188859D01*
X145427433Y-49375263D01*
X145400382Y-49433275D01*
X145354625Y-49485450D01*
X145288000Y-49504869D01*
X145221375Y-49485450D01*
X145175618Y-49433275D01*
X145148568Y-49375266D01*
X145062677Y-49252600D01*
X145018046Y-49188859D01*
X144857140Y-49027953D01*
X144670735Y-48897432D01*
X144464497Y-48801261D01*
X144244689Y-48742364D01*
X144018000Y-48722531D01*
X143791310Y-48742364D01*
X143571502Y-48801261D01*
X143365264Y-48897432D01*
X143178859Y-49027953D01*
X143017953Y-49188859D01*
X142887433Y-49375263D01*
X142860382Y-49433275D01*
X142814625Y-49485450D01*
X142748000Y-49504869D01*
X142681375Y-49485450D01*
X142635618Y-49433275D01*
X142608568Y-49375266D01*
X142522677Y-49252600D01*
X142478046Y-49188859D01*
X142317140Y-49027953D01*
X142130735Y-48897432D01*
X141924497Y-48801261D01*
X141704689Y-48742364D01*
X141478000Y-48722531D01*
X141251310Y-48742364D01*
X141031502Y-48801261D01*
X140825264Y-48897432D01*
X140638859Y-49027953D01*
X140477953Y-49188859D01*
X140347433Y-49375263D01*
X140320382Y-49433275D01*
X140274625Y-49485450D01*
X140208000Y-49504869D01*
X140141375Y-49485450D01*
X140095618Y-49433275D01*
X140068568Y-49375266D01*
X139982677Y-49252600D01*
X139938046Y-49188859D01*
X139777140Y-49027953D01*
X139590735Y-48897432D01*
X139384497Y-48801261D01*
X139164689Y-48742364D01*
X138938000Y-48722531D01*
X138711310Y-48742364D01*
X138491502Y-48801261D01*
X138285264Y-48897432D01*
X138098859Y-49027953D01*
X137937953Y-49188859D01*
X137807433Y-49375263D01*
X137780382Y-49433275D01*
X137734625Y-49485450D01*
X137668000Y-49504869D01*
X137601375Y-49485450D01*
X137555618Y-49433275D01*
X137528568Y-49375266D01*
X137442677Y-49252600D01*
X137398046Y-49188859D01*
X137237140Y-49027953D01*
X137050735Y-48897432D01*
X136844497Y-48801261D01*
X136624689Y-48742364D01*
X136398000Y-48722531D01*
X136171310Y-48742364D01*
X135951502Y-48801261D01*
X135745264Y-48897432D01*
X135558859Y-49027953D01*
X135397953Y-49188859D01*
X135267433Y-49375263D01*
X135240382Y-49433275D01*
X135194625Y-49485450D01*
X135128000Y-49504869D01*
X135061375Y-49485450D01*
X135015618Y-49433275D01*
X134988568Y-49375266D01*
X134902677Y-49252600D01*
X134858046Y-49188859D01*
X134697140Y-49027953D01*
X134510735Y-48897432D01*
X134304497Y-48801261D01*
X134084689Y-48742364D01*
X133858000Y-48722531D01*
X133631310Y-48742364D01*
X133411502Y-48801261D01*
X133205264Y-48897432D01*
X133018859Y-49027953D01*
X132857953Y-49188859D01*
X132727433Y-49375263D01*
X132700382Y-49433275D01*
X132654625Y-49485450D01*
X132588000Y-49504869D01*
X132521375Y-49485450D01*
X132475618Y-49433275D01*
X132448568Y-49375266D01*
X132362677Y-49252600D01*
X132318046Y-49188859D01*
X132157140Y-49027953D01*
X131970735Y-48897432D01*
X131764497Y-48801261D01*
X131544689Y-48742364D01*
X131318000Y-48722531D01*
X131091310Y-48742364D01*
X130871502Y-48801261D01*
X130665264Y-48897432D01*
X130478859Y-49027953D01*
X130317953Y-49188859D01*
X130187433Y-49375263D01*
X130160382Y-49433275D01*
X130114625Y-49485450D01*
X130048000Y-49504869D01*
X129981375Y-49485450D01*
X129935618Y-49433275D01*
X129908568Y-49375266D01*
X129822677Y-49252600D01*
X129778046Y-49188859D01*
X129617140Y-49027953D01*
X129430735Y-48897432D01*
X129224497Y-48801261D01*
X129004689Y-48742364D01*
X128778000Y-48722531D01*
X128551310Y-48742364D01*
X128331502Y-48801261D01*
X128125264Y-48897432D01*
X127938859Y-49027953D01*
X127777951Y-49188861D01*
X127760725Y-49213463D01*
X127715882Y-49252600D01*
X127657969Y-49266333D01*
X127600328Y-49251499D01*
X127556239Y-49211514D01*
X127535861Y-49155592D01*
X127532091Y-49120517D01*
X127481796Y-48985669D01*
X127395546Y-48870454D01*
X127280331Y-48784204D01*
X127145483Y-48733909D01*
X127085873Y-48727500D01*
X127085869Y-48727500D01*
X125390130Y-48727500D01*
X125330515Y-48733909D01*
X125195669Y-48784204D01*
X125080454Y-48870454D01*
X124994204Y-48985668D01*
X124943909Y-49120516D01*
X124937500Y-49180130D01*
X124937500Y-50875869D01*
X124943909Y-50935484D01*
X124960439Y-50979802D01*
X124994204Y-51070331D01*
X125080454Y-51185546D01*
X125195669Y-51271796D01*
X125330517Y-51322091D01*
X125390127Y-51328500D01*
X127085872Y-51328499D01*
X127145483Y-51322091D01*
X127280331Y-51271796D01*
X127395546Y-51185546D01*
X127481796Y-51070331D01*
X127532091Y-50935483D01*
X127535862Y-50900405D01*
X127556239Y-50844486D01*
X127600328Y-50804501D01*
X127657969Y-50789667D01*
X127715882Y-50803400D01*
X127760725Y-50842537D01*
X127777951Y-50867138D01*
X127938859Y-51028046D01*
X128125264Y-51158567D01*
X128125265Y-51158567D01*
X128125266Y-51158568D01*
X128331504Y-51254739D01*
X128551308Y-51313635D01*
X128778000Y-51333468D01*
X129004692Y-51313635D01*
X129224496Y-51254739D01*
X129430734Y-51158568D01*
X129617139Y-51028047D01*
X129778047Y-50867139D01*
X129908568Y-50680734D01*
X129935618Y-50622724D01*
X129981375Y-50570549D01*
X130048000Y-50551129D01*
X130114625Y-50570549D01*
X130160382Y-50622725D01*
X130187431Y-50680733D01*
X130317953Y-50867140D01*
X130478859Y-51028046D01*
X130665264Y-51158567D01*
X130665265Y-51158567D01*
X130665266Y-51158568D01*
X130871504Y-51254739D01*
X131091308Y-51313635D01*
X131318000Y-51333468D01*
X131544692Y-51313635D01*
X131764496Y-51254739D01*
X131970734Y-51158568D01*
X132157139Y-51028047D01*
X132318047Y-50867139D01*
X132448568Y-50680734D01*
X132475618Y-50622724D01*
X132521375Y-50570549D01*
X132588000Y-50551129D01*
X132654625Y-50570549D01*
X132700382Y-50622725D01*
X132727431Y-50680733D01*
X132857953Y-50867140D01*
X133018859Y-51028046D01*
X133205264Y-51158567D01*
X133205265Y-51158567D01*
X133205266Y-51158568D01*
X133411504Y-51254739D01*
X133631308Y-51313635D01*
X133782436Y-51326857D01*
X133857999Y-51333468D01*
X133857999Y-51333467D01*
X133858000Y-51333468D01*
X133869299Y-51332479D01*
X133902100Y-51329610D01*
X133961358Y-51338995D01*
X134009274Y-51375102D01*
X134034630Y-51429478D01*
X134031490Y-51489392D01*
X134000589Y-51540819D01*
X132873228Y-52668181D01*
X132833000Y-52695061D01*
X132785547Y-52704500D01*
X128722188Y-52704500D01*
X128664931Y-52690489D01*
X128620613Y-52651623D01*
X128508046Y-52490859D01*
X128347140Y-52329953D01*
X128160735Y-52199432D01*
X127954497Y-52103261D01*
X127734689Y-52044364D01*
X127508000Y-52024531D01*
X127281310Y-52044364D01*
X127061502Y-52103261D01*
X126855264Y-52199432D01*
X126668859Y-52329953D01*
X126507953Y-52490859D01*
X126377432Y-52677264D01*
X126281261Y-52883502D01*
X126222364Y-53103310D01*
X126202531Y-53329999D01*
X126222364Y-53556690D01*
X126240680Y-53625047D01*
X126240680Y-53689234D01*
X126208586Y-53744821D01*
X120484208Y-59469199D01*
X120468110Y-59482096D01*
X120420096Y-59533225D01*
X120417391Y-59536017D01*
X120397874Y-59555534D01*
X120395415Y-59558705D01*
X120387842Y-59567572D01*
X120357935Y-59599420D01*
X120348285Y-59616974D01*
X120337609Y-59633228D01*
X120325326Y-59649063D01*
X120307975Y-59689158D01*
X120302838Y-59699644D01*
X120281802Y-59737907D01*
X120276821Y-59757309D01*
X120270520Y-59775711D01*
X120262561Y-59794102D01*
X120255728Y-59837242D01*
X120253360Y-59848674D01*
X120242500Y-59890978D01*
X120242500Y-59911016D01*
X120240973Y-59930415D01*
X120237840Y-59950194D01*
X120241950Y-59993675D01*
X120242500Y-60005344D01*
X120242500Y-62364481D01*
X120225023Y-62427955D01*
X120177519Y-62473534D01*
X120086401Y-62522845D01*
X120044485Y-62545529D01*
X119848259Y-62698259D01*
X119679837Y-62881214D01*
X119543825Y-63089395D01*
X119443938Y-63317117D01*
X119382891Y-63558183D01*
X119362356Y-63805999D01*
X117873141Y-63805999D01*
X117852613Y-63558267D01*
X117791586Y-63317278D01*
X117691730Y-63089630D01*
X117591434Y-62936116D01*
X116721553Y-63806000D01*
X116721553Y-63806001D01*
X116014447Y-63806001D01*
X116014447Y-63806000D01*
X115144564Y-62936116D01*
X115044266Y-63089634D01*
X114944413Y-63317278D01*
X114883386Y-63558267D01*
X114862858Y-63806000D01*
X113500500Y-63806000D01*
X113500500Y-62582390D01*
X115497942Y-62582390D01*
X116368000Y-63452447D01*
X116368001Y-63452447D01*
X117238057Y-62582390D01*
X117238056Y-62582388D01*
X117191235Y-62545947D01*
X116972606Y-62427631D01*
X116737493Y-62346916D01*
X116492293Y-62306000D01*
X116243707Y-62306000D01*
X115998506Y-62346916D01*
X115763393Y-62427631D01*
X115544764Y-62545946D01*
X115497942Y-62582388D01*
X115497942Y-62582390D01*
X113500500Y-62582390D01*
X113500500Y-45212000D01*
X115039179Y-45212000D01*
X115058820Y-45436493D01*
X115117148Y-45654173D01*
X115212382Y-45858406D01*
X115212385Y-45858410D01*
X115341642Y-46043009D01*
X115500991Y-46202358D01*
X115685590Y-46331615D01*
X115685593Y-46331617D01*
X115852418Y-46409407D01*
X115889830Y-46426853D01*
X116107504Y-46485179D01*
X116332000Y-46504820D01*
X116556496Y-46485179D01*
X116774170Y-46426853D01*
X116978410Y-46331615D01*
X117163009Y-46202358D01*
X117322358Y-46043009D01*
X117429232Y-45890375D01*
X117473550Y-45851511D01*
X117530807Y-45837500D01*
X118927812Y-45837500D01*
X118985069Y-45851511D01*
X119029387Y-45890377D01*
X119141953Y-46051140D01*
X119302859Y-46212046D01*
X119489264Y-46342567D01*
X119489265Y-46342567D01*
X119489266Y-46342568D01*
X119695504Y-46438739D01*
X119915308Y-46497635D01*
X120142000Y-46517468D01*
X120368692Y-46497635D01*
X120588496Y-46438739D01*
X120794734Y-46342568D01*
X120981139Y-46212047D01*
X121142047Y-46051139D01*
X121272568Y-45864734D01*
X121368739Y-45658496D01*
X121427635Y-45438692D01*
X121447468Y-45212000D01*
X121427635Y-44985308D01*
X121368739Y-44765504D01*
X121272568Y-44559266D01*
X121254613Y-44533624D01*
X121142046Y-44372859D01*
X120981140Y-44211953D01*
X120794735Y-44081432D01*
X120588497Y-43985261D01*
X120368689Y-43926364D01*
X120142000Y-43906531D01*
X119915310Y-43926364D01*
X119695502Y-43985261D01*
X119489264Y-44081432D01*
X119302859Y-44211953D01*
X119141953Y-44372859D01*
X119029387Y-44533623D01*
X118985069Y-44572489D01*
X118927812Y-44586500D01*
X117530807Y-44586500D01*
X117473550Y-44572489D01*
X117429232Y-44533624D01*
X117322358Y-44380991D01*
X117163009Y-44221642D01*
X116978410Y-44092385D01*
X116978409Y-44092384D01*
X116978407Y-44092383D01*
X116896912Y-44054381D01*
X116844736Y-44008624D01*
X116825317Y-43941998D01*
X116844737Y-43875372D01*
X116896911Y-43829618D01*
X116978410Y-43791615D01*
X117163009Y-43662358D01*
X117322358Y-43503009D01*
X117429232Y-43350375D01*
X117473550Y-43311511D01*
X117530807Y-43297500D01*
X120811256Y-43297500D01*
X120831762Y-43299764D01*
X120834665Y-43299672D01*
X120834667Y-43299673D01*
X120901872Y-43297561D01*
X120905768Y-43297500D01*
X120933349Y-43297500D01*
X120933350Y-43297500D01*
X120937319Y-43296998D01*
X120948965Y-43296080D01*
X120992627Y-43294709D01*
X121011859Y-43289120D01*
X121030918Y-43285174D01*
X121037196Y-43284381D01*
X121050792Y-43282664D01*
X121091407Y-43266582D01*
X121102444Y-43262803D01*
X121144390Y-43250618D01*
X121161629Y-43240422D01*
X121179102Y-43231862D01*
X121197732Y-43224486D01*
X121233064Y-43198814D01*
X121242830Y-43192400D01*
X121280418Y-43170171D01*
X121280417Y-43170171D01*
X121280420Y-43170170D01*
X121294585Y-43156004D01*
X121309373Y-43143373D01*
X121325587Y-43131594D01*
X121353438Y-43097926D01*
X121361279Y-43089309D01*
X128363178Y-36087410D01*
X128418764Y-36055318D01*
X128482947Y-36055318D01*
X128551308Y-36073635D01*
X128778000Y-36093468D01*
X129004692Y-36073635D01*
X129224496Y-36014739D01*
X129430734Y-35918568D01*
X129617139Y-35788047D01*
X129778047Y-35627139D01*
X129908568Y-35440734D01*
X129935619Y-35382721D01*
X129981373Y-35330550D01*
X130047997Y-35311130D01*
X130114623Y-35330549D01*
X130160380Y-35382724D01*
X130187430Y-35440732D01*
X130317953Y-35627140D01*
X130478859Y-35788046D01*
X130665264Y-35918567D01*
X130665265Y-35918567D01*
X130665266Y-35918568D01*
X130871504Y-36014739D01*
X131091308Y-36073635D01*
X131318000Y-36093468D01*
X131544692Y-36073635D01*
X131764496Y-36014739D01*
X131970734Y-35918568D01*
X132157139Y-35788047D01*
X132318047Y-35627139D01*
X132448568Y-35440734D01*
X132475893Y-35382134D01*
X132521649Y-35329959D01*
X132588274Y-35310539D01*
X132654899Y-35329958D01*
X132700657Y-35382133D01*
X132727866Y-35440482D01*
X132858341Y-35626819D01*
X133019180Y-35787658D01*
X133205519Y-35918134D01*
X133411673Y-36014266D01*
X133607999Y-36066871D01*
X133608000Y-36066872D01*
X133608000Y-36066871D01*
X134108000Y-36066871D01*
X134304326Y-36014266D01*
X134510480Y-35918134D01*
X134696819Y-35787658D01*
X134857658Y-35626819D01*
X134988135Y-35440479D01*
X135015342Y-35382135D01*
X135061098Y-35329959D01*
X135127723Y-35310539D01*
X135194348Y-35329958D01*
X135240105Y-35382132D01*
X135267431Y-35440732D01*
X135267433Y-35440736D01*
X135397953Y-35627140D01*
X135558859Y-35788046D01*
X135745264Y-35918567D01*
X135745265Y-35918567D01*
X135745266Y-35918568D01*
X135951504Y-36014739D01*
X136171308Y-36073635D01*
X136398000Y-36093468D01*
X136624692Y-36073635D01*
X136844496Y-36014739D01*
X137050734Y-35918568D01*
X137237139Y-35788047D01*
X137398047Y-35627139D01*
X137528568Y-35440734D01*
X137555618Y-35382724D01*
X137601375Y-35330549D01*
X137668000Y-35311129D01*
X137734625Y-35330549D01*
X137780382Y-35382725D01*
X137807431Y-35440733D01*
X137937953Y-35627140D01*
X138098859Y-35788046D01*
X138285264Y-35918567D01*
X138285265Y-35918567D01*
X138285266Y-35918568D01*
X138491504Y-36014739D01*
X138711308Y-36073635D01*
X138938000Y-36093468D01*
X139164692Y-36073635D01*
X139384496Y-36014739D01*
X139590734Y-35918568D01*
X139777139Y-35788047D01*
X139938047Y-35627139D01*
X140068568Y-35440734D01*
X140095618Y-35382724D01*
X140141375Y-35330549D01*
X140208000Y-35311129D01*
X140274625Y-35330549D01*
X140320382Y-35382725D01*
X140347431Y-35440733D01*
X140477953Y-35627140D01*
X140638859Y-35788046D01*
X140825264Y-35918567D01*
X140825265Y-35918567D01*
X140825266Y-35918568D01*
X141031504Y-36014739D01*
X141251308Y-36073635D01*
X141478000Y-36093468D01*
X141704692Y-36073635D01*
X141924496Y-36014739D01*
X142130734Y-35918568D01*
X142317139Y-35788047D01*
X142478047Y-35627139D01*
X142608568Y-35440734D01*
X142635618Y-35382724D01*
X142681375Y-35330549D01*
X142748000Y-35311129D01*
X142814625Y-35330549D01*
X142860382Y-35382725D01*
X142887431Y-35440733D01*
X143017953Y-35627140D01*
X143178859Y-35788046D01*
X143365264Y-35918567D01*
X143365265Y-35918567D01*
X143365266Y-35918568D01*
X143571504Y-36014739D01*
X143791308Y-36073635D01*
X144018000Y-36093468D01*
X144244692Y-36073635D01*
X144464496Y-36014739D01*
X144670734Y-35918568D01*
X144857139Y-35788047D01*
X145018047Y-35627139D01*
X145148568Y-35440734D01*
X145175618Y-35382724D01*
X145221375Y-35330549D01*
X145288000Y-35311129D01*
X145354625Y-35330549D01*
X145400382Y-35382725D01*
X145427431Y-35440733D01*
X145557953Y-35627140D01*
X145718859Y-35788046D01*
X145905264Y-35918567D01*
X145905265Y-35918567D01*
X145905266Y-35918568D01*
X146111504Y-36014739D01*
X146331308Y-36073635D01*
X146558000Y-36093468D01*
X146784692Y-36073635D01*
X147004496Y-36014739D01*
X147210734Y-35918568D01*
X147397139Y-35788047D01*
X147558047Y-35627139D01*
X147688568Y-35440734D01*
X147715618Y-35382724D01*
X147761375Y-35330549D01*
X147828000Y-35311129D01*
X147894625Y-35330549D01*
X147940382Y-35382725D01*
X147967431Y-35440733D01*
X148097953Y-35627140D01*
X148258859Y-35788046D01*
X148445264Y-35918567D01*
X148445265Y-35918567D01*
X148445266Y-35918568D01*
X148651504Y-36014739D01*
X148871308Y-36073635D01*
X149098000Y-36093468D01*
X149324692Y-36073635D01*
X149544496Y-36014739D01*
X149750734Y-35918568D01*
X149937139Y-35788047D01*
X150098047Y-35627139D01*
X150228568Y-35440734D01*
X150255618Y-35382724D01*
X150301375Y-35330549D01*
X150368000Y-35311129D01*
X150434625Y-35330549D01*
X150480382Y-35382725D01*
X150507431Y-35440733D01*
X150637953Y-35627140D01*
X150798859Y-35788046D01*
X150985264Y-35918567D01*
X150985265Y-35918567D01*
X150985266Y-35918568D01*
X151191504Y-36014739D01*
X151411308Y-36073635D01*
X151638000Y-36093468D01*
X151864692Y-36073635D01*
X152084496Y-36014739D01*
X152290734Y-35918568D01*
X152477139Y-35788047D01*
X152638047Y-35627139D01*
X152768568Y-35440734D01*
X152795618Y-35382724D01*
X152841375Y-35330549D01*
X152908000Y-35311129D01*
X152974625Y-35330549D01*
X153020382Y-35382725D01*
X153047431Y-35440733D01*
X153177953Y-35627140D01*
X153338859Y-35788046D01*
X153525264Y-35918567D01*
X153525265Y-35918567D01*
X153525266Y-35918568D01*
X153731504Y-36014739D01*
X153951308Y-36073635D01*
X154178000Y-36093468D01*
X154404692Y-36073635D01*
X154624496Y-36014739D01*
X154830734Y-35918568D01*
X155017139Y-35788047D01*
X155178047Y-35627139D01*
X155308568Y-35440734D01*
X155335618Y-35382724D01*
X155381375Y-35330549D01*
X155448000Y-35311129D01*
X155514625Y-35330549D01*
X155560382Y-35382725D01*
X155587431Y-35440733D01*
X155717953Y-35627140D01*
X155878859Y-35788046D01*
X156065264Y-35918567D01*
X156065265Y-35918567D01*
X156065266Y-35918568D01*
X156271504Y-36014739D01*
X156491308Y-36073635D01*
X156718000Y-36093468D01*
X156944692Y-36073635D01*
X157164496Y-36014739D01*
X157370734Y-35918568D01*
X157557139Y-35788047D01*
X157718047Y-35627139D01*
X157848568Y-35440734D01*
X157875618Y-35382724D01*
X157921375Y-35330549D01*
X157988000Y-35311129D01*
X158054625Y-35330549D01*
X158100382Y-35382725D01*
X158127431Y-35440733D01*
X158257953Y-35627140D01*
X158418859Y-35788046D01*
X158605264Y-35918567D01*
X158605265Y-35918567D01*
X158605266Y-35918568D01*
X158811504Y-36014739D01*
X159031308Y-36073635D01*
X159258000Y-36093468D01*
X159484692Y-36073635D01*
X159704496Y-36014739D01*
X159910734Y-35918568D01*
X160097139Y-35788047D01*
X160258047Y-35627139D01*
X160388568Y-35440734D01*
X160415618Y-35382724D01*
X160461375Y-35330549D01*
X160528000Y-35311129D01*
X160594625Y-35330549D01*
X160640382Y-35382725D01*
X160667431Y-35440733D01*
X160797953Y-35627140D01*
X160958859Y-35788046D01*
X161145264Y-35918567D01*
X161145265Y-35918567D01*
X161145266Y-35918568D01*
X161351504Y-36014739D01*
X161571308Y-36073635D01*
X161798000Y-36093468D01*
X162024692Y-36073635D01*
X162244496Y-36014739D01*
X162450734Y-35918568D01*
X162637139Y-35788047D01*
X162798047Y-35627139D01*
X162928568Y-35440734D01*
X163024739Y-35234496D01*
X163083635Y-35014692D01*
X163103468Y-34788000D01*
X163083635Y-34561308D01*
X163024739Y-34341504D01*
X162928568Y-34135266D01*
X162846049Y-34017416D01*
X162798046Y-33948859D01*
X162637140Y-33787953D01*
X162450735Y-33657432D01*
X162244497Y-33561261D01*
X162024689Y-33502364D01*
X161997669Y-33500000D01*
X170744591Y-33500000D01*
X170764197Y-33761627D01*
X170822580Y-34017418D01*
X170917426Y-34259080D01*
X170918432Y-34261643D01*
X171049614Y-34488857D01*
X171213195Y-34693981D01*
X171213197Y-34693983D01*
X171213198Y-34693984D01*
X171405514Y-34872428D01*
X171405520Y-34872432D01*
X171405521Y-34872433D01*
X171622296Y-35020228D01*
X171858677Y-35134063D01*
X172109385Y-35211396D01*
X172368818Y-35250500D01*
X172631182Y-35250500D01*
X172890615Y-35211396D01*
X173141323Y-35134063D01*
X173377704Y-35020228D01*
X173594479Y-34872433D01*
X173594482Y-34872429D01*
X173594485Y-34872428D01*
X173685477Y-34787999D01*
X173786805Y-34693981D01*
X173950386Y-34488857D01*
X174081568Y-34261643D01*
X174177420Y-34017416D01*
X174235802Y-33761630D01*
X174255408Y-33500000D01*
X174235802Y-33238370D01*
X174177420Y-32982584D01*
X174081568Y-32738357D01*
X173950386Y-32511143D01*
X173786805Y-32306019D01*
X173786801Y-32306015D01*
X173594485Y-32127571D01*
X173577170Y-32115766D01*
X173377704Y-31979772D01*
X173141323Y-31865937D01*
X172890615Y-31788604D01*
X172631182Y-31749500D01*
X172368818Y-31749500D01*
X172109385Y-31788604D01*
X171858677Y-31865937D01*
X171622296Y-31979772D01*
X171614791Y-31984889D01*
X171405514Y-32127571D01*
X171213198Y-32306015D01*
X171049613Y-32511143D01*
X170918431Y-32738358D01*
X170822580Y-32982581D01*
X170764197Y-33238372D01*
X170744591Y-33500000D01*
X161997669Y-33500000D01*
X161798000Y-33482531D01*
X161571310Y-33502364D01*
X161351502Y-33561261D01*
X161145264Y-33657432D01*
X160958859Y-33787953D01*
X160797953Y-33948859D01*
X160667433Y-34135263D01*
X160640382Y-34193275D01*
X160594625Y-34245450D01*
X160528000Y-34264869D01*
X160461375Y-34245450D01*
X160415618Y-34193275D01*
X160388687Y-34135522D01*
X160388568Y-34135266D01*
X160306051Y-34017418D01*
X160258046Y-33948859D01*
X160097140Y-33787953D01*
X159910735Y-33657432D01*
X159704497Y-33561261D01*
X159484689Y-33502364D01*
X159258000Y-33482531D01*
X159031310Y-33502364D01*
X158811502Y-33561261D01*
X158605264Y-33657432D01*
X158418859Y-33787953D01*
X158257953Y-33948859D01*
X158127433Y-34135263D01*
X158100382Y-34193275D01*
X158054625Y-34245450D01*
X157988000Y-34264869D01*
X157921375Y-34245450D01*
X157875618Y-34193275D01*
X157848687Y-34135522D01*
X157848568Y-34135266D01*
X157766051Y-34017418D01*
X157718046Y-33948859D01*
X157557140Y-33787953D01*
X157370735Y-33657432D01*
X157164497Y-33561261D01*
X156944689Y-33502364D01*
X156718000Y-33482531D01*
X156491310Y-33502364D01*
X156271502Y-33561261D01*
X156065264Y-33657432D01*
X155878859Y-33787953D01*
X155717953Y-33948859D01*
X155587433Y-34135263D01*
X155560382Y-34193275D01*
X155514625Y-34245450D01*
X155448000Y-34264869D01*
X155381375Y-34245450D01*
X155335618Y-34193275D01*
X155308687Y-34135522D01*
X155308568Y-34135266D01*
X155226051Y-34017418D01*
X155178046Y-33948859D01*
X155017140Y-33787953D01*
X154830735Y-33657432D01*
X154624497Y-33561261D01*
X154404689Y-33502364D01*
X154178000Y-33482531D01*
X153951310Y-33502364D01*
X153731502Y-33561261D01*
X153525264Y-33657432D01*
X153338859Y-33787953D01*
X153177953Y-33948859D01*
X153047433Y-34135263D01*
X153020382Y-34193275D01*
X152974625Y-34245450D01*
X152908000Y-34264869D01*
X152841375Y-34245450D01*
X152795618Y-34193275D01*
X152768687Y-34135522D01*
X152768568Y-34135266D01*
X152686051Y-34017418D01*
X152638046Y-33948859D01*
X152477140Y-33787953D01*
X152290735Y-33657432D01*
X152084497Y-33561261D01*
X151864689Y-33502364D01*
X151638000Y-33482531D01*
X151411310Y-33502364D01*
X151191502Y-33561261D01*
X150985264Y-33657432D01*
X150798859Y-33787953D01*
X150637953Y-33948859D01*
X150507433Y-34135263D01*
X150480382Y-34193275D01*
X150434625Y-34245450D01*
X150368000Y-34264869D01*
X150301375Y-34245450D01*
X150255618Y-34193275D01*
X150228687Y-34135522D01*
X150228568Y-34135266D01*
X150146051Y-34017418D01*
X150098046Y-33948859D01*
X149937140Y-33787953D01*
X149750735Y-33657432D01*
X149544497Y-33561261D01*
X149324689Y-33502364D01*
X149098000Y-33482531D01*
X148871310Y-33502364D01*
X148651502Y-33561261D01*
X148445264Y-33657432D01*
X148258859Y-33787953D01*
X148097953Y-33948859D01*
X147967433Y-34135263D01*
X147940382Y-34193275D01*
X147894625Y-34245450D01*
X147828000Y-34264869D01*
X147761375Y-34245450D01*
X147715618Y-34193275D01*
X147688687Y-34135522D01*
X147688568Y-34135266D01*
X147606051Y-34017418D01*
X147558046Y-33948859D01*
X147397140Y-33787953D01*
X147210735Y-33657432D01*
X147004497Y-33561261D01*
X146784689Y-33502364D01*
X146558000Y-33482531D01*
X146331310Y-33502364D01*
X146111502Y-33561261D01*
X145905264Y-33657432D01*
X145718859Y-33787953D01*
X145557953Y-33948859D01*
X145427433Y-34135263D01*
X145400382Y-34193275D01*
X145354625Y-34245450D01*
X145288000Y-34264869D01*
X145221375Y-34245450D01*
X145175618Y-34193275D01*
X145148687Y-34135522D01*
X145148568Y-34135266D01*
X145066051Y-34017418D01*
X145018046Y-33948859D01*
X144857140Y-33787953D01*
X144670735Y-33657432D01*
X144464497Y-33561261D01*
X144244689Y-33502364D01*
X144018000Y-33482531D01*
X143791310Y-33502364D01*
X143571502Y-33561261D01*
X143365264Y-33657432D01*
X143178859Y-33787953D01*
X143017953Y-33948859D01*
X142887433Y-34135263D01*
X142860382Y-34193275D01*
X142814625Y-34245450D01*
X142748000Y-34264869D01*
X142681375Y-34245450D01*
X142635618Y-34193275D01*
X142608687Y-34135522D01*
X142608568Y-34135266D01*
X142526051Y-34017418D01*
X142478046Y-33948859D01*
X142317140Y-33787953D01*
X142130735Y-33657432D01*
X141924497Y-33561261D01*
X141704689Y-33502364D01*
X141478000Y-33482531D01*
X141251310Y-33502364D01*
X141031502Y-33561261D01*
X140825264Y-33657432D01*
X140638859Y-33787953D01*
X140477953Y-33948859D01*
X140347433Y-34135263D01*
X140320382Y-34193275D01*
X140274625Y-34245450D01*
X140208000Y-34264869D01*
X140141375Y-34245450D01*
X140095618Y-34193275D01*
X140068687Y-34135522D01*
X140068568Y-34135266D01*
X139986051Y-34017418D01*
X139938046Y-33948859D01*
X139777140Y-33787953D01*
X139590735Y-33657432D01*
X139384497Y-33561261D01*
X139164689Y-33502364D01*
X138938000Y-33482531D01*
X138711310Y-33502364D01*
X138491502Y-33561261D01*
X138285264Y-33657432D01*
X138098859Y-33787953D01*
X137937953Y-33948859D01*
X137807433Y-34135263D01*
X137780382Y-34193275D01*
X137734625Y-34245450D01*
X137668000Y-34264869D01*
X137601375Y-34245450D01*
X137555618Y-34193275D01*
X137528687Y-34135522D01*
X137528568Y-34135266D01*
X137446051Y-34017418D01*
X137398046Y-33948859D01*
X137237140Y-33787953D01*
X137050735Y-33657432D01*
X136844497Y-33561261D01*
X136624689Y-33502364D01*
X136398000Y-33482531D01*
X136171310Y-33502364D01*
X135951502Y-33561261D01*
X135745264Y-33657432D01*
X135558859Y-33787953D01*
X135397953Y-33948859D01*
X135267430Y-34135267D01*
X135240105Y-34193866D01*
X135194348Y-34246041D01*
X135127723Y-34265460D01*
X135061099Y-34246040D01*
X135015342Y-34193865D01*
X134988134Y-34135519D01*
X134857658Y-33949180D01*
X134696819Y-33788341D01*
X134510480Y-33657865D01*
X134304326Y-33561733D01*
X134108000Y-33509128D01*
X134108000Y-36066871D01*
X133608000Y-36066871D01*
X133608000Y-33509128D01*
X133607999Y-33509128D01*
X133411673Y-33561733D01*
X133205519Y-33657865D01*
X133019180Y-33788341D01*
X132858341Y-33949180D01*
X132727863Y-34135522D01*
X132700656Y-34193866D01*
X132654899Y-34246041D01*
X132588274Y-34265460D01*
X132521650Y-34246040D01*
X132475893Y-34193865D01*
X132448567Y-34135264D01*
X132318046Y-33948859D01*
X132157140Y-33787953D01*
X131970735Y-33657432D01*
X131764497Y-33561261D01*
X131544689Y-33502364D01*
X131318000Y-33482531D01*
X131091310Y-33502364D01*
X130871502Y-33561261D01*
X130665264Y-33657432D01*
X130478859Y-33787953D01*
X130317953Y-33948859D01*
X130187433Y-34135263D01*
X130160382Y-34193275D01*
X130114625Y-34245450D01*
X130048000Y-34264869D01*
X129981375Y-34245450D01*
X129935618Y-34193275D01*
X129908687Y-34135522D01*
X129908568Y-34135266D01*
X129826051Y-34017418D01*
X129778046Y-33948859D01*
X129617140Y-33787953D01*
X129430735Y-33657432D01*
X129224497Y-33561261D01*
X129004689Y-33502364D01*
X128778000Y-33482531D01*
X128551310Y-33502364D01*
X128331502Y-33561261D01*
X128125264Y-33657432D01*
X127938859Y-33787953D01*
X127777953Y-33948859D01*
X127647433Y-34135263D01*
X127620382Y-34193275D01*
X127574625Y-34245450D01*
X127508000Y-34264869D01*
X127441375Y-34245450D01*
X127395618Y-34193275D01*
X127368687Y-34135522D01*
X127368568Y-34135266D01*
X127286051Y-34017418D01*
X127238046Y-33948859D01*
X127077140Y-33787953D01*
X126890735Y-33657432D01*
X126684497Y-33561261D01*
X126464689Y-33502364D01*
X126238000Y-33482531D01*
X126011310Y-33502364D01*
X125791502Y-33561261D01*
X125585264Y-33657432D01*
X125398859Y-33787953D01*
X125237953Y-33948859D01*
X125107432Y-34135264D01*
X125011261Y-34341502D01*
X124952364Y-34561310D01*
X124932531Y-34787999D01*
X124952364Y-35014690D01*
X124970680Y-35083047D01*
X124970680Y-35147234D01*
X124938586Y-35202821D01*
X123211228Y-36930181D01*
X123171000Y-36957061D01*
X123123547Y-36966500D01*
X121566499Y-36966500D01*
X121504499Y-36949887D01*
X121459112Y-36904500D01*
X121442499Y-36842500D01*
X121442499Y-36744130D01*
X121442499Y-36744127D01*
X121436091Y-36684517D01*
X121385796Y-36549669D01*
X121299546Y-36434454D01*
X121184331Y-36348204D01*
X121049483Y-36297909D01*
X120989873Y-36291500D01*
X120989869Y-36291500D01*
X119294130Y-36291500D01*
X119234515Y-36297909D01*
X119099669Y-36348204D01*
X118984454Y-36434454D01*
X118898204Y-36549668D01*
X118847909Y-36684516D01*
X118841500Y-36744130D01*
X118841500Y-38439869D01*
X118847909Y-38499483D01*
X118898204Y-38634331D01*
X118984454Y-38749546D01*
X119099669Y-38835796D01*
X119234517Y-38886091D01*
X119294127Y-38892500D01*
X120989872Y-38892499D01*
X121049483Y-38886091D01*
X121184331Y-38835796D01*
X121299546Y-38749546D01*
X121385796Y-38634331D01*
X121436091Y-38499483D01*
X121442500Y-38439873D01*
X121442500Y-38341500D01*
X121459113Y-38279500D01*
X121504500Y-38234113D01*
X121566500Y-38217500D01*
X123351256Y-38217500D01*
X123371762Y-38219764D01*
X123374665Y-38219672D01*
X123374667Y-38219673D01*
X123441872Y-38217561D01*
X123445768Y-38217500D01*
X123473349Y-38217500D01*
X123473350Y-38217500D01*
X123477319Y-38216998D01*
X123488965Y-38216080D01*
X123532627Y-38214709D01*
X123551859Y-38209120D01*
X123570918Y-38205174D01*
X123577196Y-38204381D01*
X123590792Y-38202664D01*
X123631407Y-38186582D01*
X123642444Y-38182803D01*
X123684390Y-38170618D01*
X123701629Y-38160422D01*
X123719102Y-38151862D01*
X123737732Y-38144486D01*
X123773064Y-38118814D01*
X123782830Y-38112400D01*
X123820418Y-38090171D01*
X123820417Y-38090171D01*
X123820420Y-38090170D01*
X123834585Y-38076004D01*
X123849373Y-38063373D01*
X123865587Y-38051594D01*
X123893438Y-38017926D01*
X123901279Y-38009309D01*
X125823178Y-36087411D01*
X125878763Y-36055319D01*
X125942951Y-36055319D01*
X126011308Y-36073635D01*
X126162435Y-36086856D01*
X126237999Y-36093468D01*
X126237999Y-36093467D01*
X126238000Y-36093468D01*
X126249299Y-36092479D01*
X126282100Y-36089610D01*
X126341358Y-36098995D01*
X126389274Y-36135102D01*
X126414630Y-36189478D01*
X126411490Y-36249392D01*
X126380589Y-36300819D01*
X120671228Y-42010181D01*
X120631000Y-42037061D01*
X120583547Y-42046500D01*
X117530807Y-42046500D01*
X117473550Y-42032489D01*
X117429232Y-41993624D01*
X117322358Y-41840991D01*
X117163009Y-41681642D01*
X116978410Y-41552385D01*
X116978406Y-41552382D01*
X116774173Y-41457148D01*
X116774170Y-41457147D01*
X116665332Y-41427983D01*
X116556493Y-41398820D01*
X116332000Y-41379179D01*
X116107506Y-41398820D01*
X115889826Y-41457148D01*
X115685593Y-41552382D01*
X115500987Y-41681645D01*
X115341645Y-41840987D01*
X115212382Y-42025593D01*
X115117148Y-42229826D01*
X115058820Y-42447506D01*
X115039179Y-42671999D01*
X115058820Y-42896493D01*
X115117148Y-43114173D01*
X115212382Y-43318406D01*
X115212385Y-43318410D01*
X115341642Y-43503009D01*
X115500991Y-43662358D01*
X115648670Y-43765763D01*
X115685591Y-43791616D01*
X115728802Y-43811765D01*
X115767086Y-43829617D01*
X115819262Y-43875373D01*
X115838682Y-43941998D01*
X115819263Y-44008623D01*
X115767087Y-44054381D01*
X115685592Y-44092383D01*
X115547020Y-44189412D01*
X115514829Y-44211953D01*
X115500987Y-44221645D01*
X115341645Y-44380987D01*
X115212382Y-44565593D01*
X115117148Y-44769826D01*
X115058820Y-44987506D01*
X115039179Y-45212000D01*
X113500500Y-45212000D01*
X113500500Y-33499999D01*
X114744591Y-33499999D01*
X114764197Y-33761627D01*
X114822580Y-34017418D01*
X114917426Y-34259080D01*
X114918432Y-34261643D01*
X115049614Y-34488857D01*
X115213195Y-34693981D01*
X115213197Y-34693983D01*
X115213198Y-34693984D01*
X115405514Y-34872428D01*
X115405520Y-34872432D01*
X115405521Y-34872433D01*
X115622296Y-35020228D01*
X115858677Y-35134063D01*
X116109385Y-35211396D01*
X116368818Y-35250500D01*
X116631182Y-35250500D01*
X116890615Y-35211396D01*
X117141323Y-35134063D01*
X117377704Y-35020228D01*
X117594479Y-34872433D01*
X117594482Y-34872429D01*
X117594485Y-34872428D01*
X117685477Y-34787999D01*
X117786805Y-34693981D01*
X117950386Y-34488857D01*
X118081568Y-34261643D01*
X118177420Y-34017416D01*
X118235802Y-33761630D01*
X118255408Y-33500000D01*
X118235802Y-33238370D01*
X118177420Y-32982584D01*
X118081568Y-32738357D01*
X117950386Y-32511143D01*
X117786805Y-32306019D01*
X117786801Y-32306015D01*
X117594485Y-32127571D01*
X117577170Y-32115766D01*
X117377704Y-31979772D01*
X117141323Y-31865937D01*
X116890615Y-31788604D01*
X116631182Y-31749500D01*
X116368818Y-31749500D01*
X116109385Y-31788604D01*
X115858677Y-31865937D01*
X115622296Y-31979772D01*
X115614791Y-31984889D01*
X115405514Y-32127571D01*
X115213198Y-32306015D01*
X115049613Y-32511143D01*
X114918431Y-32738358D01*
X114822580Y-32982581D01*
X114764197Y-33238372D01*
X114744591Y-33499999D01*
X113500500Y-33499999D01*
X113500500Y-30624500D01*
X113517113Y-30562500D01*
X113562500Y-30517113D01*
X113624500Y-30500500D01*
X175375500Y-30500500D01*
X175437500Y-30517113D01*
G37*
%TD.AperFunction*%
%TD*%
M02*
